<?xml version="1.0" encoding="UTF-8" standalone="no"?>
<svg
   xmlns:dc="http://purl.org/dc/elements/1.1/"
   xmlns:cc="http://creativecommons.org/ns#"
   xmlns:rdf="http://www.w3.org/1999/02/22-rdf-syntax-ns#"
   xmlns:svg="http://www.w3.org/2000/svg"
   xmlns="http://www.w3.org/2000/svg"
   viewBox="0 0 480 288"
   height="288"
   width="480"
   xml:space="preserve"
   id="svg2"
   version="1.1"><metadata
     id="metadata8"><rdf:RDF><cc:Work
         rdf:about=""><dc:format>image/svg+xml</dc:format><dc:type
           rdf:resource="http://purl.org/dc/dcmitype/StillImage" /></cc:Work></rdf:RDF></metadata><defs
     id="defs6" /><g
     transform="matrix(1.3333333,0,0,-1.3333333,0,288)"
     id="g10"><g
       transform="scale(0.1)"
       id="g12"><path
         id="path14"
         style="fill:none;stroke:#000000;stroke-width:1.5;stroke-linecap:square;stroke-linejoin:miter;stroke-miterlimit:3.79999995;stroke-dasharray:2, 20;stroke-dashoffset:0;stroke-opacity:1"
         d="m 378.52,418.012 h 2220" /><path
         id="path16"
         style="fill:none;stroke:#000000;stroke-width:2.5;stroke-linecap:square;stroke-linejoin:miter;stroke-miterlimit:3.79999995;stroke-dasharray:none;stroke-opacity:1"
         d="m 378.52,418.012 h 36.992" /><path
         id="path18"
         style="fill:none;stroke:#000000;stroke-width:2.5;stroke-linecap:square;stroke-linejoin:miter;stroke-miterlimit:3.79999995;stroke-dasharray:none;stroke-opacity:1"
         d="m 2598.52,418.012 h -37.04" /><g
         transform="scale(10)"
         id="g20"><text
           id="text24"
           style="font-variant:normal;font-weight:normal;font-size:8px;font-family:'DejaVu Sans';-inkscape-font-specification:DejaVuSans;writing-mode:lr-tb;fill:#000000;fill-opacity:1;fill-rule:nonzero;stroke:none"
           transform="matrix(1,0,0,-1,19.6602,39.1992)"><tspan
             id="tspan22"
             y="0"
             x="0 2.8800001 7.9679999">-80</tspan></text>
</g><path
         id="path26"
         style="fill:none;stroke:#000000;stroke-width:1.5;stroke-linecap:square;stroke-linejoin:miter;stroke-miterlimit:3.79999995;stroke-dasharray:2, 20;stroke-dashoffset:0;stroke-opacity:1"
         d="m 378.52,760.512 h 2220" /><path
         id="path28"
         style="fill:none;stroke:#000000;stroke-width:2.5;stroke-linecap:square;stroke-linejoin:miter;stroke-miterlimit:3.79999995;stroke-dasharray:none;stroke-opacity:1"
         d="m 378.52,760.512 h 36.992" /><path
         id="path30"
         style="fill:none;stroke:#000000;stroke-width:2.5;stroke-linecap:square;stroke-linejoin:miter;stroke-miterlimit:3.79999995;stroke-dasharray:none;stroke-opacity:1"
         d="m 2598.52,760.512 h -37.04" /><g
         transform="scale(10)"
         id="g32"><text
           id="text36"
           style="font-variant:normal;font-weight:normal;font-size:8px;font-family:'DejaVu Sans';-inkscape-font-specification:DejaVuSans;writing-mode:lr-tb;fill:#000000;fill-opacity:1;fill-rule:nonzero;stroke:none"
           transform="matrix(1,0,0,-1,19.6602,73.4492)"><tspan
             id="tspan34"
             y="0"
             x="0 2.8800001 7.9679999">-60</tspan></text>
</g><path
         id="path38"
         style="fill:none;stroke:#000000;stroke-width:1.5;stroke-linecap:square;stroke-linejoin:miter;stroke-miterlimit:3.79999995;stroke-dasharray:2, 20;stroke-dashoffset:0;stroke-opacity:1"
         d="m 378.52,1102.5 h 2220" /><path
         id="path40"
         style="fill:none;stroke:#000000;stroke-width:2.5;stroke-linecap:square;stroke-linejoin:miter;stroke-miterlimit:3.79999995;stroke-dasharray:none;stroke-opacity:1"
         d="m 378.52,1102.5 h 36.992" /><path
         id="path42"
         style="fill:none;stroke:#000000;stroke-width:2.5;stroke-linecap:square;stroke-linejoin:miter;stroke-miterlimit:3.79999995;stroke-dasharray:none;stroke-opacity:1"
         d="m 2598.52,1102.5 h -37.04" /><g
         transform="scale(10)"
         id="g44"><text
           id="text48"
           style="font-variant:normal;font-weight:normal;font-size:8px;font-family:'DejaVu Sans';-inkscape-font-specification:DejaVuSans;writing-mode:lr-tb;fill:#000000;fill-opacity:1;fill-rule:nonzero;stroke:none"
           transform="matrix(1,0,0,-1,19.6602,107.648)"><tspan
             id="tspan46"
             y="0"
             x="0 2.8800001 7.9679999">-40</tspan></text>
</g><path
         id="path50"
         style="fill:none;stroke:#000000;stroke-width:1.5;stroke-linecap:square;stroke-linejoin:miter;stroke-miterlimit:3.79999995;stroke-dasharray:2, 20;stroke-dashoffset:0;stroke-opacity:1"
         d="m 378.52,1445 h 2220" /><path
         id="path52"
         style="fill:none;stroke:#000000;stroke-width:2.5;stroke-linecap:square;stroke-linejoin:miter;stroke-miterlimit:3.79999995;stroke-dasharray:none;stroke-opacity:1"
         d="m 378.52,1445 h 36.992" /><path
         id="path54"
         style="fill:none;stroke:#000000;stroke-width:2.5;stroke-linecap:square;stroke-linejoin:miter;stroke-miterlimit:3.79999995;stroke-dasharray:none;stroke-opacity:1"
         d="m 2598.52,1445 h -37.04" /><g
         transform="scale(10)"
         id="g56"><text
           id="text60"
           style="font-variant:normal;font-weight:normal;font-size:8px;font-family:'DejaVu Sans';-inkscape-font-specification:DejaVuSans;writing-mode:lr-tb;fill:#000000;fill-opacity:1;fill-rule:nonzero;stroke:none"
           transform="matrix(1,0,0,-1,19.6602,141.898)"><tspan
             id="tspan58"
             y="0"
             x="0 2.8800001 7.9679999">-20</tspan></text>
</g><path
         id="path62"
         style="fill:none;stroke:#000000;stroke-width:1.5;stroke-linecap:square;stroke-linejoin:miter;stroke-miterlimit:3.79999995;stroke-dasharray:2, 20;stroke-dashoffset:0;stroke-opacity:1"
         d="m 378.52,1787.5 h 2220" /><path
         id="path64"
         style="fill:none;stroke:#000000;stroke-width:2.5;stroke-linecap:square;stroke-linejoin:miter;stroke-miterlimit:3.79999995;stroke-dasharray:none;stroke-opacity:1"
         d="m 378.52,1787.5 h 36.992" /><path
         id="path66"
         style="fill:none;stroke:#000000;stroke-width:2.5;stroke-linecap:square;stroke-linejoin:miter;stroke-miterlimit:3.79999995;stroke-dasharray:none;stroke-opacity:1"
         d="m 2598.52,1787.5 h -37.04" /><g
         transform="scale(10)"
         id="g68"><text
           id="text72"
           style="font-variant:normal;font-weight:normal;font-size:8px;font-family:'DejaVu Sans';-inkscape-font-specification:DejaVuSans;writing-mode:lr-tb;fill:#000000;fill-opacity:1;fill-rule:nonzero;stroke:none"
           transform="matrix(1,0,0,-1,27.6367,176.148)"><tspan
             id="tspan70"
             y="0"
             x="0">0</tspan></text>
</g><path
         id="path74"
         style="fill:none;stroke:#000000;stroke-width:1.5;stroke-linecap:square;stroke-linejoin:miter;stroke-miterlimit:3.79999995;stroke-dasharray:2, 20;stroke-dashoffset:0;stroke-opacity:1"
         d="m 378.52,292.5 v 1760" /><path
         id="path76"
         style="fill:none;stroke:#000000;stroke-width:2.5;stroke-linecap:square;stroke-linejoin:miter;stroke-miterlimit:3.79999995;stroke-dasharray:none;stroke-opacity:1"
         d="m 378.52,292.5 v 36.988" /><path
         id="path78"
         style="fill:none;stroke:#000000;stroke-width:2.5;stroke-linecap:square;stroke-linejoin:miter;stroke-miterlimit:3.79999995;stroke-dasharray:none;stroke-opacity:1"
         d="m 378.52,2052.5 v -36.99" /><g
         transform="scale(10)"
         id="g80"><text
           id="text84"
           style="font-variant:normal;font-weight:normal;font-size:8px;font-family:'DejaVu Sans';-inkscape-font-specification:DejaVuSans;writing-mode:lr-tb;fill:#000000;fill-opacity:1;fill-rule:nonzero;stroke:none"
           transform="matrix(1,0,0,-1,32.7344,17.3477)"><tspan
             id="tspan82"
             y="0"
             x="0 5.0879998">10</tspan></text>
</g><path
         id="path86"
         style="fill:none;stroke:#000000;stroke-width:1.5;stroke-linecap:square;stroke-linejoin:miter;stroke-miterlimit:3.79999995;stroke-dasharray:2, 20;stroke-dashoffset:0;stroke-opacity:1"
         d="m 571.02,292.5 v 1760" /><path
         id="path88"
         style="fill:none;stroke:#000000;stroke-width:2.5;stroke-linecap:square;stroke-linejoin:miter;stroke-miterlimit:3.79999995;stroke-dasharray:none;stroke-opacity:1"
         d="m 571.02,292.5 v 18.52" /><path
         id="path90"
         style="fill:none;stroke:#000000;stroke-width:2.5;stroke-linecap:square;stroke-linejoin:miter;stroke-miterlimit:3.79999995;stroke-dasharray:none;stroke-opacity:1"
         d="m 571.02,2052.5 v -18.52" /><path
         id="path92"
         style="fill:none;stroke:#000000;stroke-width:1.5;stroke-linecap:square;stroke-linejoin:miter;stroke-miterlimit:3.79999995;stroke-dasharray:2, 20;stroke-dashoffset:0;stroke-opacity:1"
         d="m 683.52,292.5 v 1760" /><path
         id="path94"
         style="fill:none;stroke:#000000;stroke-width:2.5;stroke-linecap:square;stroke-linejoin:miter;stroke-miterlimit:3.79999995;stroke-dasharray:none;stroke-opacity:1"
         d="m 683.52,292.5 v 18.52" /><path
         id="path96"
         style="fill:none;stroke:#000000;stroke-width:2.5;stroke-linecap:square;stroke-linejoin:miter;stroke-miterlimit:3.79999995;stroke-dasharray:none;stroke-opacity:1"
         d="m 683.52,2052.5 v -18.52" /><path
         id="path98"
         style="fill:none;stroke:#000000;stroke-width:1.5;stroke-linecap:square;stroke-linejoin:miter;stroke-miterlimit:3.79999995;stroke-dasharray:2, 20;stroke-dashoffset:0;stroke-opacity:1"
         d="m 763.52,292.5 v 1760" /><path
         id="path100"
         style="fill:none;stroke:#000000;stroke-width:2.5;stroke-linecap:square;stroke-linejoin:miter;stroke-miterlimit:3.79999995;stroke-dasharray:none;stroke-opacity:1"
         d="m 763.52,292.5 v 18.52" /><path
         id="path102"
         style="fill:none;stroke:#000000;stroke-width:2.5;stroke-linecap:square;stroke-linejoin:miter;stroke-miterlimit:3.79999995;stroke-dasharray:none;stroke-opacity:1"
         d="m 763.52,2052.5 v -18.52" /><path
         id="path104"
         style="fill:none;stroke:#000000;stroke-width:1.5;stroke-linecap:square;stroke-linejoin:miter;stroke-miterlimit:3.79999995;stroke-dasharray:2, 20;stroke-dashoffset:0;stroke-opacity:1"
         d="m 825.512,292.5 v 1760" /><path
         id="path106"
         style="fill:none;stroke:#000000;stroke-width:2.5;stroke-linecap:square;stroke-linejoin:miter;stroke-miterlimit:3.79999995;stroke-dasharray:none;stroke-opacity:1"
         d="m 825.512,292.5 v 18.52" /><path
         id="path108"
         style="fill:none;stroke:#000000;stroke-width:2.5;stroke-linecap:square;stroke-linejoin:miter;stroke-miterlimit:3.79999995;stroke-dasharray:none;stroke-opacity:1"
         d="m 825.512,2052.5 v -18.52" /><path
         id="path110"
         style="fill:none;stroke:#000000;stroke-width:1.5;stroke-linecap:square;stroke-linejoin:miter;stroke-miterlimit:3.79999995;stroke-dasharray:2, 20;stroke-dashoffset:0;stroke-opacity:1"
         d="m 876.48,292.5 v 1760" /><path
         id="path112"
         style="fill:none;stroke:#000000;stroke-width:2.5;stroke-linecap:square;stroke-linejoin:miter;stroke-miterlimit:3.79999995;stroke-dasharray:none;stroke-opacity:1"
         d="m 876.48,292.5 v 18.52" /><path
         id="path114"
         style="fill:none;stroke:#000000;stroke-width:2.5;stroke-linecap:square;stroke-linejoin:miter;stroke-miterlimit:3.79999995;stroke-dasharray:none;stroke-opacity:1"
         d="m 876.48,2052.5 v -18.52" /><path
         id="path116"
         style="fill:none;stroke:#000000;stroke-width:1.5;stroke-linecap:square;stroke-linejoin:miter;stroke-miterlimit:3.79999995;stroke-dasharray:2, 20;stroke-dashoffset:0;stroke-opacity:1"
         d="m 918.98,292.5 v 1760" /><path
         id="path118"
         style="fill:none;stroke:#000000;stroke-width:2.5;stroke-linecap:square;stroke-linejoin:miter;stroke-miterlimit:3.79999995;stroke-dasharray:none;stroke-opacity:1"
         d="m 918.98,292.5 v 18.52" /><path
         id="path120"
         style="fill:none;stroke:#000000;stroke-width:2.5;stroke-linecap:square;stroke-linejoin:miter;stroke-miterlimit:3.79999995;stroke-dasharray:none;stroke-opacity:1"
         d="m 918.98,2052.5 v -18.52" /><path
         id="path122"
         style="fill:none;stroke:#000000;stroke-width:1.5;stroke-linecap:square;stroke-linejoin:miter;stroke-miterlimit:3.79999995;stroke-dasharray:2, 20;stroke-dashoffset:0;stroke-opacity:1"
         d="m 956.48,292.5 v 1760" /><path
         id="path124"
         style="fill:none;stroke:#000000;stroke-width:2.5;stroke-linecap:square;stroke-linejoin:miter;stroke-miterlimit:3.79999995;stroke-dasharray:none;stroke-opacity:1"
         d="m 956.48,292.5 v 18.52" /><path
         id="path126"
         style="fill:none;stroke:#000000;stroke-width:2.5;stroke-linecap:square;stroke-linejoin:miter;stroke-miterlimit:3.79999995;stroke-dasharray:none;stroke-opacity:1"
         d="m 956.48,2052.5 v -18.52" /><path
         id="path128"
         style="fill:none;stroke:#000000;stroke-width:1.5;stroke-linecap:square;stroke-linejoin:miter;stroke-miterlimit:3.79999995;stroke-dasharray:2, 20;stroke-dashoffset:0;stroke-opacity:1"
         d="m 988.98,292.5 v 1760" /><path
         id="path130"
         style="fill:none;stroke:#000000;stroke-width:2.5;stroke-linecap:square;stroke-linejoin:miter;stroke-miterlimit:3.79999995;stroke-dasharray:none;stroke-opacity:1"
         d="m 988.98,292.5 v 18.52" /><path
         id="path132"
         style="fill:none;stroke:#000000;stroke-width:2.5;stroke-linecap:square;stroke-linejoin:miter;stroke-miterlimit:3.79999995;stroke-dasharray:none;stroke-opacity:1"
         d="m 988.98,2052.5 v -18.52" /><path
         id="path134"
         style="fill:none;stroke:#000000;stroke-width:1.5;stroke-linecap:square;stroke-linejoin:miter;stroke-miterlimit:3.79999995;stroke-dasharray:2, 20;stroke-dashoffset:0;stroke-opacity:1"
         d="m 1018.52,292.5 v 1760" /><path
         id="path136"
         style="fill:none;stroke:#000000;stroke-width:2.5;stroke-linecap:square;stroke-linejoin:miter;stroke-miterlimit:3.79999995;stroke-dasharray:none;stroke-opacity:1"
         d="m 1018.52,292.5 v 36.988" /><path
         id="path138"
         style="fill:none;stroke:#000000;stroke-width:2.5;stroke-linecap:square;stroke-linejoin:miter;stroke-miterlimit:3.79999995;stroke-dasharray:none;stroke-opacity:1"
         d="m 1018.52,2052.5 v -36.99" /><g
         transform="scale(10)"
         id="g140"><text
           id="text144"
           style="font-variant:normal;font-weight:normal;font-size:8px;font-family:'DejaVu Sans';-inkscape-font-specification:DejaVuSans;writing-mode:lr-tb;fill:#000000;fill-opacity:1;fill-rule:nonzero;stroke:none"
           transform="matrix(1,0,0,-1,94.1914,17.3477)"><tspan
             id="tspan142"
             y="0"
             x="0 5.0879998 10.176">100</tspan></text>
</g><path
         id="path146"
         style="fill:none;stroke:#000000;stroke-width:1.5;stroke-linecap:square;stroke-linejoin:miter;stroke-miterlimit:3.79999995;stroke-dasharray:2, 20;stroke-dashoffset:0;stroke-opacity:1"
         d="m 1211.02,292.5 v 1760" /><path
         id="path148"
         style="fill:none;stroke:#000000;stroke-width:2.5;stroke-linecap:square;stroke-linejoin:miter;stroke-miterlimit:3.79999995;stroke-dasharray:none;stroke-opacity:1"
         d="m 1211.02,292.5 v 18.52" /><path
         id="path150"
         style="fill:none;stroke:#000000;stroke-width:2.5;stroke-linecap:square;stroke-linejoin:miter;stroke-miterlimit:3.79999995;stroke-dasharray:none;stroke-opacity:1"
         d="m 1211.02,2052.5 v -18.52" /><path
         id="path152"
         style="fill:none;stroke:#000000;stroke-width:1.5;stroke-linecap:square;stroke-linejoin:miter;stroke-miterlimit:3.79999995;stroke-dasharray:2, 20;stroke-dashoffset:0;stroke-opacity:1"
         d="m 1323.52,292.5 v 1760" /><path
         id="path154"
         style="fill:none;stroke:#000000;stroke-width:2.5;stroke-linecap:square;stroke-linejoin:miter;stroke-miterlimit:3.79999995;stroke-dasharray:none;stroke-opacity:1"
         d="m 1323.52,292.5 v 18.52" /><path
         id="path156"
         style="fill:none;stroke:#000000;stroke-width:2.5;stroke-linecap:square;stroke-linejoin:miter;stroke-miterlimit:3.79999995;stroke-dasharray:none;stroke-opacity:1"
         d="m 1323.52,2052.5 v -18.52" /><path
         id="path158"
         style="fill:none;stroke:#000000;stroke-width:1.5;stroke-linecap:square;stroke-linejoin:miter;stroke-miterlimit:3.79999995;stroke-dasharray:2, 20;stroke-dashoffset:0;stroke-opacity:1"
         d="m 1403.52,292.5 v 1760" /><path
         id="path160"
         style="fill:none;stroke:#000000;stroke-width:2.5;stroke-linecap:square;stroke-linejoin:miter;stroke-miterlimit:3.79999995;stroke-dasharray:none;stroke-opacity:1"
         d="m 1403.52,292.5 v 18.52" /><path
         id="path162"
         style="fill:none;stroke:#000000;stroke-width:2.5;stroke-linecap:square;stroke-linejoin:miter;stroke-miterlimit:3.79999995;stroke-dasharray:none;stroke-opacity:1"
         d="m 1403.52,2052.5 v -18.52" /><path
         id="path164"
         style="fill:none;stroke:#000000;stroke-width:1.5;stroke-linecap:square;stroke-linejoin:miter;stroke-miterlimit:3.79999995;stroke-dasharray:2, 20;stroke-dashoffset:0;stroke-opacity:1"
         d="m 1465.51,292.5 v 1760" /><path
         id="path166"
         style="fill:none;stroke:#000000;stroke-width:2.5;stroke-linecap:square;stroke-linejoin:miter;stroke-miterlimit:3.79999995;stroke-dasharray:none;stroke-opacity:1"
         d="m 1465.51,292.5 v 18.52" /><path
         id="path168"
         style="fill:none;stroke:#000000;stroke-width:2.5;stroke-linecap:square;stroke-linejoin:miter;stroke-miterlimit:3.79999995;stroke-dasharray:none;stroke-opacity:1"
         d="m 1465.51,2052.5 v -18.52" /><path
         id="path170"
         style="fill:none;stroke:#000000;stroke-width:1.5;stroke-linecap:square;stroke-linejoin:miter;stroke-miterlimit:3.79999995;stroke-dasharray:2, 20;stroke-dashoffset:0;stroke-opacity:1"
         d="m 1516.02,292.5 v 1760" /><path
         id="path172"
         style="fill:none;stroke:#000000;stroke-width:2.5;stroke-linecap:square;stroke-linejoin:miter;stroke-miterlimit:3.79999995;stroke-dasharray:none;stroke-opacity:1"
         d="m 1516.02,292.5 v 18.52" /><path
         id="path174"
         style="fill:none;stroke:#000000;stroke-width:2.5;stroke-linecap:square;stroke-linejoin:miter;stroke-miterlimit:3.79999995;stroke-dasharray:none;stroke-opacity:1"
         d="m 1516.02,2052.5 v -18.52" /><path
         id="path176"
         style="fill:none;stroke:#000000;stroke-width:1.5;stroke-linecap:square;stroke-linejoin:miter;stroke-miterlimit:3.79999995;stroke-dasharray:2, 20;stroke-dashoffset:0;stroke-opacity:1"
         d="m 1558.98,292.5 v 1760" /><path
         id="path178"
         style="fill:none;stroke:#000000;stroke-width:2.5;stroke-linecap:square;stroke-linejoin:miter;stroke-miterlimit:3.79999995;stroke-dasharray:none;stroke-opacity:1"
         d="m 1558.98,292.5 v 18.52" /><path
         id="path180"
         style="fill:none;stroke:#000000;stroke-width:2.5;stroke-linecap:square;stroke-linejoin:miter;stroke-miterlimit:3.79999995;stroke-dasharray:none;stroke-opacity:1"
         d="m 1558.98,2052.5 v -18.52" /><path
         id="path182"
         style="fill:none;stroke:#000000;stroke-width:1.5;stroke-linecap:square;stroke-linejoin:miter;stroke-miterlimit:3.79999995;stroke-dasharray:2, 20;stroke-dashoffset:0;stroke-opacity:1"
         d="m 1596.02,292.5 v 1760" /><path
         id="path184"
         style="fill:none;stroke:#000000;stroke-width:2.5;stroke-linecap:square;stroke-linejoin:miter;stroke-miterlimit:3.79999995;stroke-dasharray:none;stroke-opacity:1"
         d="m 1596.02,292.5 v 18.52" /><path
         id="path186"
         style="fill:none;stroke:#000000;stroke-width:2.5;stroke-linecap:square;stroke-linejoin:miter;stroke-miterlimit:3.79999995;stroke-dasharray:none;stroke-opacity:1"
         d="m 1596.02,2052.5 v -18.52" /><path
         id="path188"
         style="fill:none;stroke:#000000;stroke-width:1.5;stroke-linecap:square;stroke-linejoin:miter;stroke-miterlimit:3.79999995;stroke-dasharray:2, 20;stroke-dashoffset:0;stroke-opacity:1"
         d="m 1628.98,292.5 v 1760" /><path
         id="path190"
         style="fill:none;stroke:#000000;stroke-width:2.5;stroke-linecap:square;stroke-linejoin:miter;stroke-miterlimit:3.79999995;stroke-dasharray:none;stroke-opacity:1"
         d="m 1628.98,292.5 v 18.52" /><path
         id="path192"
         style="fill:none;stroke:#000000;stroke-width:2.5;stroke-linecap:square;stroke-linejoin:miter;stroke-miterlimit:3.79999995;stroke-dasharray:none;stroke-opacity:1"
         d="m 1628.98,2052.5 v -18.52" /><path
         id="path194"
         style="fill:none;stroke:#000000;stroke-width:1.5;stroke-linecap:square;stroke-linejoin:miter;stroke-miterlimit:3.79999995;stroke-dasharray:2, 20;stroke-dashoffset:0;stroke-opacity:1"
         d="m 1658.01,292.5 v 1760" /><path
         id="path196"
         style="fill:none;stroke:#000000;stroke-width:2.5;stroke-linecap:square;stroke-linejoin:miter;stroke-miterlimit:3.79999995;stroke-dasharray:none;stroke-opacity:1"
         d="m 1658.01,292.5 v 36.988" /><path
         id="path198"
         style="fill:none;stroke:#000000;stroke-width:2.5;stroke-linecap:square;stroke-linejoin:miter;stroke-miterlimit:3.79999995;stroke-dasharray:none;stroke-opacity:1"
         d="m 1658.01,2052.5 v -36.99" /><g
         transform="scale(10)"
         id="g200"><text
           id="text204"
           style="font-variant:normal;font-weight:normal;font-size:8px;font-family:'DejaVu Sans';-inkscape-font-specification:DejaVuSans;writing-mode:lr-tb;fill:#000000;fill-opacity:1;fill-rule:nonzero;stroke:none"
           transform="matrix(1,0,0,-1,155.594,17.3477)"><tspan
             id="tspan202"
             y="0"
             x="0 5.0879998 10.176 15.264">1000</tspan></text>
</g><path
         id="path206"
         style="fill:none;stroke:#000000;stroke-width:1.5;stroke-linecap:square;stroke-linejoin:miter;stroke-miterlimit:3.79999995;stroke-dasharray:2, 20;stroke-dashoffset:0;stroke-opacity:1"
         d="m 1850.51,292.5 v 1760" /><path
         id="path208"
         style="fill:none;stroke:#000000;stroke-width:2.5;stroke-linecap:square;stroke-linejoin:miter;stroke-miterlimit:3.79999995;stroke-dasharray:none;stroke-opacity:1"
         d="m 1850.51,292.5 v 18.52" /><path
         id="path210"
         style="fill:none;stroke:#000000;stroke-width:2.5;stroke-linecap:square;stroke-linejoin:miter;stroke-miterlimit:3.79999995;stroke-dasharray:none;stroke-opacity:1"
         d="m 1850.51,2052.5 v -18.52" /><path
         id="path212"
         style="fill:none;stroke:#000000;stroke-width:1.5;stroke-linecap:square;stroke-linejoin:miter;stroke-miterlimit:3.79999995;stroke-dasharray:2, 20;stroke-dashoffset:0;stroke-opacity:1"
         d="m 1963.52,292.5 v 1760" /><path
         id="path214"
         style="fill:none;stroke:#000000;stroke-width:2.5;stroke-linecap:square;stroke-linejoin:miter;stroke-miterlimit:3.79999995;stroke-dasharray:none;stroke-opacity:1"
         d="m 1963.52,292.5 v 18.52" /><path
         id="path216"
         style="fill:none;stroke:#000000;stroke-width:2.5;stroke-linecap:square;stroke-linejoin:miter;stroke-miterlimit:3.79999995;stroke-dasharray:none;stroke-opacity:1"
         d="m 1963.52,2052.5 v -18.52" /><path
         id="path218"
         style="fill:none;stroke:#000000;stroke-width:1.5;stroke-linecap:square;stroke-linejoin:miter;stroke-miterlimit:3.79999995;stroke-dasharray:2, 20;stroke-dashoffset:0;stroke-opacity:1"
         d="m 2043.01,292.5 v 1760" /><path
         id="path220"
         style="fill:none;stroke:#000000;stroke-width:2.5;stroke-linecap:square;stroke-linejoin:miter;stroke-miterlimit:3.79999995;stroke-dasharray:none;stroke-opacity:1"
         d="m 2043.01,292.5 v 18.52" /><path
         id="path222"
         style="fill:none;stroke:#000000;stroke-width:2.5;stroke-linecap:square;stroke-linejoin:miter;stroke-miterlimit:3.79999995;stroke-dasharray:none;stroke-opacity:1"
         d="m 2043.01,2052.5 v -18.52" /><path
         id="path224"
         style="fill:none;stroke:#000000;stroke-width:1.5;stroke-linecap:square;stroke-linejoin:miter;stroke-miterlimit:3.79999995;stroke-dasharray:2, 20;stroke-dashoffset:0;stroke-opacity:1"
         d="m 2105,292.5 v 1760" /><path
         id="path226"
         style="fill:none;stroke:#000000;stroke-width:2.5;stroke-linecap:square;stroke-linejoin:miter;stroke-miterlimit:3.79999995;stroke-dasharray:none;stroke-opacity:1"
         d="m 2105,292.5 v 18.52" /><path
         id="path228"
         style="fill:none;stroke:#000000;stroke-width:2.5;stroke-linecap:square;stroke-linejoin:miter;stroke-miterlimit:3.79999995;stroke-dasharray:none;stroke-opacity:1"
         d="m 2105,2052.5 v -18.52" /><path
         id="path230"
         style="fill:none;stroke:#000000;stroke-width:1.5;stroke-linecap:square;stroke-linejoin:miter;stroke-miterlimit:3.79999995;stroke-dasharray:2, 20;stroke-dashoffset:0;stroke-opacity:1"
         d="m 2156.02,292.5 v 1760" /><path
         id="path232"
         style="fill:none;stroke:#000000;stroke-width:2.5;stroke-linecap:square;stroke-linejoin:miter;stroke-miterlimit:3.79999995;stroke-dasharray:none;stroke-opacity:1"
         d="m 2156.02,292.5 v 18.52" /><path
         id="path234"
         style="fill:none;stroke:#000000;stroke-width:2.5;stroke-linecap:square;stroke-linejoin:miter;stroke-miterlimit:3.79999995;stroke-dasharray:none;stroke-opacity:1"
         d="m 2156.02,2052.5 v -18.52" /><path
         id="path236"
         style="fill:none;stroke:#000000;stroke-width:1.5;stroke-linecap:square;stroke-linejoin:miter;stroke-miterlimit:3.79999995;stroke-dasharray:2, 20;stroke-dashoffset:0;stroke-opacity:1"
         d="m 2198.52,292.5 v 1760" /><path
         id="path238"
         style="fill:none;stroke:#000000;stroke-width:2.5;stroke-linecap:square;stroke-linejoin:miter;stroke-miterlimit:3.79999995;stroke-dasharray:none;stroke-opacity:1"
         d="m 2198.52,292.5 v 18.52" /><path
         id="path240"
         style="fill:none;stroke:#000000;stroke-width:2.5;stroke-linecap:square;stroke-linejoin:miter;stroke-miterlimit:3.79999995;stroke-dasharray:none;stroke-opacity:1"
         d="m 2198.52,2052.5 v -18.52" /><path
         id="path242"
         style="fill:none;stroke:#000000;stroke-width:1.5;stroke-linecap:square;stroke-linejoin:miter;stroke-miterlimit:3.79999995;stroke-dasharray:2, 20;stroke-dashoffset:0;stroke-opacity:1"
         d="m 2236.02,292.5 v 1760" /><path
         id="path244"
         style="fill:none;stroke:#000000;stroke-width:2.5;stroke-linecap:square;stroke-linejoin:miter;stroke-miterlimit:3.79999995;stroke-dasharray:none;stroke-opacity:1"
         d="m 2236.02,292.5 v 18.52" /><path
         id="path246"
         style="fill:none;stroke:#000000;stroke-width:2.5;stroke-linecap:square;stroke-linejoin:miter;stroke-miterlimit:3.79999995;stroke-dasharray:none;stroke-opacity:1"
         d="m 2236.02,2052.5 v -18.52" /><path
         id="path248"
         style="fill:none;stroke:#000000;stroke-width:1.5;stroke-linecap:square;stroke-linejoin:miter;stroke-miterlimit:3.79999995;stroke-dasharray:2, 20;stroke-dashoffset:0;stroke-opacity:1"
         d="m 2268.52,292.5 v 1760" /><path
         id="path250"
         style="fill:none;stroke:#000000;stroke-width:2.5;stroke-linecap:square;stroke-linejoin:miter;stroke-miterlimit:3.79999995;stroke-dasharray:none;stroke-opacity:1"
         d="m 2268.52,292.5 v 18.52" /><path
         id="path252"
         style="fill:none;stroke:#000000;stroke-width:2.5;stroke-linecap:square;stroke-linejoin:miter;stroke-miterlimit:3.79999995;stroke-dasharray:none;stroke-opacity:1"
         d="m 2268.52,2052.5 v -18.52" /><path
         id="path254"
         style="fill:none;stroke:#000000;stroke-width:1.5;stroke-linecap:square;stroke-linejoin:miter;stroke-miterlimit:3.79999995;stroke-dasharray:2, 20;stroke-dashoffset:0;stroke-opacity:1"
         d="m 2298.01,292.5 v 1760" /><path
         id="path256"
         style="fill:none;stroke:#000000;stroke-width:2.5;stroke-linecap:square;stroke-linejoin:miter;stroke-miterlimit:3.79999995;stroke-dasharray:none;stroke-opacity:1"
         d="m 2298.01,292.5 v 36.988" /><path
         id="path258"
         style="fill:none;stroke:#000000;stroke-width:2.5;stroke-linecap:square;stroke-linejoin:miter;stroke-miterlimit:3.79999995;stroke-dasharray:none;stroke-opacity:1"
         d="m 2298.01,2052.5 v -36.99" /><g
         transform="scale(10)"
         id="g260"><text
           id="text264"
           style="font-variant:normal;font-weight:normal;font-size:8px;font-family:'DejaVu Sans';-inkscape-font-specification:DejaVuSans;writing-mode:lr-tb;fill:#000000;fill-opacity:1;fill-rule:nonzero;stroke:none"
           transform="matrix(1,0,0,-1,217.051,17.3477)"><tspan
             id="tspan262"
             y="0"
             x="0 5.0879998 10.176 15.264 20.351999">10000</tspan></text>
</g><path
         id="path266"
         style="fill:none;stroke:#000000;stroke-width:1.5;stroke-linecap:square;stroke-linejoin:miter;stroke-miterlimit:3.79999995;stroke-dasharray:2, 20;stroke-dashoffset:0;stroke-opacity:1"
         d="m 2490.51,292.5 v 1760" /><path
         id="path268"
         style="fill:none;stroke:#000000;stroke-width:2.5;stroke-linecap:square;stroke-linejoin:miter;stroke-miterlimit:3.79999995;stroke-dasharray:none;stroke-opacity:1"
         d="m 2490.51,292.5 v 18.52" /><path
         id="path270"
         style="fill:none;stroke:#000000;stroke-width:2.5;stroke-linecap:square;stroke-linejoin:miter;stroke-miterlimit:3.79999995;stroke-dasharray:none;stroke-opacity:1"
         d="m 2490.51,2052.5 v -18.52" /><path
         id="path272"
         style="fill:none;stroke:#000000;stroke-width:1.5;stroke-linecap:square;stroke-linejoin:miter;stroke-miterlimit:3.79999995;stroke-dasharray:2, 20;stroke-dashoffset:0;stroke-opacity:1"
         d="m 2603.01,292.5 v 1760" /><path
         id="path274"
         style="fill:none;stroke:#000000;stroke-width:2.5;stroke-linecap:square;stroke-linejoin:miter;stroke-miterlimit:3.79999995;stroke-dasharray:none;stroke-opacity:1"
         d="m 378.52,292.5 h 2220 v 1760 h -2220 z" /><g
         transform="scale(10)"
         id="g276"><text
           id="text280"
           style="font-variant:normal;font-weight:normal;font-size:8px;font-family:'DejaVu Sans';-inkscape-font-specification:DejaVuSans;writing-mode:lr-tb;fill:#000000;fill-opacity:1;fill-rule:nonzero;stroke:none"
           transform="matrix(0,1,1,0,10.3008,95.207)"><tspan
             id="tspan278"
             y="0"
             x="0 3.5199201 8.4399204 13.50392 17.663919 19.879919 24.76792 29.831921 32.36792 35.487919 40.959919">Tensión [V]</tspan></text>
<text
           id="text286"
           style="font-variant:normal;font-weight:normal;font-size:8px;font-family:'DejaVu Sans';-inkscape-font-specification:DejaVuSans;writing-mode:lr-tb;fill:#000000;fill-opacity:1;fill-rule:nonzero;stroke:none"
           transform="matrix(1,0,0,-1,143.719,3.39844)"><tspan
             id="tspan282"
             y="0"
             x="0 6.0079999">Hz</tspan><tspan
             id="tspan284"
             y="-194.60201"
             x="137.895 142.967 148.039 151.159 155.88699 159.007 163.735 165.95102 171.02301 174.14302">db(v(vlp))</tspan></text>
</g><path
         id="path288"
         style="fill:none;stroke:#ff0000;stroke-width:2.5;stroke-linecap:square;stroke-linejoin:miter;stroke-miterlimit:3.79999995;stroke-dasharray:none;stroke-opacity:1"
         d="M 3261.48,2006.02 H 3502.5" /><path
         id="path290"
         style="fill:none;stroke:#ff0000;stroke-width:2.5;stroke-linecap:square;stroke-linejoin:miter;stroke-miterlimit:3.79999995;stroke-dasharray:none;stroke-opacity:1"
         d="m 378.52,1950.51 h 575.968 l 6.024,0.51 h 223.978 l 6.53,0.46 h 76.99 l 5.97,0.51 h 45 l 6.53,0.51 h 31.99 l 6.02,0.51 h 19.49 l 6.48,0.51 h 19.03 l 6.48,0.46 h 18.98 l 6.53,0.51 h 13.01 l 5.97,0.51 h 6.53 l 6.48,0.51 h 13.01 l 5.97,0.51 h 6.53 l 6.48,0.46 h 6.53 l 6.48,0.51 6.02,0.51 h 6.48 l 6.48,0.51 h 6.53 l 6.48,0.51 6.02,0.46 h 6.48 l 6.53,0.51 12.96,1.02 6.02,0.51 h 6.48 l 6.53,0.46 6.48,0.51 6.53,0.51 5.97,0.51 6.53,0.51 6.48,0.46 6.48,0.51 6.02,0.51 6.48,0.51 6.53,0.51 6.48,0.46 6.53,0.51 5.97,0.51 6.53,0.51 6.48,0.51 6.48,0.46 6.53,0.51 5.97,0.51 6.53,0.51 6.48,0.51 6.53,0.46 h 6.48 l 6.02,0.51 h 31.99 l 6.48,-0.51 6.53,-0.46 12.96,-2.04 6.02,-0.97 6.48,-1.53 6.53,-1.48 6.48,-1.99 6.53,-2.5 5.97,-2.5 6.53,-3.01 6.48,-3.01 6.48,-3.47 6.53,-4.03 5.97,-3.98 6.53,-4.49 6.48,-4.54 6.53,-5 6.48,-5 6.02,-5.46 12.96,-12.04 6.53,-5.97 5.97,-6.53 6.53,-6.48 6.48,-6.48 6.53,-7.04 6.48,-6.48 6.02,-6.99 6.48,-6.99 6.48,-7.04 6.53,-7.5 6.48,-6.99 6.02,-7.5 6.48,-6.99 6.53,-7.5 6.48,-7.5 6.48,-6.99 6.02,-7.5 6.48,-7.5 6.53,-7.5 6.48,-6.99 6.53,-7.5 5.97,-7.5 6.53,-7.5 6.48,-7.04 6.48,-7.5 6.53,-7.5 5.97,-6.99 6.53,-7.5 6.48,-7.5 6.53,-6.99 6.48,-7.5 6.02,-6.99 6.48,-7.5 6.48,-6.99 6.53,-7.5 6.48,-7.04 6.02,-6.99 6.48,-7.5 6.53,-6.99 6.48,-6.99 6.48,-7.5 6.02,-6.99 6.48,-7.04 6.53,-6.99 6.48,-7.5 6.02,-6.99 6.48,-6.99 6.53,-6.99 6.48,-7.04 6.48,-6.99 6.02,-6.99 6.48,-6.99 6.53,-6.99 6.48,-7.04 6.53,-6.99 5.97,-6.99 6.53,-6.99 6.48,-6.99 6.48,-7.04 6.53,-6.99 5.97,-6.99 6.53,-6.99 6.48,-6.99 6.53,-7.04 6.48,-6.99 6.02,-6.99 6.48,-6.48 6.48,-7.04 6.53,-6.99 6.48,-6.99 6.02,-6.99 6.48,-6.99 6.53,-6.53 12.96,-13.98 6.02,-6.99 6.48,-7.04 6.53,-6.48 6.48,-6.99 6.53,-6.99 5.97,-7.04 6.53,-6.48 12.96,-13.98 6.53,-6.53 5.97,-6.99 6.53,-6.99 6.48,-6.53 6.53,-6.99 5.97,-6.99 6.53,-6.48 6.48,-7.04 6.48,-6.99 6.53,-6.48 5.97,-6.99 6.53,-6.53 6.48,-6.99 6.53,-6.99 6.48,-6.53 6.02,-6.99 6.48,-6.48 6.48,-6.99 6.53,-6.53 6.48,-6.99 6.02,-6.48 6.48,-6.53 6.53,-6.99" /><g
         transform="scale(10)"
         id="g292"><text
           id="text296"
           style="font-variant:normal;font-weight:normal;font-size:8px;font-family:'DejaVu Sans';-inkscape-font-specification:DejaVuSans;writing-mode:lr-tb;fill:#000000;fill-opacity:1;fill-rule:nonzero;stroke:none"
           transform="matrix(1,0,0,-1,278.758,188.699)"><tspan
             id="tspan294"
             y="0"
             x="0 5.072 10.144 13.264 17.992001 21.112 25.84 30.912016 35.984016 39.104015">db(v(vbp))</tspan></text>
</g><path
         id="path298"
         style="fill:none;stroke:#00ff00;stroke-width:2.5;stroke-linecap:square;stroke-linejoin:miter;stroke-miterlimit:3.79999995;stroke-dasharray:none;stroke-opacity:1"
         d="M 3261.48,1913.01 H 3502.5" /><path
         id="path300"
         style="fill:none;stroke:#00ff00;stroke-width:2.5;stroke-linecap:square;stroke-linejoin:miter;stroke-miterlimit:3.79999995;stroke-dasharray:none;stroke-opacity:1"
         d="m 378.52,1162.5 6.48,3.52 6.48,2.96 6.02,3.52 6.48,3.52 6.532,3.47 6.476,3.52 6.532,3.47 5.968,3.52 6.532,3.01 6.48,3.47 6.48,3.52 6.532,3.52 5.968,3.47 6.532,3.52 6.476,3.01 6.532,3.47 6.48,3.52 6.02,3.47 12.96,7.04 6.532,3.47 5.968,3.01 6.532,3.52 6.476,3.47 6.532,3.52 6.48,3.47 6.02,3.52 6.48,3.01 6.48,3.47 6.532,3.52 6.476,3.52 6.024,3.47 6.476,3.52 6.532,3.47 6.48,3.01 6.48,3.52 6.02,3.47 6.48,3.52 6.532,3.52 6.476,3.47 6.532,3.01 5.968,3.52 6.532,3.47 6.48,3.52 6.48,3.47 6.532,3.52 5.968,3.52 6.532,2.96 6.476,3.52 6.532,3.52 6.48,3.47 6.02,3.52 6.48,3.47 6.48,3.01 6.532,3.52 6.476,3.47 6.024,3.52 6.476,3.52 6.532,3.47 6.48,3.52 6.48,3.01 6.02,3.47 6.48,3.52 6.532,3.47 6.476,3.52 6.024,3.52 6.476,3.47 6.532,3.01 6.48,3.52 6.48,3.47 6.02,3.52 6.48,3.47 6.532,3.52 6.476,3.01 6.532,3.47 5.968,3.52 6.532,3.52 6.48,3.47 6.48,3.52 6.532,3.47 5.968,3.01 6.532,3.52 6.476,3.47 6.532,3.52 6.48,3.52 6.02,3.47 6.48,3.52 6.48,3.01 6.532,3.47 6.476,3.52 6.024,3.47 6.476,3.52 6.532,3.52 6.48,3.47 6.48,3.01 6.02,3.52 6.48,3.47 6.53,3.52 6.48,3.47 6.53,3.52 5.97,3.52 6.53,2.96 12.96,7.04 6.53,3.47 5.97,3.52 6.53,3.47 6.48,3.52 6.53,3.52 5.97,2.96 6.53,3.52 6.48,3.52 6.48,3.47 6.53,3.52 5.97,3.47 6.53,3.52 6.48,3.52 6.53,2.96 6.48,3.52 6.02,3.52 6.48,3.47 6.48,3.52 6.53,3.47 6.48,3.52 6.02,3.52 6.48,3.47 6.53,3.01 6.48,3.52 6.48,3.47 6.02,3.52 6.48,3.47 6.53,3.52 6.48,3.52 6.53,3.47 5.97,3.52 6.53,3.47 12.96,7.04 6.53,3.47 5.97,3.52 6.53,3.01 6.48,3.47 6.53,3.52 6.48,3.47 6.02,3.52 6.48,3.52 6.48,3.47 6.53,3.52 6.48,3.47 6.02,3.52 6.48,3.52 6.53,3.47 6.48,3.52 6.02,3.47 6.48,3.52 6.48,3.98 6.53,3.52 6.48,3.52 6.02,3.47 6.48,3.52 6.53,3.47 12.96,7.04 6.02,3.47 6.48,4.03 6.53,3.47 6.48,3.52 6.53,3.47 5.97,3.52 6.53,3.98 12.96,7.04 6.53,3.47 5.97,4.03 6.53,3.47 6.48,3.52 6.53,3.98 6.48,3.52 6.02,3.47 6.48,4.03 6.48,3.47 6.53,4.03 6.48,3.47 6.02,4.03 6.48,3.47 6.53,4.03 6.48,3.98 6.48,3.52 6.02,3.98 6.48,4.03 6.53,3.47 6.48,4.03 6.53,3.98 5.97,3.98 6.53,3.52 6.48,3.98 6.48,4.03 6.02,3.98 6.48,4.03 6.53,3.98 6.48,3.98 6.53,4.03 5.97,3.47 6.53,4.03 6.48,3.98 6.48,4.03 6.53,3.98 5.97,3.98 6.53,4.03 6.48,3.47 6.53,4.03 6.48,3.47 6.02,4.03 6.48,3.47 6.48,3.52 6.53,3.52 6.48,2.96 6.02,3.01 6.48,3.01 6.53,3.01 12.96,5 6.02,2.5 6.48,1.99 6.53,1.48 6.48,1.53 6.53,1.48 5.97,0.51 6.53,1.02 h 12.96 l 6.53,-0.51 5.97,-0.51 6.53,-1.02 6.48,-1.48 6.53,-1.48 6.48,-1.53 6.02,-2.5 6.48,-1.99 6.48,-2.5 6.53,-3.01 5.97,-3.01 6.53,-2.96 6.48,-3.01 6.53,-3.52 6.48,-3.47 6.02,-3.52 6.48,-3.52 6.48,-3.47 6.53,-4.03 6.48,-3.47 6.02,-4.03 6.48,-3.98 6.53,-3.98 6.48,-4.03 6.48,-3.47 6.02,-4.03 6.48,-3.98 6.53,-4.03 6.48,-3.98 6.53,-3.98 5.97,-4.03 6.53,-3.98 6.48,-4.03 6.48,-3.47 6.53,-4.03 5.97,-3.98 6.53,-3.98 6.48,-4.03 6.53,-3.47 6.48,-4.03 6.02,-3.98 6.48,-3.52 6.48,-3.98 6.53,-3.52 6.48,-3.98 6.02,-4.03 6.48,-3.47 6.53,-4.03 6.48,-3.47 6.48,-4.03 6.02,-3.47 6.48,-3.52 6.53,-3.98 6.48,-3.52 6.02,-3.47 6.48,-4.03 6.53,-3.47 12.96,-7.04 6.02,-3.98 6.48,-3.52 6.53,-3.47 6.48,-3.52 6.53,-3.47 5.97,-4.03 6.53,-3.47 12.96,-7.04 6.53,-3.47 5.97,-3.52 6.53,-3.47 6.48,-3.52 6.53,-3.52 6.48,-3.47 6.02,-3.52 6.48,-3.47 6.48,-3.52 6.53,-3.52 6.48,-3.47 6.02,-3.52 6.48,-3.47 6.53,-3.52 6.48,-3.52 6.48,-3.47 6.02,-3.52 6.48,-3.47 6.53,-3.52 6.48,-3.52 6.53,-3.47 5.97,-3.52 6.53,-3.47 12.96,-7.04 6.53,-2.96 5.97,-3.52 6.53,-3.52 6.48,-3.47 6.53,-3.52 5.97,-3.47 6.53,-3.52 6.48,-3.01 6.48,-3.47 6.53,-3.52 5.97,-3.52 6.53,-3.47 6.48,-3.01 6.53,-3.52 6.48,-3.47 6.02,-3.52 6.48,-3.47 6.48,-3.01 6.53,-3.52 6.48,-3.47 6.02,-3.52 6.48,-3.01 6.53,-3.47" /><g
         transform="scale(10)"
         id="g302"><text
           id="text306"
           style="font-variant:normal;font-weight:normal;font-size:8px;font-family:'DejaVu Sans';-inkscape-font-specification:DejaVuSans;writing-mode:lr-tb;fill:#000000;fill-opacity:1;fill-rule:nonzero;stroke:none"
           transform="matrix(1,0,0,-1,278.766,179.398)"><tspan
             id="tspan304"
             y="0"
             x="0 5.072 10.144 13.264 17.992001 21.112 25.84 30.904016 35.976017 39.096016">db(v(vhp))</tspan></text>
</g><path
         id="path308"
         style="fill:none;stroke:#0000ff;stroke-width:2.5;stroke-linecap:square;stroke-linejoin:miter;stroke-miterlimit:3.79999995;stroke-dasharray:none;stroke-opacity:1"
         d="M 3261.48,1820 H 3502.5" /><path
         id="path310"
         style="fill:none;stroke:#0000ff;stroke-width:2.5;stroke-linecap:square;stroke-linejoin:miter;stroke-miterlimit:3.79999995;stroke-dasharray:none;stroke-opacity:1"
         d="m 378.52,372.5 12.96,13.98 6.02,7.04 6.48,6.48 6.532,6.988 6.476,6.992 6.532,7.04 5.968,6.992 6.532,6.476 6.48,6.992 6.48,7.04 6.532,6.992 5.968,6.476 6.532,6.992 6.476,7.04 6.532,6.992 6.48,6.988 6.02,6.48 6.48,7.04 6.48,6.992 6.532,6.988 5.968,6.48 6.532,7.04 6.476,6.992 6.532,6.988 6.48,6.48 6.02,7.04 12.96,13.98 6.532,6.48 6.476,7.04 6.024,6.992 6.476,6.476 6.532,6.992 6.48,7.04 6.48,6.992 6.02,6.476 6.48,6.992 6.532,7.04 6.476,6.48 6.532,6.988 5.968,6.992 6.532,7.04 6.48,6.48 6.48,6.988 6.532,6.992 5.968,6.532 6.532,6.988 6.476,6.988 6.532,6.992 6.48,6.532 6.02,6.988 6.48,6.988 6.48,6.532 6.532,6.992 6.476,6.988 6.024,6.988 6.476,6.532 6.532,6.992 6.48,6.988 6.48,6.48 6.02,7.04 6.48,6.992 6.532,6.476 6.476,6.992 6.024,7.04 6.476,6.992 6.532,6.476 6.48,6.992 6.48,7.04 6.02,6.48 6.48,6.988 6.532,6.992 6.476,6.532 6.532,6.988 5.968,6.988 6.532,6.992 6.48,6.532 6.48,6.988 6.532,6.988 5.968,6.532 6.532,6.992 6.476,6.988 6.532,6.988 6.48,6.532 6.02,6.992 6.48,6.988 6.48,6.48 6.532,7.04 6.476,6.992 6.024,6.476 6.476,6.992 6.532,7.04 6.48,6.99 6.48,6.48 6.02,6.99 6.48,7.04 6.53,6.48 6.48,6.99 6.53,6.99 5.97,7.04 6.53,6.48 12.96,13.98 6.53,6.53 5.97,6.99 6.53,6.99 6.48,6.99 6.53,6.53 5.97,6.99 6.53,6.99 6.48,6.53 6.48,6.99 6.53,6.99 5.97,6.99 6.53,6.53 6.48,6.99 6.53,6.99 6.48,6.48 6.02,7.04 12.96,13.98 6.53,6.48 6.48,7.04 6.02,6.99 6.48,6.99 6.53,6.48 6.48,7.04 6.48,6.99 6.02,6.99 6.48,6.48 6.53,7.04 6.48,6.99 6.53,6.99 5.97,6.99 6.53,6.53 12.96,13.98 6.53,6.99 5.97,6.53 6.53,6.99 6.48,6.99 6.53,6.99 6.48,6.99 6.02,7.04 6.48,6.48 6.48,6.99 6.53,6.99 6.48,7.04 6.02,6.99 6.48,6.99 6.53,6.48 6.48,7.04 6.02,6.99 12.96,13.98 6.53,6.99 6.48,7.04 6.02,6.99 6.48,6.99 6.53,6.99 6.48,6.99 6.48,7.04 6.02,6.99 6.48,6.99 6.53,6.99 6.48,6.99 6.53,7.04 5.97,6.99 6.53,6.99 12.96,13.98 6.53,7.04 5.97,6.99 6.53,7.5 6.48,6.99 6.53,6.99 6.48,6.99 6.02,7.04 6.48,7.5 6.48,6.99 6.53,6.99 6.48,7.5 6.02,6.99 6.48,6.99 6.53,7.5 6.48,7.04 6.48,7.5 6.02,6.99 6.48,7.5 6.53,6.99 6.48,7.5 6.53,7.5 5.97,6.99 6.53,7.5 6.48,7.5 6.48,6.99 6.02,7.5 6.48,7.5 6.53,7.04 6.48,7.5 6.53,7.5 5.97,7.5 6.53,6.99 12.96,15 6.53,7.5 5.97,6.99 6.53,7.5 6.48,6.99 6.53,7.5 6.48,6.99 6.02,7.04 12.96,13.98 6.53,6.99 6.48,6.53 6.02,6.48 13.01,13.01 6.48,5.97 6.48,6.02 6.02,5.51 6.48,5.51 6.53,5 6.48,5 6.53,4.49 5.97,4.49 6.53,3.98 12.96,7.04 6.53,2.96 5.97,2.5 6.53,2.5 6.48,2.5 6.53,1.53 6.48,1.99 6.02,1.02 6.48,0.97 6.48,1.02 6.53,0.97 5.97,0.51 h 6.53 l 6.48,0.51 h 19.03 l 6.48,-0.51 h 6.48 l 6.53,-0.51 6.48,-0.46 h 6.02 l 6.48,-0.51 6.53,-0.51 12.96,-1.02 6.02,-0.46 6.48,-0.51 6.53,-1.02 6.48,-0.51 6.53,-0.46 5.97,-0.51 6.53,-0.51 12.96,-1.02 6.53,-0.46 5.97,-0.51 6.53,-0.51 6.48,-0.51 h 6.53 l 6.48,-0.51 6.02,-0.46 12.96,-1.02 h 6.53 l 6.48,-0.51 6.02,-0.51 6.48,-0.46 h 6.53 l 6.48,-0.51 h 6.48 l 6.02,-0.51 6.48,-0.51 h 6.53 l 6.48,-0.51 h 6.02 l 6.48,-0.46 h 13.01 l 6.48,-0.51 h 6.02 l 6.48,-0.51 h 13.01 l 6.53,-0.51 h 12.5 l 6.48,-0.51 h 18.98 l 6.53,-0.46 H 2330 l 6.02,-0.51 h 25.97 l 6.02,-0.51 h 38.47 l 6.53,-0.51 h 63.98 l 6.53,-0.51 h 115" /><path
         id="path312"
         style="fill:none;stroke:#000000;stroke-width:2.5;stroke-linecap:square;stroke-linejoin:miter;stroke-miterlimit:3.79999995;stroke-dasharray:none;stroke-opacity:1"
         d="m 378.52,292.5 h 2220 v 1760 h -2220 z" /></g></g></svg>