<?xml version="1.0" encoding="UTF-8" standalone="no"?>
<svg
   xmlns:dc="http://purl.org/dc/elements/1.1/"
   xmlns:cc="http://creativecommons.org/ns#"
   xmlns:rdf="http://www.w3.org/1999/02/22-rdf-syntax-ns#"
   xmlns:svg="http://www.w3.org/2000/svg"
   xmlns="http://www.w3.org/2000/svg"
   viewBox="0 0 480 288"
   height="288"
   width="480"
   xml:space="preserve"
   id="svg2"
   version="1.1"><metadata
     id="metadata8"><rdf:RDF><cc:Work
         rdf:about=""><dc:format>image/svg+xml</dc:format><dc:type
           rdf:resource="http://purl.org/dc/dcmitype/StillImage" /></cc:Work></rdf:RDF></metadata><defs
     id="defs6" /><g
     transform="matrix(1.3333333,0,0,-1.3333333,0,288)"
     id="g10"><g
       transform="scale(0.1)"
       id="g12"><path
         id="path14"
         style="fill:none;stroke:#000000;stroke-width:1.5;stroke-linecap:square;stroke-linejoin:miter;stroke-miterlimit:3.79999995;stroke-dasharray:2, 20;stroke-dashoffset:0;stroke-opacity:1"
         d="M 429.488,353.98 H 2802.5" /><path
         id="path16"
         style="fill:none;stroke:#000000;stroke-width:2.5;stroke-linecap:square;stroke-linejoin:miter;stroke-miterlimit:3.79999995;stroke-dasharray:none;stroke-opacity:1"
         d="M 429.488,353.98 H 466.48" /><path
         id="path18"
         style="fill:none;stroke:#000000;stroke-width:2.5;stroke-linecap:square;stroke-linejoin:miter;stroke-miterlimit:3.79999995;stroke-dasharray:none;stroke-opacity:1"
         d="m 2802.5,353.98 h -36.99" /><g
         transform="scale(10)"
         id="g20"><text
           id="text24"
           style="font-variant:normal;font-weight:normal;font-size:8px;font-family:'DejaVu Sans';-inkscape-font-specification:DejaVuSans;writing-mode:lr-tb;fill:#000000;fill-opacity:1;fill-rule:nonzero;stroke:none"
           transform="matrix(1,0,0,-1,22.2148,32.8008)"><tspan
             id="tspan22"
             y="0"
             x="0 2.8800001 7.9679999 10.504">-0.3</tspan></text>
</g><path
         id="path26"
         style="fill:none;stroke:#000000;stroke-width:1.5;stroke-linecap:square;stroke-linejoin:miter;stroke-miterlimit:3.79999995;stroke-dasharray:2, 20;stroke-dashoffset:0;stroke-opacity:1"
         d="M 429.488,626.48 H 2802.5" /><path
         id="path28"
         style="fill:none;stroke:#000000;stroke-width:2.5;stroke-linecap:square;stroke-linejoin:miter;stroke-miterlimit:3.79999995;stroke-dasharray:none;stroke-opacity:1"
         d="M 429.488,626.48 H 466.48" /><path
         id="path30"
         style="fill:none;stroke:#000000;stroke-width:2.5;stroke-linecap:square;stroke-linejoin:miter;stroke-miterlimit:3.79999995;stroke-dasharray:none;stroke-opacity:1"
         d="m 2802.5,626.48 h -36.99" /><g
         transform="scale(10)"
         id="g32"><text
           id="text36"
           style="font-variant:normal;font-weight:normal;font-size:8px;font-family:'DejaVu Sans';-inkscape-font-specification:DejaVuSans;writing-mode:lr-tb;fill:#000000;fill-opacity:1;fill-rule:nonzero;stroke:none"
           transform="matrix(1,0,0,-1,22.2148,60.0508)"><tspan
             id="tspan34"
             y="0"
             x="0 2.8800001 7.9679999 10.504">-0.2</tspan></text>
</g><path
         id="path38"
         style="fill:none;stroke:#000000;stroke-width:1.5;stroke-linecap:square;stroke-linejoin:miter;stroke-miterlimit:3.79999995;stroke-dasharray:2, 20;stroke-dashoffset:0;stroke-opacity:1"
         d="M 429.488,898.52 H 2802.5" /><path
         id="path40"
         style="fill:none;stroke:#000000;stroke-width:2.5;stroke-linecap:square;stroke-linejoin:miter;stroke-miterlimit:3.79999995;stroke-dasharray:none;stroke-opacity:1"
         d="M 429.488,898.52 H 466.48" /><path
         id="path42"
         style="fill:none;stroke:#000000;stroke-width:2.5;stroke-linecap:square;stroke-linejoin:miter;stroke-miterlimit:3.79999995;stroke-dasharray:none;stroke-opacity:1"
         d="m 2802.5,898.52 h -36.99" /><g
         transform="scale(10)"
         id="g44"><text
           id="text48"
           style="font-variant:normal;font-weight:normal;font-size:8px;font-family:'DejaVu Sans';-inkscape-font-specification:DejaVuSans;writing-mode:lr-tb;fill:#000000;fill-opacity:1;fill-rule:nonzero;stroke:none"
           transform="matrix(1,0,0,-1,22.2148,87.25)"><tspan
             id="tspan46"
             y="0"
             x="0 2.8800001 7.9679999 10.504">-0.1</tspan></text>
</g><path
         id="path50"
         style="fill:none;stroke:#000000;stroke-width:1.5;stroke-linecap:square;stroke-linejoin:miter;stroke-miterlimit:3.79999995;stroke-dasharray:2, 20;stroke-dashoffset:0;stroke-opacity:1"
         d="M 429.488,1171.02 H 2802.5" /><path
         id="path52"
         style="fill:none;stroke:#000000;stroke-width:2.5;stroke-linecap:square;stroke-linejoin:miter;stroke-miterlimit:3.79999995;stroke-dasharray:none;stroke-opacity:1"
         d="M 429.488,1171.02 H 466.48" /><path
         id="path54"
         style="fill:none;stroke:#000000;stroke-width:2.5;stroke-linecap:square;stroke-linejoin:miter;stroke-miterlimit:3.79999995;stroke-dasharray:none;stroke-opacity:1"
         d="m 2802.5,1171.02 h -36.99" /><g
         transform="scale(10)"
         id="g56"><text
           id="text60"
           style="font-variant:normal;font-weight:normal;font-size:8px;font-family:'DejaVu Sans';-inkscape-font-specification:DejaVuSans;writing-mode:lr-tb;fill:#000000;fill-opacity:1;fill-rule:nonzero;stroke:none"
           transform="matrix(1,0,0,-1,32.7344,114.5)"><tspan
             id="tspan58"
             y="0"
             x="0">0</tspan></text>
</g><path
         id="path62"
         style="fill:none;stroke:#000000;stroke-width:1.5;stroke-linecap:square;stroke-linejoin:miter;stroke-miterlimit:3.79999995;stroke-dasharray:2, 20;stroke-dashoffset:0;stroke-opacity:1"
         d="M 429.488,1443.52 H 2802.5" /><path
         id="path64"
         style="fill:none;stroke:#000000;stroke-width:2.5;stroke-linecap:square;stroke-linejoin:miter;stroke-miterlimit:3.79999995;stroke-dasharray:none;stroke-opacity:1"
         d="M 429.488,1443.52 H 466.48" /><path
         id="path66"
         style="fill:none;stroke:#000000;stroke-width:2.5;stroke-linecap:square;stroke-linejoin:miter;stroke-miterlimit:3.79999995;stroke-dasharray:none;stroke-opacity:1"
         d="m 2802.5,1443.52 h -36.99" /><g
         transform="scale(10)"
         id="g68"><text
           id="text72"
           style="font-variant:normal;font-weight:normal;font-size:8px;font-family:'DejaVu Sans';-inkscape-font-specification:DejaVuSans;writing-mode:lr-tb;fill:#000000;fill-opacity:1;fill-rule:nonzero;stroke:none"
           transform="matrix(1,0,0,-1,25.1016,141.75)"><tspan
             id="tspan70"
             y="0"
             x="0 5.0879998 7.6240001">0.1</tspan></text>
</g><path
         id="path74"
         style="fill:none;stroke:#000000;stroke-width:1.5;stroke-linecap:square;stroke-linejoin:miter;stroke-miterlimit:3.79999995;stroke-dasharray:2, 20;stroke-dashoffset:0;stroke-opacity:1"
         d="M 429.488,1715.51 H 2802.5" /><path
         id="path76"
         style="fill:none;stroke:#000000;stroke-width:2.5;stroke-linecap:square;stroke-linejoin:miter;stroke-miterlimit:3.79999995;stroke-dasharray:none;stroke-opacity:1"
         d="M 429.488,1715.51 H 466.48" /><path
         id="path78"
         style="fill:none;stroke:#000000;stroke-width:2.5;stroke-linecap:square;stroke-linejoin:miter;stroke-miterlimit:3.79999995;stroke-dasharray:none;stroke-opacity:1"
         d="m 2802.5,1715.51 h -36.99" /><g
         transform="scale(10)"
         id="g80"><text
           id="text84"
           style="font-variant:normal;font-weight:normal;font-size:8px;font-family:'DejaVu Sans';-inkscape-font-specification:DejaVuSans;writing-mode:lr-tb;fill:#000000;fill-opacity:1;fill-rule:nonzero;stroke:none"
           transform="matrix(1,0,0,-1,25.1016,168.949)"><tspan
             id="tspan82"
             y="0"
             x="0 5.0879998 7.6240001">0.2</tspan></text>
</g><path
         id="path86"
         style="fill:none;stroke:#000000;stroke-width:1.5;stroke-linecap:square;stroke-linejoin:miter;stroke-miterlimit:3.79999995;stroke-dasharray:2, 20;stroke-dashoffset:0;stroke-opacity:1"
         d="M 429.488,1988.01 H 2802.5" /><path
         id="path88"
         style="fill:none;stroke:#000000;stroke-width:2.5;stroke-linecap:square;stroke-linejoin:miter;stroke-miterlimit:3.79999995;stroke-dasharray:none;stroke-opacity:1"
         d="M 429.488,1988.01 H 466.48" /><path
         id="path90"
         style="fill:none;stroke:#000000;stroke-width:2.5;stroke-linecap:square;stroke-linejoin:miter;stroke-miterlimit:3.79999995;stroke-dasharray:none;stroke-opacity:1"
         d="m 2802.5,1988.01 h -36.99" /><g
         transform="scale(10)"
         id="g92"><text
           id="text96"
           style="font-variant:normal;font-weight:normal;font-size:8px;font-family:'DejaVu Sans';-inkscape-font-specification:DejaVuSans;writing-mode:lr-tb;fill:#000000;fill-opacity:1;fill-rule:nonzero;stroke:none"
           transform="matrix(1,0,0,-1,25.1016,196.199)"><tspan
             id="tspan94"
             y="0"
             x="0 5.0879998 7.6240001">0.3</tspan></text>
</g><path
         id="path98"
         style="fill:none;stroke:#000000;stroke-width:1.5;stroke-linecap:square;stroke-linejoin:miter;stroke-miterlimit:3.79999995;stroke-dasharray:2, 20;stroke-dashoffset:0;stroke-opacity:1"
         d="m 426.988,292.5 v 1760" /><path
         id="path100"
         style="fill:none;stroke:#000000;stroke-width:1.5;stroke-linecap:square;stroke-linejoin:miter;stroke-miterlimit:3.79999995;stroke-dasharray:2, 20;stroke-dashoffset:0;stroke-opacity:1"
         d="m 664.488,292.5 v 1760" /><path
         id="path102"
         style="fill:none;stroke:#000000;stroke-width:2.5;stroke-linecap:square;stroke-linejoin:miter;stroke-miterlimit:3.79999995;stroke-dasharray:none;stroke-opacity:1"
         d="m 664.488,292.5 v 36.988" /><path
         id="path104"
         style="fill:none;stroke:#000000;stroke-width:2.5;stroke-linecap:square;stroke-linejoin:miter;stroke-miterlimit:3.79999995;stroke-dasharray:none;stroke-opacity:1"
         d="m 664.488,2052.5 v -36.99" /><g
         transform="scale(10)"
         id="g106"><text
           id="text110"
           style="font-variant:normal;font-weight:normal;font-size:8px;font-family:'DejaVu Sans';-inkscape-font-specification:DejaVuSans;writing-mode:lr-tb;fill:#000000;fill-opacity:1;fill-rule:nonzero;stroke:none"
           transform="matrix(1,0,0,-1,52.4297,17.3477)"><tspan
             id="tspan108"
             y="0"
             x="0 5.0879998 7.6240001 12.712 17.799999 22.888">1.0002</tspan></text>
</g><path
         id="path112"
         style="fill:none;stroke:#000000;stroke-width:1.5;stroke-linecap:square;stroke-linejoin:miter;stroke-miterlimit:3.79999995;stroke-dasharray:2, 20;stroke-dashoffset:0;stroke-opacity:1"
         d="m 901.988,292.5 v 1760" /><path
         id="path114"
         style="fill:none;stroke:#000000;stroke-width:2.5;stroke-linecap:square;stroke-linejoin:miter;stroke-miterlimit:3.79999995;stroke-dasharray:none;stroke-opacity:1"
         d="m 901.988,292.5 v 36.988" /><path
         id="path116"
         style="fill:none;stroke:#000000;stroke-width:2.5;stroke-linecap:square;stroke-linejoin:miter;stroke-miterlimit:3.79999995;stroke-dasharray:none;stroke-opacity:1"
         d="m 901.988,2052.5 v -36.99" /><g
         transform="scale(10)"
         id="g118"><text
           id="text122"
           style="font-variant:normal;font-weight:normal;font-size:8px;font-family:'DejaVu Sans';-inkscape-font-specification:DejaVuSans;writing-mode:lr-tb;fill:#000000;fill-opacity:1;fill-rule:nonzero;stroke:none"
           transform="matrix(1,0,0,-1,76.1797,17.3477)"><tspan
             id="tspan120"
             y="0"
             x="0 5.0879998 7.6240001 12.712 17.799999 22.888">1.0004</tspan></text>
</g><path
         id="path124"
         style="fill:none;stroke:#000000;stroke-width:1.5;stroke-linecap:square;stroke-linejoin:miter;stroke-miterlimit:3.79999995;stroke-dasharray:2, 20;stroke-dashoffset:0;stroke-opacity:1"
         d="m 1139.49,292.5 v 1760" /><path
         id="path126"
         style="fill:none;stroke:#000000;stroke-width:2.5;stroke-linecap:square;stroke-linejoin:miter;stroke-miterlimit:3.79999995;stroke-dasharray:none;stroke-opacity:1"
         d="m 1139.49,292.5 v 36.988" /><path
         id="path128"
         style="fill:none;stroke:#000000;stroke-width:2.5;stroke-linecap:square;stroke-linejoin:miter;stroke-miterlimit:3.79999995;stroke-dasharray:none;stroke-opacity:1"
         d="m 1139.49,2052.5 v -36.99" /><g
         transform="scale(10)"
         id="g130"><text
           id="text134"
           style="font-variant:normal;font-weight:normal;font-size:8px;font-family:'DejaVu Sans';-inkscape-font-specification:DejaVuSans;writing-mode:lr-tb;fill:#000000;fill-opacity:1;fill-rule:nonzero;stroke:none"
           transform="matrix(1,0,0,-1,99.9297,17.3477)"><tspan
             id="tspan132"
             y="0"
             x="0 5.0879998 7.6240001 12.712 17.799999 22.888">1.0006</tspan></text>
</g><path
         id="path136"
         style="fill:none;stroke:#000000;stroke-width:1.5;stroke-linecap:square;stroke-linejoin:miter;stroke-miterlimit:3.79999995;stroke-dasharray:2, 20;stroke-dashoffset:0;stroke-opacity:1"
         d="m 1377.5,292.5 v 1760" /><path
         id="path138"
         style="fill:none;stroke:#000000;stroke-width:2.5;stroke-linecap:square;stroke-linejoin:miter;stroke-miterlimit:3.79999995;stroke-dasharray:none;stroke-opacity:1"
         d="m 1377.5,292.5 v 36.988" /><path
         id="path140"
         style="fill:none;stroke:#000000;stroke-width:2.5;stroke-linecap:square;stroke-linejoin:miter;stroke-miterlimit:3.79999995;stroke-dasharray:none;stroke-opacity:1"
         d="m 1377.5,2052.5 v -36.99" /><g
         transform="scale(10)"
         id="g142"><text
           id="text146"
           style="font-variant:normal;font-weight:normal;font-size:8px;font-family:'DejaVu Sans';-inkscape-font-specification:DejaVuSans;writing-mode:lr-tb;fill:#000000;fill-opacity:1;fill-rule:nonzero;stroke:none"
           transform="matrix(1,0,0,-1,123.73,17.3477)"><tspan
             id="tspan144"
             y="0"
             x="0 5.0879998 7.6240001 12.712 17.799999 22.888">1.0008</tspan></text>
</g><path
         id="path148"
         style="fill:none;stroke:#000000;stroke-width:1.5;stroke-linecap:square;stroke-linejoin:miter;stroke-miterlimit:3.79999995;stroke-dasharray:2, 20;stroke-dashoffset:0;stroke-opacity:1"
         d="m 1615,292.5 v 1760" /><path
         id="path150"
         style="fill:none;stroke:#000000;stroke-width:2.5;stroke-linecap:square;stroke-linejoin:miter;stroke-miterlimit:3.79999995;stroke-dasharray:none;stroke-opacity:1"
         d="m 1615,292.5 v 36.988" /><path
         id="path152"
         style="fill:none;stroke:#000000;stroke-width:2.5;stroke-linecap:square;stroke-linejoin:miter;stroke-miterlimit:3.79999995;stroke-dasharray:none;stroke-opacity:1"
         d="m 1615,2052.5 v -36.99" /><g
         transform="scale(10)"
         id="g154"><text
           id="text158"
           style="font-variant:normal;font-weight:normal;font-size:8px;font-family:'DejaVu Sans';-inkscape-font-specification:DejaVuSans;writing-mode:lr-tb;fill:#000000;fill-opacity:1;fill-rule:nonzero;stroke:none"
           transform="matrix(1,0,0,-1,150.023,17.3477)"><tspan
             id="tspan156"
             y="0"
             x="0 5.0879998 7.6240001 12.712 17.799999">1.001</tspan></text>
</g><path
         id="path160"
         style="fill:none;stroke:#000000;stroke-width:1.5;stroke-linecap:square;stroke-linejoin:miter;stroke-miterlimit:3.79999995;stroke-dasharray:2, 20;stroke-dashoffset:0;stroke-opacity:1"
         d="m 1852.5,292.5 v 1760" /><path
         id="path162"
         style="fill:none;stroke:#000000;stroke-width:2.5;stroke-linecap:square;stroke-linejoin:miter;stroke-miterlimit:3.79999995;stroke-dasharray:none;stroke-opacity:1"
         d="m 1852.5,292.5 v 36.988" /><path
         id="path164"
         style="fill:none;stroke:#000000;stroke-width:2.5;stroke-linecap:square;stroke-linejoin:miter;stroke-miterlimit:3.79999995;stroke-dasharray:none;stroke-opacity:1"
         d="m 1852.5,2052.5 v -36.99" /><g
         transform="scale(10)"
         id="g166"><text
           id="text170"
           style="font-variant:normal;font-weight:normal;font-size:8px;font-family:'DejaVu Sans';-inkscape-font-specification:DejaVuSans;writing-mode:lr-tb;fill:#000000;fill-opacity:1;fill-rule:nonzero;stroke:none"
           transform="matrix(1,0,0,-1,171.23,17.3477)"><tspan
             id="tspan168"
             y="0"
             x="0 5.0879998 7.6240001 12.712 17.799999 22.888">1.0012</tspan></text>
</g><path
         id="path172"
         style="fill:none;stroke:#000000;stroke-width:1.5;stroke-linecap:square;stroke-linejoin:miter;stroke-miterlimit:3.79999995;stroke-dasharray:2, 20;stroke-dashoffset:0;stroke-opacity:1"
         d="m 2090,292.5 v 1760" /><path
         id="path174"
         style="fill:none;stroke:#000000;stroke-width:2.5;stroke-linecap:square;stroke-linejoin:miter;stroke-miterlimit:3.79999995;stroke-dasharray:none;stroke-opacity:1"
         d="m 2090,292.5 v 36.988" /><path
         id="path176"
         style="fill:none;stroke:#000000;stroke-width:2.5;stroke-linecap:square;stroke-linejoin:miter;stroke-miterlimit:3.79999995;stroke-dasharray:none;stroke-opacity:1"
         d="m 2090,2052.5 v -36.99" /><g
         transform="scale(10)"
         id="g178"><text
           id="text182"
           style="font-variant:normal;font-weight:normal;font-size:8px;font-family:'DejaVu Sans';-inkscape-font-specification:DejaVuSans;writing-mode:lr-tb;fill:#000000;fill-opacity:1;fill-rule:nonzero;stroke:none"
           transform="matrix(1,0,0,-1,194.98,17.3477)"><tspan
             id="tspan180"
             y="0"
             x="0 5.0879998 7.6240001 12.712 17.799999 22.888">1.0014</tspan></text>
</g><path
         id="path184"
         style="fill:none;stroke:#000000;stroke-width:1.5;stroke-linecap:square;stroke-linejoin:miter;stroke-miterlimit:3.79999995;stroke-dasharray:2, 20;stroke-dashoffset:0;stroke-opacity:1"
         d="m 2327.5,292.5 v 1760" /><path
         id="path186"
         style="fill:none;stroke:#000000;stroke-width:2.5;stroke-linecap:square;stroke-linejoin:miter;stroke-miterlimit:3.79999995;stroke-dasharray:none;stroke-opacity:1"
         d="m 2327.5,292.5 v 36.988" /><path
         id="path188"
         style="fill:none;stroke:#000000;stroke-width:2.5;stroke-linecap:square;stroke-linejoin:miter;stroke-miterlimit:3.79999995;stroke-dasharray:none;stroke-opacity:1"
         d="m 2327.5,2052.5 v -36.99" /><g
         transform="scale(10)"
         id="g190"><text
           id="text194"
           style="font-variant:normal;font-weight:normal;font-size:8px;font-family:'DejaVu Sans';-inkscape-font-specification:DejaVuSans;writing-mode:lr-tb;fill:#000000;fill-opacity:1;fill-rule:nonzero;stroke:none"
           transform="matrix(1,0,0,-1,218.73,17.3477)"><tspan
             id="tspan192"
             y="0"
             x="0 5.0879998 7.6240168 12.712017 17.800016 22.888016">1.0016</tspan></text>
</g><path
         id="path196"
         style="fill:none;stroke:#000000;stroke-width:1.5;stroke-linecap:square;stroke-linejoin:miter;stroke-miterlimit:3.79999995;stroke-dasharray:2, 20;stroke-dashoffset:0;stroke-opacity:1"
         d="m 2565,292.5 v 1760" /><path
         id="path198"
         style="fill:none;stroke:#000000;stroke-width:2.5;stroke-linecap:square;stroke-linejoin:miter;stroke-miterlimit:3.79999995;stroke-dasharray:none;stroke-opacity:1"
         d="m 2565,292.5 v 36.988" /><path
         id="path200"
         style="fill:none;stroke:#000000;stroke-width:2.5;stroke-linecap:square;stroke-linejoin:miter;stroke-miterlimit:3.79999995;stroke-dasharray:none;stroke-opacity:1"
         d="m 2565,2052.5 v -36.99" /><g
         transform="scale(10)"
         id="g202"><text
           id="text206"
           style="font-variant:normal;font-weight:normal;font-size:8px;font-family:'DejaVu Sans';-inkscape-font-specification:DejaVuSans;writing-mode:lr-tb;fill:#000000;fill-opacity:1;fill-rule:nonzero;stroke:none"
           transform="matrix(1,0,0,-1,242.48,17.3477)"><tspan
             id="tspan204"
             y="0"
             x="0 5.0879998 7.6240168 12.712017 17.800016 22.888016">1.0018</tspan></text>
</g><path
         id="path208"
         style="fill:none;stroke:#000000;stroke-width:1.5;stroke-linecap:square;stroke-linejoin:miter;stroke-miterlimit:3.79999995;stroke-dasharray:2, 20;stroke-dashoffset:0;stroke-opacity:1"
         d="m 2802.5,292.5 v 1760" /><path
         id="path210"
         style="fill:none;stroke:#000000;stroke-width:2.5;stroke-linecap:square;stroke-linejoin:miter;stroke-miterlimit:3.79999995;stroke-dasharray:none;stroke-opacity:1"
         d="m 2802.5,292.5 v 36.988" /><path
         id="path212"
         style="fill:none;stroke:#000000;stroke-width:2.5;stroke-linecap:square;stroke-linejoin:miter;stroke-miterlimit:3.79999995;stroke-dasharray:none;stroke-opacity:1"
         d="m 2802.5,2052.5 v -36.99" /><g
         transform="scale(10)"
         id="g214"><text
           id="text218"
           style="font-variant:normal;font-weight:normal;font-size:8px;font-family:'DejaVu Sans';-inkscape-font-specification:DejaVuSans;writing-mode:lr-tb;fill:#000000;fill-opacity:1;fill-rule:nonzero;stroke:none"
           transform="matrix(1,0,0,-1,268.773,17.3477)"><tspan
             id="tspan216"
             y="0"
             x="0 5.0879998 7.6240168 12.712017 17.800016">1.002</tspan></text>
</g><path
         id="path220"
         style="fill:none;stroke:#000000;stroke-width:2.5;stroke-linecap:square;stroke-linejoin:miter;stroke-miterlimit:3.79999995;stroke-dasharray:none;stroke-opacity:1"
         d="m 429.488,292.5 h 2373.01 v 1760 H 429.488 Z" /><g
         transform="scale(10)"
         id="g222"><text
           id="text226"
           style="font-variant:normal;font-weight:normal;font-size:8px;font-family:'DejaVu Sans';-inkscape-font-specification:DejaVuSans;writing-mode:lr-tb;fill:#000000;fill-opacity:1;fill-rule:nonzero;stroke:none"
           transform="matrix(0,1,1,0,10.3008,95.207)"><tspan
             id="tspan224"
             y="0"
             x="0 3.5199201 8.4399204 13.50392 17.663919 19.879919 24.76792 29.831921 32.36792 35.487919 40.959919">Tensión [V]</tspan></text>
<text
           id="text232"
           style="font-variant:normal;font-weight:normal;font-size:8px;font-family:'DejaVu Sans';-inkscape-font-specification:DejaVuSans;writing-mode:lr-tb;fill:#000000;fill-opacity:1;fill-rule:nonzero;stroke:none"
           transform="matrix(1,0,0,-1,140.324,3.39844)"><tspan
             id="tspan228"
             y="0"
             x="0 4.6320262 6.8480263 11.768026 19.560026 24.632027 29.520027 32.056026 35.176025 39.336025">Tiempo [s]</tspan><tspan
             id="tspan230"
             y="-194.60201"
             x="157.69501 162.423 165.543 170.271 172.487 177.55101">v(vin)</tspan></text>
</g><path
         id="path234"
         style="fill:none;stroke:#ff0000;stroke-width:2.5;stroke-linecap:square;stroke-linejoin:miter;stroke-miterlimit:3.79999995;stroke-dasharray:none;stroke-opacity:1"
         d="M 3261.48,2006.02 H 3502.5" /><path
         id="path236"
         style="fill:none;stroke:#ff0000;stroke-width:2.5;stroke-linecap:square;stroke-linejoin:miter;stroke-miterlimit:3.79999995;stroke-dasharray:none;stroke-opacity:1"
         d="m 429.488,1226.48 3.524,73.52 3.468,90.51 5,71.99 6.02,43.52 6.988,-20 4.492,-58.52 4.032,-72.5 4.488,-83.01 5,-77.5 3.52,-53.47 3.468,-38.52 2.5,-22.5 3.524,-6.02 4.488,22.5 6.02,70 3.468,83.52 5,103.01 4.492,120 3.52,79.49 3.52,56.99 3.98,46.02 1.988,28.47 2.5,18.01 3.524,6.02 5,-31.99 5.968,-75 4.54,-95.51 3.468,-75.51 5,-76.02 3.524,-60.46 4.488,-60.51 5,-24.03 8.012,44.54 5,88.47 3.468,73.01 3.52,68.52 3.52,69.49 3.468,64.49 4.032,70 3.468,38.01 3.524,21.99 2.5,5.51 5.508,-29.03 5,-68.47 4.492,-83.52 3.976,-95.97 4.492,-105.51 6.02,-109.49 6.02,-78.52 6.992,-15.51 8.468,89.49 4.54,78.52 3.468,68.52 3.524,73.47 3.976,57.5 3.524,46.99 1.988,28.01 3.98,15.51 2.04,3.01 3.468,-13.01 6.024,-70.51 3.468,-73.98 4.032,-73.52 3.468,-78.98 3.52,-92.5 4.488,-98.52 5,-90.51 4.492,-45.46 5,-8.52 4.54,27.5 5,60 4.492,66.99 3.468,74.49 5,89.03 3.52,60 3.52,38.47 3.468,25 2.5,5 3.524,-8.47 5.968,-58.52 5,-86.99 4.54,-113.52 5,-102.96 3.468,-77.04 1.992,-61.48 4.032,-47.5 1.988,-36.02 2.5,-24.492 3.52,-10.968 6.992,30.46 5.968,84.54 6.02,110.97 3.52,75 3.98,66.99 3.52,57.5 3.468,49.03 4.492,25 7.5,-33.01 4.54,-72.5 5,-71.99 1.992,-70 3.468,-71.99 5,-82.04 4.54,-78.98 5,-51.48 3.468,-14.54 6.024,31.532 5.968,78.976 3.52,85.512 4.488,96.99 5,89.49 4.492,106.53 6.02,76.48 7.5,23.01 6.988,-66.99 6.024,-89.49 3.468,-79.54 4.54,-71.99 2.5,-53.01 3.468,-45.968 3.524,-33.012 2.5,-16.988 3.468,-1.024 3.52,20.512 5,54.488 4.488,81.532 5,115 4.492,128.98 6.02,128.98 6.02,96.02 5,32.5 4.49,-5.51 5,-39.49 4.49,-68.01 5,-68.47 3.52,-66.02 3.47,-62.5 3.52,-53.52 2.5,-35.97 3.47,-20.51 3.52,-5 2.5,10.51 4.49,51.99 6.02,86.48 3.47,78.01 2.5,76.99 3.52,79.03 5,100 4.49,91.99 5,68.98 6.99,14.03 6.02,-49.03 4.49,-63.98 3.52,-66.99 3.47,-71.53 4.03,-66.99 3.47,-58.01 3.52,-45.46 3.52,-31.53 5.97,-0.51 6.99,68.52 3.52,77.5 3.52,75 3.47,80.51 4.03,73.01 3.47,67.5 3.52,62.5 4.49,56.48 5,21.99 6.99,-48.01 5,-70 4.49,-80 3.52,-89.49 3.52,-80 5,-91.99 5.97,-68.98 6.99,-17.5 8.52,80 4.49,75 3.52,69.49 3.47,75.97 2.5,58.52 3.52,56.48 3.52,41.02 3.98,29.49 4.49,5.51 5,-40.51 4.49,-65.97 3.52,-76.02 3.52,-75 3.47,-78.98 4.03,-79.54 4.49,-94.49 5,-76.48 5.51,-41.02 7.5,29.49 4.49,66.02 5,70.51 3.47,78.98 4.54,84.03 5,58.98 2.5,34.49 3.47,18.01 1.99,2.5 4.03,-13.01 3.47,-38.98 4.54,-75.51 5,-95.51 4.49,-110.51 3.47,-98.47 3.52,-78.52 3.98,-59.49 3.52,-41.99 3.52,-29.03 3.47,-10.97 6.02,34.49 6.99,96.02 6.02,118.98 3.47,76.02 3.52,55.46 3.47,46.53 3.52,26.48 5,6.99 6.02,-38.47 4.49,-71.99 3.47,-78.52 4.03,-90.51 5.51,-108.98 5,-104.998 5.97,-78.012 4.49,-24.488 8.52,48.976 6.02,94.032 3.47,80.97 3.52,78.01 3.47,75.51 5,75.97 4.54,64.03 6.99,19.49 7.5,-63.52 4.49,-75.46 3.52,-69.54 3.47,-66.99 2.5,-61.99 3.52,-56.02 3.47,-56.992 5,-41.988 4.54,-8.98 7.5,50 4.49,87.5 5,97.5 4.49,109.49 5,123.01 6.02,101.99 6.99,52.5 6.99,-20 6.02,-84.49 5.97,-92.04 3.52,-85.46 4.49,-65.51 3.98,-44.49 2.04,-29.54 3.47,-15.46 h 2.5 l 2.5,11.48 4.49,48.98 5,83.01 6.02,122.5 4.49,131.99 6.02,133.01 7.5,98.01 6.99,35 6.99,-51.48 5,-82.04 4.49,-68.47 3.52,-68.01 3.52,-63.52 3.47,-50.97 4.03,-38.01 1.99,-16.99 5,3.47 4.49,46.02 5,69.49 3.52,73.52 3.47,83.01 3.52,80.46 5,104.54 4.49,90.97 6.02,62.5 6.99,-1.99 5.97,-58.52 3.52,-66.99 3.52,-70 3.98,-74.49 3.52,-73.52 3.47,-62.96 6.02,-63.01 4.49,-27.5 6.99,38.98 5,70 4.49,71.53 2.5,68.98 3.52,74.49 3.52,63.52 3.98,68.47 4.49,55.51 6.02,23.01 5.97,-34.49 4.54,-66.53 3.47,-72.5 4.03,-74.49 3.47,-78.98 3.52,-73.01 3.47,-91.99 6.02,-71.53 6.02,-37.5 6.99,35 4.49,66.02 3.98,67.5 3.52,73.52 4.49,82.5 3.52,58.47 3.47,36.99 4.03,27.04 1.99,8.47 1.48,-0.51 4.54,-26.99 5.97,-73.47 5,-112.04 4.49,-115.97 5,-91.53 2.04,-71.99 3.47,-56.99 2.5,-46.48 2.5,-32.5 3.52,-21.02 3.47,-8.52 5,23.01 6.02,76.02 5.51,100.97 5,89.03 3.47,66.48 3.52,44.49 3.52,27.04 3.47,10.46 2.5,-5.97 3.52,-26.02 5,-65 4.49,-91.48 6.02,-121.99 5,-128.01 5.97,-105.51 4.49,-73.012 6.02,-22.5 8.52,67.502 5.46,99.03 5,78.47 3.52,71.99 3.52,63.01 3.47,51.99 4.03,43.52 5.46,10.51 7.5,-59.49 4.54,-75 3.47,-73.01 3.52,-78.52 3.98,-73.01 3.52,-88.98 5.97,-71.48 5.51,-36.532 6.02,28.012 5.97,83.98 5,85 3.52,96.53 4.49,88.47 5,102.5 6.02,72.5 6.99,17.04 8.52,-71.02 4.49,-83.98 3.47,-79.54 3.52,-72.96 3.52,-55 3.98,-48.01 1.99,-35.51 3.52,-20 5,1.48 4.49,43.01 6.02,83.52 5,112.5 4.49,128.01 5.97,117.5 5,91.48 6.02,55.51 3.52,10.97 4.49,-25 5,-55.97 4.49,-80 6.02,-101.02 3.47,-68.98 3.52,-50 3.47,-36.02 4.03,-18.01 1.99,-2.96 3.52,11.48 3.98,46.02 4.49,73.47 3.52,86.02 5,110.97 5.97,119.54 4.54,107.96 6.99,77.04 7.5,5.46 6.99,-73.47 3.52,-69.03 3.47,-68.47 3.52,-75 3.47,-66.99 3.52,-52.5 3.98,-38.52 4.54,-21.99 5.97,26.48 6.02,71.53 3.47,72.96 3.52,73.52 3.52,76.48 3.47,83.01 5,88.01 6.02,65 5.97,15 8.01,-76.02 5,-75.97 1.99,-71.99 4.03,-76.53 4.49,-87.5 5,-85 5.51,-68.98 5.97,-14.49 7.5,67.96 4.54,71.53 3.47,68.98 3.52,72.5 3.98,60 1.99,52.5 3.52,42.5 3.98,31.99 4.54,13.01 5,-25.51 5.46,-77.96 5,-101.02 3.52,-86.02 3.52,-76.99 2.5,-74.49 3.47,-67.5 5,-74.49 4.49,-50 6.02,-7.5 6.02,44.49 3.47,64.49 4.49,81.99 4.03,62.5 1.99,31.53 1.48,30 2.04,25.97 1.48,26.02 2.5,21.48 1.02,17.04 2.5,12.5 0.97,7.96 2.5,2.04 2.5,-6.53 1.99,-14.49 1.53,-21.48 3.47,-37.5 3.52,-65.51 4.49,-111.53 6.02,-138.98 5,-102.5 3.47,-78.52 4.54,-60 3.98,-27.96 6.99,16.99 6.02,73.01 5.97,102.96 4.54,83.01 3.47,63.52 2.5,50.97 3.52,36.53 3.47,18.01 5,-6.53 6.02,-63.47 4.49,-78.01 5,-96.02 4.49,-100.51 5,-113.98 5.51,-93.012 6.02,-52.5 5.97,9.492 6.02,74.54 5,80 3.52,77.5 3.47,75.97 3.52,71.02 4.49,75.97 6.02,49.54 7.5,-5 7.96,-117.04 5,-76.99 2.04,-66.48 3.98,-70 3.52,-64.49 3.47,-50.508 4.49,-50 5,-10 7.04,55 5,88.976 4.49,102.502 5,112.5 5.51,118.52 5.97,96.48 7.5,38.52 8.01,-49.49 6.99,-113.52 5,-89.49 3.52,-74.49 3.47,-57.5 3.52,-36.53 3.52,-25.51 2.5,-6.48 2.5,2.5 4.49,33.01 3.98,61.48 4.49,96.02 5,115 1.02,18.01" /><g
         transform="scale(10)"
         id="g238"><text
           id="text242"
           style="font-variant:normal;font-weight:normal;font-size:8px;font-family:'DejaVu Sans';-inkscape-font-specification:DejaVuSans;writing-mode:lr-tb;fill:#000000;fill-opacity:1;fill-rule:nonzero;stroke:none"
           transform="matrix(1,0,0,-1,298.012,188.699)"><tspan
             id="tspan240"
             y="0"
             x="0 4.7280002 7.848 12.576 14.792 19.864">v(vlp)</tspan></text>
</g><path
         id="path244"
         style="fill:none;stroke:#00ff00;stroke-width:2.5;stroke-linecap:square;stroke-linejoin:miter;stroke-miterlimit:3.79999995;stroke-dasharray:none;stroke-opacity:1"
         d="M 3261.48,1913.01 H 3502.5" /><path
         id="path246"
         style="fill:none;stroke:#00ff00;stroke-width:2.5;stroke-linecap:square;stroke-linejoin:miter;stroke-miterlimit:3.79999995;stroke-dasharray:none;stroke-opacity:1"
         d="m 429.488,868.52 3.524,0.46 3.468,1.02 5,1.988 6.02,4.492 6.988,8.008 4.492,7.5 4.032,6.992 4.488,8.52 5,8.52 3.52,6.992 3.468,6.476 2.5,6.532 3.524,6.48 4.488,8.98 6.02,10.508 3.468,8.524 5,8.976 4.492,10.512 3.52,8.012 3.52,7.498 3.98,6.99 1.988,6.99 2.5,6.99 3.524,10 5,16.53 5.968,17.5 4.54,17.5 3.468,12.5 5,13.47 3.524,12.04 4.488,16.48 5,18.01 8.012,21.99 5,16.48 3.468,10.51 3.52,9.03 3.52,8.98 3.468,8.98 4.032,12.5 3.468,9.03 3.524,9.49 2.5,8.98 5.508,17.04 5,16.48 4.492,13.98 3.976,14.03 4.492,15 6.02,16.48 6.02,16.99 6.992,17.04 8.468,17.96 4.54,8.01 3.468,5.51 3.524,6.02 3.976,5.46 3.524,5 1.988,4.03 3.98,3.98 2.04,4.49 3.468,4.54 6.024,8.98 3.468,6.02 4.032,4.49 3.468,4.49 3.52,5 4.488,4.49 5,4.03 4.492,2.5 5,0.97 4.54,-0.51 5,-1.48 4.492,-2.5 3.468,-2.5 5,-3.52 3.52,-3.47 3.52,-3.01 3.468,-3.01 2.5,-2.5 3.524,-2.5 5.968,-5 5,-4.49 4.54,-5 5,-4.49 3.468,-4.03 1.992,-3.98 4.032,-3.98 1.988,-4.54 2.5,-5 3.52,-6.99 6.992,-12.5 5.968,-14.49 6.02,-15 3.52,-10 3.98,-8.98 3.52,-9.54 3.468,-10.97 4.492,-13.01 7.5,-15.51 4.54,-11.99 5,-8.98 1.992,-7.04 3.468,-7.5 5,-9.49 4.54,-10.97 5,-12.04 3.468,-11.48 6.024,-15.51 5.968,-15.97 3.52,-12.5 4.488,-12.5 5,-11.02 4.492,-15 6.02,-14.49 7.5,-15.51 6.988,-15.51 6.024,-8.98 3.468,-6.53 4.54,-5.46 2.5,-4.54 3.468,-4.49 3.524,-4.49 2.5,-4.49 3.468,-5 3.52,-5 5,-6.99 4.488,-6.53 5,-6.99 4.492,-6.99 6.02,-6.02 6.02,-5 5,-1.99 4.49,-0.51 5,0.51 4.49,1.48 5,2.04 3.52,2.5 3.47,2.5 3.52,2.96 2.5,2.5 3.47,2.5 3.52,2.5 2.5,2.5 4.49,4.54 6.02,3.98 3.47,3.52 2.5,2.96 8.52,8.52 4.49,6.99 5,9.49 6.99,12.5 6.02,14.54 4.49,10.97 3.52,10 3.47,10.51 4.03,10 3.47,10 3.52,9.49 3.52,11.53 5.97,15 6.99,17.96 3.52,11.53 3.52,8.98 3.47,9.49 4.03,8.52 3.47,8.98 3.52,10 4.49,13.52 5,16.99 6.99,23.52 5,15.51 4.49,13.98 3.52,15 3.52,13.01 5,16.48 5.97,18.52 6.99,19.49 8.52,23.01 4.49,10.97 3.52,8.52 3.47,8.52 2.5,6.99 3.52,8.01 3.52,7.5 3.98,8.47 4.49,11.02 5,13.01 4.49,10.97 3.52,9.49 3.52,7.5 3.47,8.01 4.03,7.5 4.49,9.03 5,8.98 5.51,8.98 7.5,8.01 4.49,4.03 5,2.5 3.47,1.48 4.54,1.48 5,1.02 2.5,1.02 3.47,0.46 1.99,1.02 4.03,0.51 3.47,0.97 4.54,0.51 5,1.02 h 4.49 l 3.47,-0.51 3.52,-1.48 3.98,-1.53 3.52,-1.99 3.52,-2.5 3.47,-3.98 6.02,-8.01 6.99,-11.02 6.02,-11.99 3.47,-8.01 3.52,-6.99 3.47,-6.99 3.52,-6.99 5,-8.52 6.02,-11.02 4.49,-8.98 3.47,-8.01 4.03,-7.5 5.51,-9.49 5,-11.48 5.97,-13.52 4.49,-13.98 8.52,-21.02 6.02,-17.5 3.47,-12.5 3.52,-11.48 3.47,-11.02 5,-13.01 4.54,-15.51 6.99,-16.99 7.5,-20 4.49,-10.51 3.52,-8.47 3.47,-6.99 2.5,-7.04 3.52,-6.99 3.47,-8.47 5,-10 4.54,-12.5 7.5,-15 4.49,-13.52 5,-11.02 4.49,-11.48 5,-11.99 6.02,-12.5 6.99,-10.51 6.99,-9.49 6.02,-6.99 5.97,-4.03 3.52,-3.01 4.49,-1.99 3.98,-1.99 2.04,-1.48 3.47,-1.53 2.5,-1.48 2.5,-1.02 4.49,-2.5 5,-2.5 6.02,-1.99 4.49,-1.48 h 6.02 l 7.5,1.99 6.99,5 6.99,8.01 5,7.5 4.49,5.97 3.52,6.53 3.52,5.97 3.47,6.53 4.03,6.48 1.99,6.02 5,6.99 4.49,9.49 5,7.5 3.52,6.48 3.47,6.53 3.52,6.48 5,9.49 4.49,11.02 6.02,14.49 6.99,18.01 5.97,16.48 3.52,12.5 3.52,11.53 3.98,11.99 3.52,11.99 3.47,11.53 6.02,15 4.49,16.99 6.99,20 5,13.47 4.49,10 2.5,8.52 3.52,8.98 3.52,8.01 3.98,10.51 4.49,12.5 6.02,15 5.97,18.01 4.54,13.98 3.47,11.53 4.03,10 3.47,10.46 3.52,9.03 3.47,13.01 6.02,12.5 6.02,13.98 6.99,13.98 4.49,8.52 3.98,5.51 3.52,5.51 4.49,5.97 3.52,4.49 3.47,3.52 4.03,4.49 1.99,2.5 1.48,3.01 4.54,5.51 5.97,6.99 5,6.48 4.49,5 5,3.52 2.04,2.5 3.47,1.99 2.5,1.53 2.5,0.46 3.52,0.51 h 3.47 l 5,-1.48 6.02,-3.52 5.51,-5 5,-5 3.47,-4.49 3.52,-3.52 3.52,-3.98 3.47,-3.52 2.5,-3.47 3.52,-4.03 5,-5.46 4.49,-5.51 6.02,-6.53 5,-7.5 5.97,-8.47 4.49,-10.51 6.02,-11.99 8.52,-21.02 5.46,-16.48 5,-11.02 3.52,-10.97 3.52,-10 3.47,-10 4.03,-13.01 5.46,-15 7.5,-18.52 4.54,-11.99 3.47,-8.98 3.52,-9.03 3.98,-8.47 3.52,-12.04 5.97,-12.96 5.51,-16.53 6.02,-20 5.97,-18.47 5,-14.03 3.52,-13.47 4.49,-12.5 5,-16.53 6.02,-15.97 6.99,-17.5 8.52,-17.04 4.49,-10 3.47,-7.5 3.52,-6.48 3.52,-5.51 3.98,-5.51 1.99,-5.97 3.52,-5.51 5,-8.01 4.49,-8.98 6.02,-9.49 5,-9.03 4.49,-8.47 5.97,-7.5 5,-6.02 6.02,-4.49 3.52,-3.01 4.49,-1.48 h 5 l 4.49,0.46 6.02,1.53 3.47,1.99 3.52,1.48 3.47,2.04 4.03,1.48 1.99,1.48 3.52,1.53 3.98,1.99 4.49,2.5 3.52,2.5 5,3.01 5.97,3.98 4.54,6.02 6.99,8.47 7.5,12.5 6.99,14.54 3.52,9.49 3.47,8.47 3.52,9.54 3.47,8.98 3.52,8.98 3.98,8.52 4.54,11.99 5.97,14.03 6.02,12.5 3.47,8.47 3.52,8.01 3.52,7.5 3.47,8.98 5,12.04 6.02,13.98 5.97,17.5 8.01,23.98 5,13.52 1.99,10.51 4.03,10.97 4.49,13.01 5,14.03 5.51,16.48 5.97,16.48 7.5,18.52 4.54,9.49 3.47,6.99 3.52,7.5 3.98,6.02 1.99,6.48 3.52,6.02 3.98,6.99 4.54,9.03 5,10 5.46,11.99 5,10.51 3.52,7.5 3.52,5.97 2.5,6.02 3.47,5.51 5,6.48 4.49,6.48 6.02,5.51 6.02,3.52 3.47,1.48 4.49,1.02 h 7.5 l 2.04,-0.51 h 3.98 l 1.02,-0.51 h 3.47 l 2.5,-0.51 h 2.5 l 1.99,-0.46 h 1.53 l 3.47,-0.51 3.52,-0.51 4.49,-1.48 6.02,-2.04 5,-2.5 3.47,-2.96 4.54,-4.54 3.98,-5.46 6.99,-10 6.02,-11.53 5.97,-12.5 4.54,-10 3.47,-8.47 2.5,-8.01 3.52,-8.52 3.47,-7.5 5,-11.48 6.02,-13.52 4.49,-10 5,-10 4.49,-10 5,-12.5 5.51,-13.98 6.02,-16.53 5.97,-18.98 6.02,-21.02 5,-15 3.52,-12.96 3.47,-12.5 3.52,-12.5 4.49,-16.02 6.02,-17.5 7.5,-20 7.96,-25.51 5,-10 2.04,-8.47 3.98,-8.52 3.52,-8.98 3.47,-8.52 4.49,-13.01 5,-13.01 7.04,-19.49 9.49,-28.47 5,-13.01 5.51,-14.03 5.97,-14.49 7.5,-13.47 8.01,-12.5 6.99,-9.03 5,-5 3.52,-3.47 3.47,-3.52 7.04,-5 2.5,-2.5 2.5,-1.48 4.49,-4.03 3.98,-3.47 4.49,-4.03 5,-3.47 1.02,-0.51" /><g
         transform="scale(10)"
         id="g248"><text
           id="text252"
           style="font-variant:normal;font-weight:normal;font-size:8px;font-family:'DejaVu Sans';-inkscape-font-specification:DejaVuSans;writing-mode:lr-tb;fill:#000000;fill-opacity:1;fill-rule:nonzero;stroke:none"
           transform="matrix(1,0,0,-1,295.156,179.398)"><tspan
             id="tspan250"
             y="0"
             x="0 4.7280002 7.848 12.576 17.648001 22.719999">v(vbp)</tspan></text>
</g><path
         id="path254"
         style="fill:none;stroke:#0000ff;stroke-width:2.5;stroke-linecap:square;stroke-linejoin:miter;stroke-miterlimit:3.79999995;stroke-dasharray:none;stroke-opacity:1"
         d="M 3261.48,1820 H 3502.5" /><path
         id="path256"
         style="fill:none;stroke:#0000ff;stroke-width:2.5;stroke-linecap:square;stroke-linejoin:miter;stroke-miterlimit:3.79999995;stroke-dasharray:none;stroke-opacity:1"
         d="m 429.488,1171.02 3.524,-12.5 3.468,-21.02 5,-24.49 6.02,-33.01 6.988,-36.48 4.492,-23.01 4.032,-16.02 4.488,-11.99 5,-6.48 3.52,-2.5 h 3.468 l 2.5,0.968 3.524,1.532 4.488,1.992 6.02,0.968 3.468,-2.5 5,-6.48 4.492,-12.5 3.52,-11.988 3.52,-11.024 3.98,-12.5 1.988,-11.476 2.5,-11.024 3.524,-15.508 5,-20.46 5.968,-16.02 4.54,-8.98 3.468,-2.04 5,1.532 3.524,3.976 4.488,10 5,13.524 8.012,17.5 5,10.508 3.468,3.468 3.52,1.024 3.52,-1.024 3.468,-3.008 4.032,-5.968 3.468,-6.024 3.524,-6.476 2.5,-5.512 5.508,-9.488 5,-5 h 4.492 l 3.976,5 4.492,10.508 6.02,19.492 6.02,26.988 6.992,33.98 8.468,36.532 4.54,14.488 3.468,8.01 3.524,6.48 3.976,2.5 3.524,1.53 h 1.988 l 3.98,-0.51 2.04,-1.02 3.468,-0.51 6.024,2.04 3.468,4.49 4.032,6.48 3.468,9.03 3.52,13.47 4.488,20 5,28.01 4.492,26.48 5,27.5 4.54,25 5,22.5 4.492,15 3.468,11.53 5,8.47 3.52,4.03 3.52,0.97 h 3.468 l 2.5,-0.46 3.524,-1.02 5.968,0.51 5,3.98 4.54,8.52 5,11.99 3.468,11.99 1.992,11.99 4.032,12.5 1.988,13.52 2.5,13.98 3.52,17.04 6.992,26.48 5.968,21.02 6.02,11.99 3.52,3.47 H 830 l 3.52,-2.96 3.468,-6.02 4.492,-9.49 7.5,-12.5 4.54,-6.99 5,-2.5 h 1.992 l 3.468,1.99 5,5.51 4.54,10 5,11.99 3.468,11.48 6.024,13.01 5.968,8.01 3.52,1.48 4.488,-3.01 5,-6.99 4.492,-15.51 6.02,-21.99 7.5,-29.49 6.988,-30.51 6.024,-15.97 3.468,-8.52 4.54,-4.49 2.5,-1.53 3.468,-0.46 3.524,0.97 2.5,1.99 3.468,2.04 3.52,1.48 5,-0.51 4.488,-3.47 5,-9.03 4.492,-16.48 6.02,-25 6.02,-33.52 5,-26.48 4.49,-26.53 5,-23.98 4.49,-20.51 5,-13.01 3.52,-8.98 3.47,-6.02 3.52,-3.47 2.5,-1.53 3.47,-0.46 h 3.52 l 2.5,0.46 4.49,-0.97 6.02,-4.49 3.47,-6.02 2.5,-7.5 3.52,-10 5,-16.48 4.49,-22.04 5,-28.98 6.99,-32.5 6.02,-27.5 4.49,-15.512 3.52,-9.488 3.47,-6.02 4.03,-2.96 h 3.47 l 3.52,2.5 3.52,4.492 5.97,8.008 6.99,7.96 3.52,2.04 3.52,-0.508 3.47,-3.524 4.03,-5 3.47,-6.988 3.52,-9.488 4.49,-14.492 5,-17.5 6.99,-19.032 5,-7.5 4.49,-3.008 3.52,1.532 3.52,5 5,11.988 5.97,18.52 6.99,25 8.52,28.468 4.49,11.024 3.52,5.968 3.47,4.032 2.5,0.968 3.52,-0.46 3.52,-2.04 3.98,-3.468 4.49,-4.032 5,-3.468 4.49,0.508 3.52,3.468 3.52,6.024 3.47,8.468 4.03,11.532 4.49,20 5,24.998 5.51,32.5 7.5,38.47 4.49,23.01 5,15 3.47,11.53 4.54,8.47 5,3.52 2.5,1.48 3.47,0.51 h 6.02 l 3.47,1.48 4.54,4.03 5,8.01 4.49,12.5 3.47,15.46 3.52,16.02 3.98,16.99 3.52,16.02 3.52,18.47 3.47,21.53 6.02,31.48 6.99,26.53 6.02,15.97 3.47,5 3.52,1.53 3.47,-0.51 3.52,-2.5 5,-3.52 6.02,-4.49 4.49,-1.48 3.47,1.48 4.03,4.49 5.51,10 5,16.02 5.97,20.97 4.49,21.02 8.52,24.49 6.02,12.5 3.47,4.03 h 3.52 l 3.47,-3.52 5,-8.01 4.54,-13.47 6.99,-19.54 7.5,-21.99 4.49,-10 3.52,-4.49 3.47,-2.5 h 2.5 l 3.52,1.48 3.47,3.52 5,6.02 4.54,7.96 7.5,6.53 4.49,0.97 5,-4.49 4.49,-9.49 5,-18.52 6.02,-26.48 6.99,-31.99 6.99,-35 6.02,-28.52 5.97,-15.97 3.52,-9.54 4.49,-4.49 6.02,-3.01 3.47,0.51 h 5 l 4.49,-0.97 5,-4.54 6.02,-10.97 4.49,-17.5 6.02,-26.53 7.5,-33.47 6.99,-40.51 6.99,-36.99 5,-21.99 4.49,-11.02 3.52,-7.5 3.52,-4.49 3.47,-1.53 h 4.03 l 1.99,1.53 5,2.5 4.49,1.99 5,-1.02 3.52,-2.5 3.47,-5.968 3.52,-7.5 5,-14.032 4.49,-19.492 6.02,-25.508 6.99,-27.96 5.97,-19.54 3.52,-10 3.52,-5.46 3.98,-2.04 3.52,1.532 3.47,3.976 6.02,9.492 4.49,14.032 6.99,16.988 5,9.488 4.49,5 2.5,1.532 h 3.52 l 3.52,-2.5 3.98,-5.508 4.49,-8.012 6.02,-11.02 5.97,-10 4.54,-4.492 h 3.47 l 4.03,3.012 3.47,6.02 3.52,8.468 3.47,16.024 6.02,20.968 6.02,28.52 6.99,33.98 4.49,19.03 3.98,11.99 3.52,8.98 4.49,6.53 3.52,3.01 3.47,0.46 h 4.03 l 1.99,-0.97 1.48,-0.51 h 4.54 l 5.97,2.5 5,8.01 4.49,13.01 5,13.98 2.04,13.98 3.47,14.54 2.5,15.46 2.5,15.51 3.52,15.51 3.47,23.01 5,25 6.02,28.47 5.51,19.54 5,10.46 3.47,5 3.52,1.53 3.52,0.51 3.47,-0.51 2.5,-0.51 3.52,-0.51 5,1.53 4.49,5 6.02,10.46 5,17.04 5.97,21.99 4.49,26.48 6.02,26.99 8.52,35.51 5.46,16.02 5,6.48 3.52,1.99 3.52,-0.97 3.47,-3.01 4.03,-6.99 5.46,-10.51 7.5,-11.99 4.54,-5 3.47,-1.53 3.52,1.02 3.98,3.52 3.52,7.96 5.97,11.53 5.51,15.51 6.02,15.46 5.97,8.52 5,1.48 3.52,-3.47 4.49,-7.5 5,-15.51 6.02,-21.99 6.99,-29.49 8.52,-29.54 4.49,-15 3.47,-7.96 3.52,-5 3.52,-1.53 h 3.98 l 1.99,1.02 3.52,1.48 5,3.01 4.49,1.02 6.02,-2.5 5,-8.52 4.49,-15 5.97,-21.02 5,-25.46 6.02,-29.54 3.52,-25.97 4.49,-25 5,-21.99 4.49,-18.01 6.02,-14.03 3.47,-6.48 3.52,-3.01 3.47,-0.97 4.03,-0.51 1.99,0.51 h 3.52 l 3.98,-0.51 4.49,-3.52 3.52,-6.48 5,-11.53 5.97,-17.5 4.54,-24.49 6.99,-32.5 7.5,-36.478 6.99,-29.492 3.52,-13.008 3.47,-7.5 3.52,-5 3.47,-1.024 3.52,1.024 3.98,3.468 4.54,6.532 5.97,8.468 6.02,5 3.47,1.02 3.52,-1.48 3.52,-4.032 3.47,-6.988 5,-11.988 6.02,-16.532 5.97,-20 8.01,-18.98 5,-5.512 1.99,-1.476 4.03,1.988 4.49,6.48 5,11.532 5.51,19.488 5.97,23.52 7.5,25.968 4.54,11.532 3.47,6.48 3.52,4.488 3.98,1.532 1.99,-0.508 3.52,-1.532 3.98,-2.96 4.54,-4.032 5,-3.976 5.46,-0.512 5,4.488 3.52,7.5 3.52,9.032 2.5,11.48 3.47,13.98 5,21.53 4.49,26.48 6.02,31.99 6.02,28.52 3.47,18.98 4.49,15.51 4.03,8.01 1.99,3.52 1.48,2.5 2.04,1.99 1.48,1.48 2.5,1.02 1.02,0.51 2.5,0.46 h 5.97 l 1.99,0.51 1.53,0.51 3.47,1.48 3.52,4.03 4.49,10 6.02,17.5 5,18.98 3.47,20 4.54,24.03 3.98,24.49 6.99,33.01 6.02,26.48 5.97,18.52 4.54,7.96 3.47,3.01 2.5,0.51 3.52,-1.48 3.47,-2.5 5,-4.54 6.02,-3.47 h 4.49 l 5,3.47 4.49,7.04 5,13.47 5.51,18.52 6.02,23.01 5.97,22.5 6.02,17.5 5,7.5 3.52,1.99 3.47,-1.02 3.52,-4.49 4.49,-10.51 6.02,-15.51 7.5,-20.46 7.96,-23.01 5,-5.51 2.04,-3.01 3.98,-0.51 3.52,2.04 3.47,2.96 4.49,7.04 5,6.99 7.04,6.99 5,0.51 4.49,-5.51 5,-11.02 5.51,-19.49 5.97,-28.01 7.5,-35.46 8.01,-37.5 6.99,-27.04 5,-11.99 3.52,-6.48 3.47,-3.52 3.52,-0.97 h 8.52 l 4.49,-0.51 3.98,-2.5 4.49,-6.99 5,-12.04 1.02,-2.5" /><g
         transform="scale(10)"
         id="g258"><text
           id="text262"
           style="font-variant:normal;font-weight:normal;font-size:8px;font-family:'DejaVu Sans';-inkscape-font-specification:DejaVuSans;writing-mode:lr-tb;fill:#000000;fill-opacity:1;fill-rule:nonzero;stroke:none"
           transform="matrix(1,0,0,-1,295.164,170.098)"><tspan
             id="tspan260"
             y="0"
             x="0 4.7280002 7.848 12.576 17.639999 22.712017">v(vhp)</tspan></text>
</g><path
         id="path264"
         style="fill:none;stroke:#ff00ff;stroke-width:2.5;stroke-linecap:square;stroke-linejoin:miter;stroke-miterlimit:3.79999995;stroke-dasharray:none;stroke-opacity:1"
         d="M 3261.48,1726.99 H 3502.5" /><path
         id="path266"
         style="fill:none;stroke:#ff00ff;stroke-width:2.5;stroke-linecap:square;stroke-linejoin:miter;stroke-miterlimit:3.79999995;stroke-dasharray:none;stroke-opacity:1"
         d="m 429.488,1526.02 3.524,61.48 3.468,69.49 5,45.51 6.02,8.01 6.988,-63.01 4.492,-88.98 4.032,-95.51 4.488,-103.01 5,-92.5 3.52,-63.52 3.468,-45.97 2.5,-29.03 3.524,-10.97 4.488,14.49 6.02,58.98 3.468,72.04 5,87.5 4.492,96.99 3.52,60 3.52,38.98 3.98,26.99 1.988,11.02 2.5,0.51 3.524,-19.03 5,-67.96 5.968,-107.5 4.54,-121.53 3.468,-90.51 5,-88.47 3.524,-68.52 4.488,-68.47 5,-29.032 8.012,38.012 5,81.48 3.468,66.53 3.52,60.51 3.52,58.98 3.468,53.01 4.032,52.5 3.468,23.47 3.524,7.04 2.5,-8.52 5.508,-55 5,-88.52 4.492,-96.99 3.976,-105.51 4.492,-109.492 6.02,-108.008 6.02,-69.492 6.992,-0.508 8.468,106.532 4.54,85 3.468,70.968 3.524,73.52 3.976,56.02 3.524,43.98 1.988,23.98 3.98,12.04 2.04,-2.04 3.468,-17.5 6.024,-76.48 3.468,-74.49 4.032,-71.53 3.468,-74.492 3.52,-83.976 4.488,-84.032 5,-67.5 4.492,-21.992 5,16.992 4.54,52.04 5,82.96 4.492,83.52 3.468,88.98 5,102.04 3.52,67.5 3.52,42.96 3.468,28.52 2.5,8.01 3.524,-6.53 5.968,-51.48 5,-78.52 4.54,-99.492 5,-86.476 3.468,-61.532 1.992,-45.46 4.032,-31.02 1.988,-19.488 2.5,-6.024 3.52,12.5 6.992,68.524 5.968,118.976 6.02,138.012 3.52,88.01 3.98,76.48 3.52,64.49 3.468,55 4.492,29.03 7.5,-28.01 4.54,-66.99 5,-65.51 1.992,-62.5 3.468,-62.5 5,-67.5 4.54,-58.98 5,-28.52 3.468,7.5 6.024,59.488 5.968,101.992 3.52,99.03 4.488,106.48 5,94.03 4.492,105.97 6.02,70.51 7.5,10.51 6.988,-81.02 6.024,-95.97 3.468,-81.53 4.54,-70.51 2.5,-50.46 3.468,-42.04 3.524,-27.96 2.5,-12.04 3.468,5.51 3.52,26.02 5,60.97 4.488,83.52 5,112.5 4.492,119.49 6.02,111.02 6.02,68.98 5,8.52 4.49,-30 5,-63.01 4.49,-89.49 5,-84.03 3.52,-76.99 3.47,-71.99 3.52,-60 2.5,-41.02 3.47,-23.98 3.52,-8.01 2.5,7.5 4.49,46.02 6.02,76.99 3.47,68.52 2.5,66.48 3.52,66.02 5,78.47 4.49,64.03 5,31.48 6.99,-29.49 6.02,-90 4.49,-90 3.52,-86.02 3.47,-88.47 4.03,-80 3.47,-68.52 3.52,-53.52 3.52,-38.98 5.97,-8.52 6.99,56.53 3.52,68.01 3.52,65 3.47,67.96 4.03,59.54 3.47,51.99 3.52,43.47 4.49,29.54 5,-11.53 6.99,-88.98 5,-93.01 4.49,-96.48 3.52,-102.5 3.52,-88.008 5,-98.012 5.97,-70 6.99,-13.52 8.52,84.032 4.49,75 3.52,66.988 3.47,71.48 2.5,52.5 3.52,48.52 3.52,32.5 3.98,18.52 4.49,-9.54 5,-55.46 4.49,-76.02 3.52,-81.48 3.52,-76.532 3.47,-78.468 4.03,-75.508 4.49,-85 5,-61.024 5.51,-18.468 7.5,58.468 4.49,84.492 5,83.008 3.47,88.524 4.54,90.968 5,62.04 2.5,35.97 3.47,18.52 1.99,1.99 4.03,-12.5 3.47,-38.01 4.54,-71.48 5,-87.498 4.49,-98.012 3.47,-83.012 3.52,-61.476 3.98,-41.992 3.52,-24.032 3.52,-8.976 3.47,13.976 6.02,72.5 6.99,133.012 6.02,146.48 3.47,89.54 3.52,64.49 3.47,53.98 3.52,31.53 5,11.99 6.02,-30.51 4.49,-63.52 3.47,-68.98 4.03,-78.01 5.51,-88.978 5,-79.032 5.97,-44.492 4.49,9.492 8.52,92.5 6.02,123.52 3.47,97.5 3.52,89.49 3.47,83.52 5,81.99 4.54,66.48 6.99,19.03 7.5,-65 4.49,-73.52 3.52,-65.97 3.47,-62.5 2.5,-55.51 3.52,-48.52 3.47,-45 5,-26.48 4.54,10.51 7.5,70.46 4.49,100.51 5,104.49 4.49,110.51 5,118.01 6.02,88.98 6.99,32.5 6.99,-44.49 6.02,-105 5.97,-103.98 3.52,-91.99 4.49,-68.52 3.98,-45.51 2.04,-28.98 3.47,-14.03 2.5,0.51 2.5,12.5 4.49,49.03 5,80 6.02,113.47 4.49,116.53 6.02,106.99 7.5,63.98 6.99,-8.47 6.99,-95.51 5,-111.02 4.49,-85.51 3.52,-81.48 3.52,-75 3.47,-59.49 4.03,-45 1.99,-22.5 5,-2.5 4.49,38.01 5,60.46 3.52,64.03 3.47,70.51 3.52,66.48 5,81.48 4.49,62.04 6.02,23.47 6.99,-46.48 5.97,-94.03 3.52,-89.49 3.52,-86.48 3.98,-88.52 3.52,-84.49 3.47,-70.51 6.02,-69.49 4.49,-31.988 6.99,34.488 5,65.51 4.49,66.48 2.5,61.99 3.52,65 3.52,53.52 3.98,53.01 4.49,35.97 6.02,-1.48 5.97,-61.48 4.54,-84.54 3.47,-83.47 4.03,-81.53 3.47,-82.96 3.52,-74.54 3.47,-88.98 6.02,-64.488 6.02,-23.524 6.99,53.012 4.49,76.02 3.98,73.468 3.52,77.5 4.49,83.012 3.52,57.5 3.47,34.49 4.03,23.01 1.99,5.51 1.48,-3.52 4.54,-31.99 5.97,-76.48 5,-109.54 4.49,-108.468 5,-81.532 2.04,-60.46 3.47,-45 2.5,-33.008 2.5,-18.524 3.52,-6.476 3.47,13.468 5,49.032 6.02,106.988 5.51,125.512 5,103.978 3.47,76.53 3.52,50.97 3.52,31.53 3.47,14.49 2.5,-2.5 3.52,-21.99 5,-57.5 4.49,-80.51 6.02,-104.49 5,-103.52 5.97,-76.02 4.49,-37.96 6.02,15.968 8.52,122.5 5.46,131.024 5,95.968 3.52,85 3.52,73.01 3.47,59.03 4.03,50.46 5.46,16.02 7.5,-51.48 4.54,-67.5 3.47,-65 3.52,-68.52 3.98,-61.02 3.52,-70 5.97,-47.5 5.51,-5.968 6.02,61.476 5.97,111.022 5,100 3.52,106.48 4.49,94.03 5,103.47 6.02,68.01 6.99,6.48 8.52,-81.99 4.49,-88.47 3.47,-80 3.52,-71.53 3.52,-51.48 3.98,-43.01 1.99,-29.49 3.52,-13.52 5,11.53 4.49,52.5 6.02,88.98 5,113.01 4.49,121.99 5.97,104.49 5,72.5 6.02,31.99 3.52,-11.48 4.49,-46.99 5,-76.99 4.49,-98.52 6.02,-116.99 3.47,-77.5 3.52,-55 3.47,-40 4.03,-19.49 1.99,-5.51 3.52,10 3.98,41.48 4.49,66.99 3.52,77.04 5,96.48 5.97,98.01 4.54,78.47 6.99,37.5 7.5,-41.99 6.99,-115.97 3.52,-91.53 3.47,-84.49 3.52,-89.49 3.47,-77.5 3.52,-61.02 3.98,-43.98 4.54,-29.03 5.97,20 6.02,63.52 3.47,65 3.52,63.98 3.52,65 3.47,67.04 5,65 6.02,35.46 5.97,-20.97 8.01,-118.01 5,-94.49 1.99,-84.03 4.03,-85.46 4.49,-94.54 5,-87.96 5.51,-67.5 5.97,-8.52 7.5,74.488 4.54,73.012 3.47,68.52 3.52,68.98 3.98,55.51 1.99,46.99 3.52,35 3.98,23.01 4.54,0.51 5,-38.52 5.46,-90 5,-106.02 3.52,-85.968 3.52,-74.032 2.5,-68.98 3.47,-60 5,-60 4.49,-31.02 6.02,18.008 6.02,68.524 3.47,80.968 4.49,97.04 4.03,70 1.99,35 1.48,32.96 2.04,28.01 1.48,28.52 2.5,23.01 1.02,17.5 2.5,13.47 0.97,9.03 2.5,2.5 2.5,-5.51 1.99,-14.03 1.53,-19.49 3.47,-35.51 3.52,-60.46 4.49,-100.508 6.02,-119.032 5,-81.992 3.47,-55.508 4.54,-32.5 3.98,1.02 6.99,58.98 6.02,110 5.97,133.008 4.54,101.992 3.47,75 2.5,60.51 3.52,43.52 3.47,23.98 5,1.53 6.02,-52.04 4.49,-67.96 5,-82.04 4.49,-83.468 5,-88.524 5.51,-60.968 6.02,-14.54 5.97,49.032 6.02,112.5 5,101.478 3.52,93.01 3.47,87.5 3.52,79.49 4.49,81.99 6.02,53.01 7.5,-4.49 7.96,-112.5 5,-72.5 2.04,-61.02 3.98,-61.99 3.52,-53.98 3.47,-40 4.49,-30.51 5,8.52 7.04,80.46 5,103.52 4.49,110.51 5,115 5.51,113.47 5.97,83.52 7.5,18.52 8.01,-73.01 6.99,-131.02 5,-96.99 3.52,-76.99 3.47,-58.52 3.52,-35.51 3.52,-23.47 2.5,-4.49 2.5,3.98 4.49,35.51 3.98,61.48 4.49,92.5 5,106.02 1.02,15.97" /><g
         transform="scale(10)"
         id="g268"><text
           id="text272"
           style="font-variant:normal;font-weight:normal;font-size:8px;font-family:'DejaVu Sans';-inkscape-font-specification:DejaVuSans;writing-mode:lr-tb;fill:#000000;fill-opacity:1;fill-rule:nonzero;stroke:none"
           transform="matrix(1,0,0,-1,295.332,160.801)"><tspan
             id="tspan270"
             y="0"
             x="0 4.7280002 7.848 12.576 17.472 22.544001">v(vap)</tspan></text>
</g><path
         id="path274"
         style="fill:none;stroke:#00ffff;stroke-width:2.5;stroke-linecap:square;stroke-linejoin:miter;stroke-miterlimit:3.79999995;stroke-dasharray:none;stroke-opacity:1"
         d="M 3261.48,1633.98 H 3502.5" /><path
         id="path276"
         style="fill:none;stroke:#00ffff;stroke-width:2.5;stroke-linecap:square;stroke-linejoin:miter;stroke-miterlimit:3.79999995;stroke-dasharray:none;stroke-opacity:1"
         d="m 429.488,1121.99 3.524,-48.98 3.468,-51.02 5,-25.002 6.02,18.012 6.988,89.49 4.492,103.52 4.032,103.47 4.488,107.04 5,91.48 3.52,60.51 3.468,40.51 2.5,22.96 3.524,4.03 4.488,-24.03 6.02,-68.47 3.468,-77.5 5,-89.49 4.492,-96.02 3.52,-56.99 3.52,-36.02 3.98,-22.5 1.988,-8.01 2.5,3.01 3.524,23.01 5,70.51 5.968,105 4.54,112.5 3.468,80.51 5,73.98 3.524,53.52 L 560,1725 h 5 l 8.012,-75 5,-107.5 3.468,-80 3.52,-70.51 3.52,-68.01 3.468,-60 4.032,-59.49 3.468,-28.01 3.524,-10.97 2.5,3.98 5.508,45.51 5,75.51 4.492,82.5 3.976,85.97 4.492,85.51 6.02,73.52 6.02,28.47 6.992,-48.47 8.468,-158.52 4.54,-106.99 3.468,-85 3.524,-86.48 3.976,-65 3.524,-51.02 1.988,-29.49 3.98,-16.022 2.04,-3.468 3.468,12.5 6.024,63.47 3.468,63.52 4.032,60.51 3.468,60.97 3.52,66.02 4.488,60.51 5,37.5 4.492,-5 5,-44.03 4.54,-74.49 5,-103.01 4.492,-96.48 3.468,-97.5 5,-108.01 3.52,-69.488 3.52,-41.992 3.468,-27.04 2.5,-5.46 3.524,7.96 5.968,54.54 5,77.96 4.54,95.508 5,80.002 3.468,54.49 1.992,37.5 4.032,24.03 1.988,10.97 2.5,-1.48 3.52,-21.48 6.992,-80 5.968,-124.54 6.02,-135 3.52,-81.992 3.98,-68.008 3.52,-53.468 3.468,-40 4.492,-8.524 7.5,53.524 4.54,85.508 5,75.968 1.992,70 3.468,68.012 5,71.99 4.54,61.99 5,30 3.468,-5.97 6.024,-54.49 5.968,-93.008 3.52,-88.012 4.488,-90.512 5,-76.476 4.492,-77.5 6.02,-36.024 7.5,31.992 6.988,124.032 6.024,120.968 3.468,96.02 4.54,81.48 2.5,57.5 3.468,47.5 3.524,33.01 2.5,15.51 3.468,-1.02 3.52,-20.97 5,-52.5 4.488,-73.01 5,-95.512 4.492,-96.988 6.02,-81.02 6.02,-33.468 5,18.008 4.49,55.968 5,85 4.49,107.5 5,94.492 3.52,84.54 3.47,75.46 3.52,62.04 2.5,41.48 3.47,23.01 3.52,6.48 2.5,-8.98 4.49,-47.5 6.02,-76.02 3.47,-65.51 2.5,-61.99 3.52,-59.49 5,-68.52 4.49,-50 5,-14.492 6.99,46.532 6.02,101.99 4.49,93.47 3.52,86.02 3.47,84.49 4.03,73.01 3.47,59.49 3.52,42.5 3.52,25 5.97,-11.48 6.99,-81.02 3.52,-80.51 3.52,-73.47 3.47,-74.03 4.03,-63.47 3.47,-54.49 3.52,-45 4.49,-30.51 5,9.49 6.99,82.5 5,83.98 4.49,85 3.52,86.53 3.52,70.51 5,70.46 5.97,35.51 6.99,-28.01 8.52,-132.5 4.49,-96.48 3.52,-81.48 3.47,-84.54 2.5,-61.48 3.52,-56.99 3.52,-38.522 3.98,-25.508 4.49,0.508 5,44.032 4.49,63.98 3.52,68.01 3.52,63.01 3.47,61.99 4.03,56.99 4.49,57.5 5,28.52 5.51,-20.51 7.5,-102.5 4.49,-110.51 5,-100 3.47,-101.988 4.54,-101.532 5,-67.96 2.5,-40 3.47,-20.508 1.99,-4.032 4.03,10.508 3.47,34.492 4.54,65.508 5,79.032 4.49,85 3.47,68.98 3.52,46.99 3.98,28.01 3.52,11.02 3.52,-5.51 3.47,-30 6.02,-93.52 6.99,-147.502 6.02,-150.968 3.47,-87.5 3.52,-60 3.47,-47.04 3.52,-23.98 5,-1.988 6.02,44.488 4.49,73.012 3.47,74.488 4.03,80.512 5.51,90 5,75.508 5.97,38.98 4.49,-13.98 8.52,-94.032 6.02,-117.5 3.47,-88.468 3.52,-78.52 3.47,-69.488 5,-62.5 4.54,-39.492 6.99,15 7.5,103.98 4.49,93.98 3.52,78.52 3.47,72.5 2.5,63.012 3.52,53.976 3.47,51.024 5,32.5 4.54,-3.524 7.5,-60 4.49,-86.988 5,-88.52 4.49,-90 5,-88.468 6.02,-52.5 6.99,8.008 6.99,85.968 6.02,139.032 5.97,123.98 3.52,105 4.49,76.02 3.98,50.46 2.04,32.5 3.47,16.53 2.5,1.99 2.5,-10.51 4.49,-43.98 5,-71.99 6.02,-100 4.49,-98.008 6.02,-81.992 7.5,-34.54 6.99,41.02 6.99,122.5 5,124.488 4.49,90.512 3.52,83.52 3.52,73.47 3.47,56.02 4.03,39.49 1.99,16.48 5,-5.46 4.49,-47.04 5,-66.48 3.52,-67.5 3.47,-71.48 3.52,-65.51 5,-76.99 4.49,-55.508 6.02,-14.492 6.99,53.98 5.97,95 3.52,86.02 3.52,80.46 3.98,79.03 3.52,72.5 3.47,55.97 6.02,46.53 4.49,3.47 6.99,-69.49 5,-87.5 4.49,-80.51 2.5,-72.5 3.52,-73.98 3.52,-60 3.98,-58.98 4.49,-42.04 6.02,-4.492 5.97,51.532 4.54,72.96 3.47,72.04 4.03,68.47 3.47,66.99 3.52,57.04 3.47,61.99 6.02,31.99 6.02,-16.02 6.99,-98.47 4.49,-102.5 3.98,-91.02 3.52,-91.99 4.49,-96.48 3.52,-65.508 3.47,-40 4.03,-28.012 1.99,-8.98 1.48,0.46 4.54,25 5.97,65.508 5,94.492 4.49,90 5,65 2.04,44.54 3.47,29.49 2.5,16.99 2.5,3.52 3.52,-8.52 3.47,-34.49 5,-71.02 6.02,-130.51 5.51,-140 5,-110.46 3.47,-78.52 3.52,-49.488 3.52,-29.492 3.47,-11.532 2.5,5.512 3.52,25 5,59.488 4.49,80.512 6.02,100.512 5,95 5.97,63.976 4.49,24.032 6.02,-28.52 8.52,-134.488 5.46,-130 5,-91.532 3.52,-76.992 3.52,-63.008 3.47,-46.48 4.03,-32.5 5.46,6.48 7.5,80.508 4.54,83.524 3.47,75 3.52,76.476 3.98,66.532 3.52,75.46 5.97,50.508 5.51,9.492 6.02,-55 5.97,-98.98 5,-87.5 3.52,-89.488 4.49,-74.492 5,-73.52 6.02,-31.988 6.99,38.008 8.52,125.46 4.49,113.008 3.47,96.024 3.52,83.008 3.52,59.492 3.98,50 1.99,35 3.52,18.468 5,-3.98 4.49,-43.012 6.02,-75.968 5,-95.508 4.49,-98.012 5.97,-77.5 5,-43.012 h 6.02 l 3.52,38.524 4.49,71.988 5,98.012 4.49,115.508 6.02,130 3.47,82.96 3.52,57.5 3.47,40.51 4.03,20 1.99,4.49 3.52,-10.46 3.98,-41.53 4.49,-65 3.52,-72.5 5,-88.01 5.97,-85.46 4.54,-61.532 6.99,-16.476 7.5,63.468 6.99,129.54 3.52,94.49 3.47,83.47 3.52,85.51 3.47,71.02 3.52,51.48 3.98,33.52 4.54,12.5 5.97,-40 6.02,-79.49 3.47,-74.03 3.52,-70.51 3.52,-68.98 3.47,-70 5,-66.02 6.02,-34.492 5.97,20.512 8.01,111.02 5,86.48 1.99,73.52 4.03,72.96 4.49,76.53 5,63.47 5.51,33.52 5.97,-28.52 7.5,-116.48 4.54,-93.52 3.47,-81.99 3.52,-80.97 3.98,-64.032 1.99,-53.468 3.52,-41.02 3.98,-28.012 4.54,-6.988 5,30 5.46,76.988 5,90.002 3.52,71.53 3.52,59.49 2.5,51.99 3.47,41.48 5,33.52 4.49,0.51 6.02,-53.52 6.02,-98.98 3.47,-101.02 4.49,-112.502 4.03,-78.976 1.99,-39.032 1.48,-35.46 2.04,-30.508 1.48,-30 2.5,-24.492 1.02,-19.032 2.5,-14.488 0.97,-9.488 2.5,-3.012 2.5,4.488 1.99,13.012 1.53,18.98 3.47,33.52 3.52,56.02 4.49,91.48 6.02,103.98 5,66.53 3.47,40 4.54,15 3.98,-18.52 6.99,-80.002 6.02,-123.468 5.97,-138.52 4.54,-100.512 3.47,-70.968 2.5,-53.52 3.52,-35.512 3.47,-15.508 5,12.5 6.02,68.008 4.49,76.992 5,88.008 4.49,86.532 5,88.468 5.51,58.524 6.02,10.968 5.97,-50.46 6.02,-108.008 5,-93.524 3.52,-81.988 3.47,-74.488 3.52,-63.012 4.49,-58.012 6.02,-21.988 7.5,43.012 7.96,158.008 5,88.98 2.04,71.48 3.98,72.04 3.52,61.992 3.47,45.968 4.49,39.032 5,-1.024 7.04,-65.508 5,-87.96 4.49,-91.532 5,-90.968 5.51,-81.532 5.97,-43.468 7.5,27.5 8.01,120.46 6.99,166.532 5,113.976 3.52,88.012 3.47,66.02 3.52,40.46 3.52,27.5 2.5,8.01 2.5,-1.99 4.49,-28.98 3.98,-54.54 4.49,-80.46 5,-90.508 1.02,-13.524" /><path
         id="path278"
         style="fill:none;stroke:#000000;stroke-width:2.5;stroke-linecap:square;stroke-linejoin:miter;stroke-miterlimit:3.79999995;stroke-dasharray:none;stroke-opacity:1"
         d="m 429.488,292.5 h 2373.01 v 1760 H 429.488 Z" /></g></g></svg>