<?xml version="1.0" encoding="UTF-8" standalone="no"?>
<svg
   xmlns:dc="http://purl.org/dc/elements/1.1/"
   xmlns:cc="http://creativecommons.org/ns#"
   xmlns:rdf="http://www.w3.org/1999/02/22-rdf-syntax-ns#"
   xmlns:svg="http://www.w3.org/2000/svg"
   xmlns="http://www.w3.org/2000/svg"
   viewBox="0 0 480 288"
   height="288"
   width="480"
   xml:space="preserve"
   id="svg2"
   version="1.1"><metadata
     id="metadata8"><rdf:RDF><cc:Work
         rdf:about=""><dc:format>image/svg+xml</dc:format><dc:type
           rdf:resource="http://purl.org/dc/dcmitype/StillImage" /></cc:Work></rdf:RDF></metadata><defs
     id="defs6" /><g
     transform="matrix(1.3333333,0,0,-1.3333333,0,288)"
     id="g10"><g
       transform="scale(0.1)"
       id="g12"><path
         id="path14"
         style="fill:none;stroke:#000000;stroke-width:1.5;stroke-linecap:square;stroke-linejoin:miter;stroke-miterlimit:3.79999995;stroke-dasharray:2, 20;stroke-dashoffset:0;stroke-opacity:1"
         d="M 429.488,351.02 H 2802.5" /><path
         id="path16"
         style="fill:none;stroke:#000000;stroke-width:2.5;stroke-linecap:square;stroke-linejoin:miter;stroke-miterlimit:3.79999995;stroke-dasharray:none;stroke-opacity:1"
         d="M 429.488,351.02 H 466.48" /><path
         id="path18"
         style="fill:none;stroke:#000000;stroke-width:2.5;stroke-linecap:square;stroke-linejoin:miter;stroke-miterlimit:3.79999995;stroke-dasharray:none;stroke-opacity:1"
         d="m 2802.5,351.02 h -36.99" /><g
         transform="scale(10)"
         id="g20"><text
           id="text24"
           style="font-variant:normal;font-weight:normal;font-size:8px;font-family:'DejaVu Sans';-inkscape-font-specification:DejaVuSans;writing-mode:lr-tb;fill:#000000;fill-opacity:1;fill-rule:nonzero;stroke:none"
           transform="matrix(1,0,0,-1,22.2148,32.5)"><tspan
             id="tspan22"
             y="0"
             x="0 2.8800001 7.9679999 10.504">-0.3</tspan></text>
</g><path
         id="path26"
         style="fill:none;stroke:#000000;stroke-width:1.5;stroke-linecap:square;stroke-linejoin:miter;stroke-miterlimit:3.79999995;stroke-dasharray:2, 20;stroke-dashoffset:0;stroke-opacity:1"
         d="M 429.488,673.012 H 2802.5" /><path
         id="path28"
         style="fill:none;stroke:#000000;stroke-width:2.5;stroke-linecap:square;stroke-linejoin:miter;stroke-miterlimit:3.79999995;stroke-dasharray:none;stroke-opacity:1"
         d="M 429.488,673.012 H 466.48" /><path
         id="path30"
         style="fill:none;stroke:#000000;stroke-width:2.5;stroke-linecap:square;stroke-linejoin:miter;stroke-miterlimit:3.79999995;stroke-dasharray:none;stroke-opacity:1"
         d="m 2802.5,673.012 h -36.99" /><g
         transform="scale(10)"
         id="g32"><text
           id="text36"
           style="font-variant:normal;font-weight:normal;font-size:8px;font-family:'DejaVu Sans';-inkscape-font-specification:DejaVuSans;writing-mode:lr-tb;fill:#000000;fill-opacity:1;fill-rule:nonzero;stroke:none"
           transform="matrix(1,0,0,-1,22.2148,64.6992)"><tspan
             id="tspan34"
             y="0"
             x="0 2.8800001 7.9679999 10.504">-0.2</tspan></text>
</g><path
         id="path38"
         style="fill:none;stroke:#000000;stroke-width:1.5;stroke-linecap:square;stroke-linejoin:miter;stroke-miterlimit:3.79999995;stroke-dasharray:2, 20;stroke-dashoffset:0;stroke-opacity:1"
         d="M 429.488,995 H 2802.5" /><path
         id="path40"
         style="fill:none;stroke:#000000;stroke-width:2.5;stroke-linecap:square;stroke-linejoin:miter;stroke-miterlimit:3.79999995;stroke-dasharray:none;stroke-opacity:1"
         d="M 429.488,995 H 466.48" /><path
         id="path42"
         style="fill:none;stroke:#000000;stroke-width:2.5;stroke-linecap:square;stroke-linejoin:miter;stroke-miterlimit:3.79999995;stroke-dasharray:none;stroke-opacity:1"
         d="m 2802.5,995 h -36.99" /><g
         transform="scale(10)"
         id="g44"><text
           id="text48"
           style="font-variant:normal;font-weight:normal;font-size:8px;font-family:'DejaVu Sans';-inkscape-font-specification:DejaVuSans;writing-mode:lr-tb;fill:#000000;fill-opacity:1;fill-rule:nonzero;stroke:none"
           transform="matrix(1,0,0,-1,22.2148,96.8984)"><tspan
             id="tspan46"
             y="0"
             x="0 2.8800001 7.9679999 10.504">-0.1</tspan></text>
</g><path
         id="path50"
         style="fill:none;stroke:#000000;stroke-width:1.5;stroke-linecap:square;stroke-linejoin:miter;stroke-miterlimit:3.79999995;stroke-dasharray:2, 20;stroke-dashoffset:0;stroke-opacity:1"
         d="M 429.488,1316.99 H 2802.5" /><path
         id="path52"
         style="fill:none;stroke:#000000;stroke-width:2.5;stroke-linecap:square;stroke-linejoin:miter;stroke-miterlimit:3.79999995;stroke-dasharray:none;stroke-opacity:1"
         d="M 429.488,1316.99 H 466.48" /><path
         id="path54"
         style="fill:none;stroke:#000000;stroke-width:2.5;stroke-linecap:square;stroke-linejoin:miter;stroke-miterlimit:3.79999995;stroke-dasharray:none;stroke-opacity:1"
         d="m 2802.5,1316.99 h -36.99" /><g
         transform="scale(10)"
         id="g56"><text
           id="text60"
           style="font-variant:normal;font-weight:normal;font-size:8px;font-family:'DejaVu Sans';-inkscape-font-specification:DejaVuSans;writing-mode:lr-tb;fill:#000000;fill-opacity:1;fill-rule:nonzero;stroke:none"
           transform="matrix(1,0,0,-1,32.7344,129.098)"><tspan
             id="tspan58"
             y="0"
             x="0">0</tspan></text>
</g><path
         id="path62"
         style="fill:none;stroke:#000000;stroke-width:1.5;stroke-linecap:square;stroke-linejoin:miter;stroke-miterlimit:3.79999995;stroke-dasharray:2, 20;stroke-dashoffset:0;stroke-opacity:1"
         d="M 429.488,1638.98 H 2802.5" /><path
         id="path64"
         style="fill:none;stroke:#000000;stroke-width:2.5;stroke-linecap:square;stroke-linejoin:miter;stroke-miterlimit:3.79999995;stroke-dasharray:none;stroke-opacity:1"
         d="M 429.488,1638.98 H 466.48" /><path
         id="path66"
         style="fill:none;stroke:#000000;stroke-width:2.5;stroke-linecap:square;stroke-linejoin:miter;stroke-miterlimit:3.79999995;stroke-dasharray:none;stroke-opacity:1"
         d="m 2802.5,1638.98 h -36.99" /><g
         transform="scale(10)"
         id="g68"><text
           id="text72"
           style="font-variant:normal;font-weight:normal;font-size:8px;font-family:'DejaVu Sans';-inkscape-font-specification:DejaVuSans;writing-mode:lr-tb;fill:#000000;fill-opacity:1;fill-rule:nonzero;stroke:none"
           transform="matrix(1,0,0,-1,25.1016,161.301)"><tspan
             id="tspan70"
             y="0"
             x="0 5.0879998 7.6240001">0.1</tspan></text>
</g><path
         id="path74"
         style="fill:none;stroke:#000000;stroke-width:1.5;stroke-linecap:square;stroke-linejoin:miter;stroke-miterlimit:3.79999995;stroke-dasharray:2, 20;stroke-dashoffset:0;stroke-opacity:1"
         d="M 429.488,1961.02 H 2802.5" /><path
         id="path76"
         style="fill:none;stroke:#000000;stroke-width:2.5;stroke-linecap:square;stroke-linejoin:miter;stroke-miterlimit:3.79999995;stroke-dasharray:none;stroke-opacity:1"
         d="M 429.488,1961.02 H 466.48" /><path
         id="path78"
         style="fill:none;stroke:#000000;stroke-width:2.5;stroke-linecap:square;stroke-linejoin:miter;stroke-miterlimit:3.79999995;stroke-dasharray:none;stroke-opacity:1"
         d="m 2802.5,1961.02 h -36.99" /><g
         transform="scale(10)"
         id="g80"><text
           id="text84"
           style="font-variant:normal;font-weight:normal;font-size:8px;font-family:'DejaVu Sans';-inkscape-font-specification:DejaVuSans;writing-mode:lr-tb;fill:#000000;fill-opacity:1;fill-rule:nonzero;stroke:none"
           transform="matrix(1,0,0,-1,25.1016,193.5)"><tspan
             id="tspan82"
             y="0"
             x="0 5.0879998 7.6240001">0.2</tspan></text>
</g><path
         id="path86"
         style="fill:none;stroke:#000000;stroke-width:1.5;stroke-linecap:square;stroke-linejoin:miter;stroke-miterlimit:3.79999995;stroke-dasharray:2, 20;stroke-dashoffset:0;stroke-opacity:1"
         d="m 426.988,292.5 v 1760" /><path
         id="path88"
         style="fill:none;stroke:#000000;stroke-width:1.5;stroke-linecap:square;stroke-linejoin:miter;stroke-miterlimit:3.79999995;stroke-dasharray:2, 20;stroke-dashoffset:0;stroke-opacity:1"
         d="m 664.488,292.5 v 1760" /><path
         id="path90"
         style="fill:none;stroke:#000000;stroke-width:2.5;stroke-linecap:square;stroke-linejoin:miter;stroke-miterlimit:3.79999995;stroke-dasharray:none;stroke-opacity:1"
         d="m 664.488,292.5 v 36.988" /><path
         id="path92"
         style="fill:none;stroke:#000000;stroke-width:2.5;stroke-linecap:square;stroke-linejoin:miter;stroke-miterlimit:3.79999995;stroke-dasharray:none;stroke-opacity:1"
         d="m 664.488,2052.5 v -36.99" /><g
         transform="scale(10)"
         id="g94"><text
           id="text98"
           style="font-variant:normal;font-weight:normal;font-size:8px;font-family:'DejaVu Sans';-inkscape-font-specification:DejaVuSans;writing-mode:lr-tb;fill:#000000;fill-opacity:1;fill-rule:nonzero;stroke:none"
           transform="matrix(1,0,0,-1,52.4297,17.3477)"><tspan
             id="tspan96"
             y="0"
             x="0 5.0879998 7.6240001 12.712 17.799999 22.888">1.0002</tspan></text>
</g><path
         id="path100"
         style="fill:none;stroke:#000000;stroke-width:1.5;stroke-linecap:square;stroke-linejoin:miter;stroke-miterlimit:3.79999995;stroke-dasharray:2, 20;stroke-dashoffset:0;stroke-opacity:1"
         d="m 901.988,292.5 v 1760" /><path
         id="path102"
         style="fill:none;stroke:#000000;stroke-width:2.5;stroke-linecap:square;stroke-linejoin:miter;stroke-miterlimit:3.79999995;stroke-dasharray:none;stroke-opacity:1"
         d="m 901.988,292.5 v 36.988" /><path
         id="path104"
         style="fill:none;stroke:#000000;stroke-width:2.5;stroke-linecap:square;stroke-linejoin:miter;stroke-miterlimit:3.79999995;stroke-dasharray:none;stroke-opacity:1"
         d="m 901.988,2052.5 v -36.99" /><g
         transform="scale(10)"
         id="g106"><text
           id="text110"
           style="font-variant:normal;font-weight:normal;font-size:8px;font-family:'DejaVu Sans';-inkscape-font-specification:DejaVuSans;writing-mode:lr-tb;fill:#000000;fill-opacity:1;fill-rule:nonzero;stroke:none"
           transform="matrix(1,0,0,-1,76.1797,17.3477)"><tspan
             id="tspan108"
             y="0"
             x="0 5.0879998 7.6240001 12.712 17.799999 22.888">1.0004</tspan></text>
</g><path
         id="path112"
         style="fill:none;stroke:#000000;stroke-width:1.5;stroke-linecap:square;stroke-linejoin:miter;stroke-miterlimit:3.79999995;stroke-dasharray:2, 20;stroke-dashoffset:0;stroke-opacity:1"
         d="m 1139.49,292.5 v 1760" /><path
         id="path114"
         style="fill:none;stroke:#000000;stroke-width:2.5;stroke-linecap:square;stroke-linejoin:miter;stroke-miterlimit:3.79999995;stroke-dasharray:none;stroke-opacity:1"
         d="m 1139.49,292.5 v 36.988" /><path
         id="path116"
         style="fill:none;stroke:#000000;stroke-width:2.5;stroke-linecap:square;stroke-linejoin:miter;stroke-miterlimit:3.79999995;stroke-dasharray:none;stroke-opacity:1"
         d="m 1139.49,2052.5 v -36.99" /><g
         transform="scale(10)"
         id="g118"><text
           id="text122"
           style="font-variant:normal;font-weight:normal;font-size:8px;font-family:'DejaVu Sans';-inkscape-font-specification:DejaVuSans;writing-mode:lr-tb;fill:#000000;fill-opacity:1;fill-rule:nonzero;stroke:none"
           transform="matrix(1,0,0,-1,99.9297,17.3477)"><tspan
             id="tspan120"
             y="0"
             x="0 5.0879998 7.6240001 12.712 17.799999 22.888">1.0006</tspan></text>
</g><path
         id="path124"
         style="fill:none;stroke:#000000;stroke-width:1.5;stroke-linecap:square;stroke-linejoin:miter;stroke-miterlimit:3.79999995;stroke-dasharray:2, 20;stroke-dashoffset:0;stroke-opacity:1"
         d="m 1377.5,292.5 v 1760" /><path
         id="path126"
         style="fill:none;stroke:#000000;stroke-width:2.5;stroke-linecap:square;stroke-linejoin:miter;stroke-miterlimit:3.79999995;stroke-dasharray:none;stroke-opacity:1"
         d="m 1377.5,292.5 v 36.988" /><path
         id="path128"
         style="fill:none;stroke:#000000;stroke-width:2.5;stroke-linecap:square;stroke-linejoin:miter;stroke-miterlimit:3.79999995;stroke-dasharray:none;stroke-opacity:1"
         d="m 1377.5,2052.5 v -36.99" /><g
         transform="scale(10)"
         id="g130"><text
           id="text134"
           style="font-variant:normal;font-weight:normal;font-size:8px;font-family:'DejaVu Sans';-inkscape-font-specification:DejaVuSans;writing-mode:lr-tb;fill:#000000;fill-opacity:1;fill-rule:nonzero;stroke:none"
           transform="matrix(1,0,0,-1,123.73,17.3477)"><tspan
             id="tspan132"
             y="0"
             x="0 5.0879998 7.6240001 12.712 17.799999 22.888">1.0008</tspan></text>
</g><path
         id="path136"
         style="fill:none;stroke:#000000;stroke-width:1.5;stroke-linecap:square;stroke-linejoin:miter;stroke-miterlimit:3.79999995;stroke-dasharray:2, 20;stroke-dashoffset:0;stroke-opacity:1"
         d="m 1615,292.5 v 1760" /><path
         id="path138"
         style="fill:none;stroke:#000000;stroke-width:2.5;stroke-linecap:square;stroke-linejoin:miter;stroke-miterlimit:3.79999995;stroke-dasharray:none;stroke-opacity:1"
         d="m 1615,292.5 v 36.988" /><path
         id="path140"
         style="fill:none;stroke:#000000;stroke-width:2.5;stroke-linecap:square;stroke-linejoin:miter;stroke-miterlimit:3.79999995;stroke-dasharray:none;stroke-opacity:1"
         d="m 1615,2052.5 v -36.99" /><g
         transform="scale(10)"
         id="g142"><text
           id="text146"
           style="font-variant:normal;font-weight:normal;font-size:8px;font-family:'DejaVu Sans';-inkscape-font-specification:DejaVuSans;writing-mode:lr-tb;fill:#000000;fill-opacity:1;fill-rule:nonzero;stroke:none"
           transform="matrix(1,0,0,-1,150.023,17.3477)"><tspan
             id="tspan144"
             y="0"
             x="0 5.0879998 7.6240001 12.712 17.799999">1.001</tspan></text>
</g><path
         id="path148"
         style="fill:none;stroke:#000000;stroke-width:1.5;stroke-linecap:square;stroke-linejoin:miter;stroke-miterlimit:3.79999995;stroke-dasharray:2, 20;stroke-dashoffset:0;stroke-opacity:1"
         d="m 1852.5,292.5 v 1760" /><path
         id="path150"
         style="fill:none;stroke:#000000;stroke-width:2.5;stroke-linecap:square;stroke-linejoin:miter;stroke-miterlimit:3.79999995;stroke-dasharray:none;stroke-opacity:1"
         d="m 1852.5,292.5 v 36.988" /><path
         id="path152"
         style="fill:none;stroke:#000000;stroke-width:2.5;stroke-linecap:square;stroke-linejoin:miter;stroke-miterlimit:3.79999995;stroke-dasharray:none;stroke-opacity:1"
         d="m 1852.5,2052.5 v -36.99" /><g
         transform="scale(10)"
         id="g154"><text
           id="text158"
           style="font-variant:normal;font-weight:normal;font-size:8px;font-family:'DejaVu Sans';-inkscape-font-specification:DejaVuSans;writing-mode:lr-tb;fill:#000000;fill-opacity:1;fill-rule:nonzero;stroke:none"
           transform="matrix(1,0,0,-1,171.23,17.3477)"><tspan
             id="tspan156"
             y="0"
             x="0 5.0879998 7.6240001 12.712 17.799999 22.888">1.0012</tspan></text>
</g><path
         id="path160"
         style="fill:none;stroke:#000000;stroke-width:1.5;stroke-linecap:square;stroke-linejoin:miter;stroke-miterlimit:3.79999995;stroke-dasharray:2, 20;stroke-dashoffset:0;stroke-opacity:1"
         d="m 2090,292.5 v 1760" /><path
         id="path162"
         style="fill:none;stroke:#000000;stroke-width:2.5;stroke-linecap:square;stroke-linejoin:miter;stroke-miterlimit:3.79999995;stroke-dasharray:none;stroke-opacity:1"
         d="m 2090,292.5 v 36.988" /><path
         id="path164"
         style="fill:none;stroke:#000000;stroke-width:2.5;stroke-linecap:square;stroke-linejoin:miter;stroke-miterlimit:3.79999995;stroke-dasharray:none;stroke-opacity:1"
         d="m 2090,2052.5 v -36.99" /><g
         transform="scale(10)"
         id="g166"><text
           id="text170"
           style="font-variant:normal;font-weight:normal;font-size:8px;font-family:'DejaVu Sans';-inkscape-font-specification:DejaVuSans;writing-mode:lr-tb;fill:#000000;fill-opacity:1;fill-rule:nonzero;stroke:none"
           transform="matrix(1,0,0,-1,194.98,17.3477)"><tspan
             id="tspan168"
             y="0"
             x="0 5.0879998 7.6240001 12.712 17.799999 22.888">1.0014</tspan></text>
</g><path
         id="path172"
         style="fill:none;stroke:#000000;stroke-width:1.5;stroke-linecap:square;stroke-linejoin:miter;stroke-miterlimit:3.79999995;stroke-dasharray:2, 20;stroke-dashoffset:0;stroke-opacity:1"
         d="m 2327.5,292.5 v 1760" /><path
         id="path174"
         style="fill:none;stroke:#000000;stroke-width:2.5;stroke-linecap:square;stroke-linejoin:miter;stroke-miterlimit:3.79999995;stroke-dasharray:none;stroke-opacity:1"
         d="m 2327.5,292.5 v 36.988" /><path
         id="path176"
         style="fill:none;stroke:#000000;stroke-width:2.5;stroke-linecap:square;stroke-linejoin:miter;stroke-miterlimit:3.79999995;stroke-dasharray:none;stroke-opacity:1"
         d="m 2327.5,2052.5 v -36.99" /><g
         transform="scale(10)"
         id="g178"><text
           id="text182"
           style="font-variant:normal;font-weight:normal;font-size:8px;font-family:'DejaVu Sans';-inkscape-font-specification:DejaVuSans;writing-mode:lr-tb;fill:#000000;fill-opacity:1;fill-rule:nonzero;stroke:none"
           transform="matrix(1,0,0,-1,218.73,17.3477)"><tspan
             id="tspan180"
             y="0"
             x="0 5.0879998 7.6240168 12.712017 17.800016 22.888016">1.0016</tspan></text>
</g><path
         id="path184"
         style="fill:none;stroke:#000000;stroke-width:1.5;stroke-linecap:square;stroke-linejoin:miter;stroke-miterlimit:3.79999995;stroke-dasharray:2, 20;stroke-dashoffset:0;stroke-opacity:1"
         d="m 2565,292.5 v 1760" /><path
         id="path186"
         style="fill:none;stroke:#000000;stroke-width:2.5;stroke-linecap:square;stroke-linejoin:miter;stroke-miterlimit:3.79999995;stroke-dasharray:none;stroke-opacity:1"
         d="m 2565,292.5 v 36.988" /><path
         id="path188"
         style="fill:none;stroke:#000000;stroke-width:2.5;stroke-linecap:square;stroke-linejoin:miter;stroke-miterlimit:3.79999995;stroke-dasharray:none;stroke-opacity:1"
         d="m 2565,2052.5 v -36.99" /><g
         transform="scale(10)"
         id="g190"><text
           id="text194"
           style="font-variant:normal;font-weight:normal;font-size:8px;font-family:'DejaVu Sans';-inkscape-font-specification:DejaVuSans;writing-mode:lr-tb;fill:#000000;fill-opacity:1;fill-rule:nonzero;stroke:none"
           transform="matrix(1,0,0,-1,242.48,17.3477)"><tspan
             id="tspan192"
             y="0"
             x="0 5.0879998 7.6240168 12.712017 17.800016 22.888016">1.0018</tspan></text>
</g><path
         id="path196"
         style="fill:none;stroke:#000000;stroke-width:1.5;stroke-linecap:square;stroke-linejoin:miter;stroke-miterlimit:3.79999995;stroke-dasharray:2, 20;stroke-dashoffset:0;stroke-opacity:1"
         d="m 2802.5,292.5 v 1760" /><path
         id="path198"
         style="fill:none;stroke:#000000;stroke-width:2.5;stroke-linecap:square;stroke-linejoin:miter;stroke-miterlimit:3.79999995;stroke-dasharray:none;stroke-opacity:1"
         d="m 2802.5,292.5 v 36.988" /><path
         id="path200"
         style="fill:none;stroke:#000000;stroke-width:2.5;stroke-linecap:square;stroke-linejoin:miter;stroke-miterlimit:3.79999995;stroke-dasharray:none;stroke-opacity:1"
         d="m 2802.5,2052.5 v -36.99" /><g
         transform="scale(10)"
         id="g202"><text
           id="text206"
           style="font-variant:normal;font-weight:normal;font-size:8px;font-family:'DejaVu Sans';-inkscape-font-specification:DejaVuSans;writing-mode:lr-tb;fill:#000000;fill-opacity:1;fill-rule:nonzero;stroke:none"
           transform="matrix(1,0,0,-1,268.773,17.3477)"><tspan
             id="tspan204"
             y="0"
             x="0 5.0879998 7.6240168 12.712017 17.800016">1.002</tspan></text>
</g><path
         id="path208"
         style="fill:none;stroke:#000000;stroke-width:2.5;stroke-linecap:square;stroke-linejoin:miter;stroke-miterlimit:3.79999995;stroke-dasharray:none;stroke-opacity:1"
         d="m 429.488,292.5 h 2373.01 v 1760 H 429.488 Z" /><g
         transform="scale(10)"
         id="g210"><text
           id="text214"
           style="font-variant:normal;font-weight:normal;font-size:8px;font-family:'DejaVu Sans';-inkscape-font-specification:DejaVuSans;writing-mode:lr-tb;fill:#000000;fill-opacity:1;fill-rule:nonzero;stroke:none"
           transform="matrix(0,1,1,0,10.3008,95.207)"><tspan
             id="tspan212"
             y="0"
             x="0 3.5199201 8.4399204 13.50392 17.663919 19.879919 24.76792 29.831921 32.36792 35.487919 40.959919">Tensión [V]</tspan></text>
<text
           id="text220"
           style="font-variant:normal;font-weight:normal;font-size:8px;font-family:'DejaVu Sans';-inkscape-font-specification:DejaVuSans;writing-mode:lr-tb;fill:#000000;fill-opacity:1;fill-rule:nonzero;stroke:none"
           transform="matrix(1,0,0,-1,140.324,3.39844)"><tspan
             id="tspan216"
             y="0"
             x="0 4.6320262 6.8480263 11.768026 19.560026 24.632027 29.520027 32.056026 35.176025 39.336025">Tiempo [s]</tspan><tspan
             id="tspan218"
             y="-194.60201"
             x="157.688 162.416 165.536 170.26401 172.48 177.552">v(vlp)</tspan></text>
</g><path
         id="path222"
         style="fill:none;stroke:#ff0000;stroke-width:2.5;stroke-linecap:square;stroke-linejoin:miter;stroke-miterlimit:3.79999995;stroke-dasharray:none;stroke-opacity:1"
         d="M 3261.48,2006.02 H 3502.5" /><path
         id="path224"
         style="fill:none;stroke:#ff0000;stroke-width:2.5;stroke-linecap:square;stroke-linejoin:miter;stroke-miterlimit:3.79999995;stroke-dasharray:none;stroke-opacity:1"
         d="m 429.488,959.488 h 3.524 l 3.468,1.532 5,2.5 6.02,5.46 6.988,9.032 4.492,8.976 4.032,8.524 4.488,9.998 5,9.49 3.52,8.52 3.468,7.5 2.5,7.96 3.524,8.01 4.488,10.51 6.02,11.99 3.468,10.51 5,10.51 4.492,12.5 3.52,9.49 3.52,8.52 3.98,8.98 1.988,7.5 2.5,8.52 3.524,11.99 5,19.49 5.968,21.02 4.54,20 3.468,15.46 5,15.51 3.524,14.49 4.488,19.54 5,20.97 8.012,26.02 5,20 3.468,11.99 3.52,10.51 3.52,10.97 3.468,10.51 4.032,14.49 3.468,11.02 3.524,11.48 2.5,10 5.508,20.51 5,19.49 4.492,16.53 3.976,16.48 4.492,17.5 12.04,40 6.992,20.51 8.468,21.02 4.54,8.98 3.468,6.99 3.524,6.99 3.976,6.02 3.524,6.02 1.988,5 3.98,5 2.04,5.46 3.468,5 6.024,11.02 3.468,6.48 4.032,6.02 3.468,5 3.52,5.51 4.488,5.51 5,5 4.492,2.5 5,0.97 h 4.54 l 5,-1.99 4.492,-2.5 3.468,-3.01 5,-4.49 3.52,-3.98 3.52,-3.52 3.468,-3.52 2.5,-2.96 3.524,-3.01 5.968,-6.02 5,-5.51 4.54,-5.46 5,-5.51 3.468,-5 1.992,-4.49 4.032,-5 1.988,-5.51 2.5,-5.51 3.52,-8.01 6.992,-15 5.968,-17.5 6.02,-17.5 3.52,-11.48 3.98,-11.02 3.52,-10.97 3.468,-13.01 4.492,-15.51 7.5,-18.52 4.54,-14.49 5,-10 1.992,-8.98 3.468,-8.52 5,-10.97 4.54,-13.01 5,-14.03 3.468,-13.47 6.024,-19.03 5.968,-18.47 3.52,-15 4.488,-14.49 5,-13.52 4.492,-17.5 6.02,-16.99 7.5,-18.52 6.988,-18.01 6.024,-10.97 3.468,-7.5 4.54,-6.53 2.5,-5.46 3.468,-5.51 3.524,-5 2.5,-5.51 3.468,-6.02 3.52,-5.97 5,-8.01 4.488,-8.01 5,-8.01 4.492,-8.47 6.02,-6.99 6.02,-5.51 5,-2.5 4.49,-1.02 5,0.51 4.49,1.99 5,2.5 3.52,3.01 3.47,3.01 3.52,3.47 2.5,3.01 3.47,3.01 3.52,3.01 2.5,3.01 4.49,5 6.02,5 3.47,3.47 2.5,4.03 3.52,3.98 5,6.02 4.49,7.96 5,11.53 6.99,15 6.02,16.99 4.49,13.01 3.52,11.99 3.47,11.99 4.03,11.99 3.47,11.53 3.52,11.99 3.52,13.52 5.97,16.99 6.99,21.99 3.52,13.52 3.52,10.46 3.47,11.02 4.03,10.51 3.47,10.51 3.52,11.48 4.49,16.02 11.99,47.96 5,18.52 4.49,16.99 3.52,16.99 3.52,15.51 5,20 5.97,21.53 6.99,23.47 8.52,26.99 4.49,12.5 3.52,10 3.47,10.51 2.5,8.52 3.52,8.98 3.52,9.03 3.98,10 4.49,13.47 5,15.51 4.49,12.5 3.52,11.02 3.52,9.49 3.47,8.98 4.03,9.03 4.49,10.97 5,10.51 5.51,10.51 7.5,9.49 4.49,4.49 5,3.01 3.47,1.99 4.54,1.99 5,1.02 2.5,1.02 3.47,0.97 1.99,0.51 4.03,1.02 3.47,0.97 4.54,1.02 5,0.51 h 4.49 l 3.47,-0.51 3.52,-1.53 3.98,-1.48 3.52,-2.5 3.52,-3.01 3.47,-5 6.02,-9.49 6.99,-13.01 6.02,-13.98 3.47,-9.49 3.52,-8.01 3.47,-9.03 3.52,-7.96 5,-9.54 6.02,-13.47 4.49,-11.02 3.47,-8.98 4.03,-9.03 5.51,-11.48 5,-13.52 5.97,-15.97 4.49,-16.53 8.52,-24.49 6.02,-20.97 3.47,-14.54 3.52,-13.47 3.47,-13.52 5,-15.51 4.54,-17.96 6.99,-20 7.5,-23.52 4.49,-13.01 3.52,-9.49 3.47,-8.52 2.5,-7.96 3.52,-8.01 3.47,-10.51 5,-11.48 4.54,-15.51 7.5,-17.5 4.49,-15.51 5,-13.52 4.49,-13.47 5,-14.49 6.02,-14.54 6.99,-12.5 6.99,-11.48 6.02,-8.01 5.97,-4.49 3.52,-3.52 4.49,-2.5 3.98,-2.5 2.04,-1.48 3.47,-1.99 2.5,-1.53 2.5,-1.99 4.49,-2.5 5,-3.01 6.02,-2.5 4.49,-1.48 h 6.02 l 7.5,1.99 6.99,6.02 6.99,9.49 5,9.49 4.49,6.99 3.52,7.04 3.52,7.5 3.47,7.5 4.03,7.96 1.99,7.04 5,8.47 4.49,11.02 5,8.98 3.52,7.5 3.47,8.01 3.52,7.5 5,11.02 4.49,12.96 6.02,17.04 6.99,21.48 5.97,20 3.52,14.49 3.52,13.52 3.98,13.98 3.52,14.03 3.47,13.98 6.02,18.01 4.49,20 6.99,23.47 5,16.02 4.49,11.48 2.5,10 3.52,11.02 3.52,9.49 3.98,12.5 4.49,14.49 6.02,18.01 5.97,21.02 4.54,16.99 3.47,13.52 4.03,11.99 3.47,11.99 3.52,11.02 3.47,15 6.02,15 6.02,16.48 6.99,16.48 4.49,10 3.98,7.04 3.52,5.97 4.49,6.99 3.52,5.51 3.47,4.49 4.03,5 1.99,3.01 1.48,3.52 4.54,6.99 5.97,7.5 5,8.01 4.49,5.97 5,4.03 2.04,3.01 3.47,2.5 2.5,1.48 2.5,1.02 3.52,0.46 h 3.47 l 5,-1.99 6.02,-3.98 5.51,-6.02 5,-5.51 3.47,-5.46 3.52,-4.54 3.52,-4.49 3.47,-4.49 2.5,-3.98 3.52,-4.54 5,-6.48 4.49,-6.48 6.02,-7.5 5,-9.03 5.97,-10 4.49,-12.5 6.02,-14.49 8.52,-25 5.46,-18.98 5,-13.52 3.52,-12.5 3.52,-11.99 3.47,-11.99 4.03,-15.51 5.46,-16.99 7.5,-22.5 4.54,-14.03 3.47,-10.51 3.52,-10.46 3.98,-10.51 3.52,-14.03 5.97,-15.97 5.51,-19.03 6.02,-23.47 5.97,-21.99 5,-16.53 3.52,-16.48 4.49,-14.49 5,-19.03 6.02,-19.49 6.99,-20.51 8.52,-20 4.49,-11.99 3.47,-8.98 3.52,-8.01 3.52,-6.02 3.98,-6.99 1.99,-6.48 3.52,-6.53 5,-10 4.49,-10.51 6.02,-10.97 5,-10.51 4.49,-10 5.97,-8.98 5,-7.04 6.02,-5.46 3.52,-3.52 4.49,-1.48 5,-0.51 4.49,0.97 6.02,2.04 3.47,1.99 3.52,1.48 3.47,2.5 4.03,1.53 1.99,1.99 3.52,1.48 3.98,3.01 4.49,2.5 3.52,3.01 5,3.47 5.97,5 4.54,7.04 6.99,10 7.5,15 6.99,16.99 3.52,10.97 3.47,10 3.52,11.53 3.47,10.97 3.52,10 3.98,10.51 4.54,14.03 5.97,16.99 6.02,14.49 3.47,10 3.52,9.49 3.52,9.03 3.47,10.46 5,14.03 6.02,16.48 5.97,21.02 8.01,28.01 5,15.97 1.99,13.01 4.03,13.01 4.49,15 5,16.48 5.51,20 5.97,19.49 7.5,21.53 4.54,10.97 3.47,9.03 3.52,8.47 3.98,7.5 1.99,7.04 3.52,7.5 3.98,7.96 4.54,10.51 5,12.5 5.46,14.03 5,12.5 3.52,8.47 3.52,7.5 2.5,6.99 3.47,6.53 5,7.5 4.49,7.5 6.02,6.48 6.02,4.03 3.47,1.99 4.49,0.97 H 2495 l 2.5,-0.46 h 1.02 l 2.5,-0.51 h 0.97 l 2.5,-0.51 h 2.5 l 1.99,-0.51 1.53,-0.51 h 3.47 l 3.52,-0.97 4.49,-1.53 6.02,-2.5 5,-2.96 3.47,-3.52 4.54,-5.51 3.98,-6.48 6.99,-11.53 6.02,-13.47 5.97,-15 4.54,-11.99 3.47,-10 2.5,-9.54 3.52,-9.49 3.47,-9.49 5,-13.01 6.02,-16.48 4.49,-11.53 5,-11.99 4.49,-11.48 5,-15 5.51,-16.99 6.02,-19.54 5.97,-21.99 6.02,-25 5,-17.5 3.52,-15.51 3.47,-15 3.52,-14.49 4.49,-18.98 6.02,-20.51 7.5,-23.98 7.96,-30 5,-12.04 2.04,-10 3.98,-10.46 3.52,-10 3.47,-10.51 4.49,-15.51 5,-15 7.04,-23.01 5,-17.5 4.49,-15.97 5,-15.51 5.51,-16.99 5.97,-17.04 7.5,-15.97 8.01,-14.49 6.99,-10.51 5,-6.02 3.52,-4.49 3.47,-3.52 3.52,-2.96 13.01,-13.01 3.98,-4.49 4.49,-4.03 5,-3.98 1.02,-0.51" /><g
         transform="scale(10)"
         id="g226"><text
           id="text230"
           style="font-variant:normal;font-weight:normal;font-size:8px;font-family:'DejaVu Sans';-inkscape-font-specification:DejaVuSans;writing-mode:lr-tb;fill:#000000;fill-opacity:1;fill-rule:nonzero;stroke:none"
           transform="matrix(1,0,0,-1,295.156,188.699)"><tspan
             id="tspan228"
             y="0"
             x="0 4.7280002 7.848 12.576 17.648001 22.719999">v(vbp)</tspan></text>
</g><path
         id="path232"
         style="fill:none;stroke:#00ff00;stroke-width:2.5;stroke-linecap:square;stroke-linejoin:miter;stroke-miterlimit:3.79999995;stroke-dasharray:none;stroke-opacity:1"
         d="M 3261.48,1913.01 H 3502.5" /><path
         id="path234"
         style="fill:none;stroke:#00ff00;stroke-width:2.5;stroke-linecap:square;stroke-linejoin:miter;stroke-miterlimit:3.79999995;stroke-dasharray:none;stroke-opacity:1"
         d="m 429.488,1316.99 3.524,-15 3.468,-24.49 5,-28.98 6.02,-39.03 6.988,-43.47 4.492,-27.04 4.032,-18.98 4.488,-13.98 5,-7.5 3.52,-3.01 3.468,-0.51 2.5,1.02 3.524,1.99 4.488,3.01 6.02,0.46 3.468,-2.96 5,-7.5 4.492,-14.54 3.52,-13.98 3.52,-13.52 3.98,-15 1.988,-12.96 2.5,-13.52 3.524,-18.012 5,-24.488 5.968,-18.98 4.54,-10.508 3.468,-2.5 5,1.988 3.524,5 4.488,11.48 5,16.02 8.012,20.512 5,12.498 3.468,4.49 3.52,1.02 3.52,-1.02 3.468,-3.52 4.032,-7.5 3.468,-6.992 3.524,-7.5 2.5,-6.988 5.508,-11.02 5,-5.968 4.492,0.508 3.976,5.46 4.492,12.5 6.02,23.008 6.02,31.992 6.992,40 8.468,43.52 4.54,16.99 3.468,10 3.524,6.99 3.976,3.52 3.524,1.48 h 1.988 l 3.98,-0.97 2.04,-1.02 3.468,-0.51 6.024,2.5 3.468,5.51 4.032,7.5 3.468,10.51 3.52,16.02 4.488,23.47 5,33.01 4.492,31.99 5,32.5 4.54,29.49 5,26.53 4.492,17.5 3.468,13.47 5,10.51 3.52,4.49 3.52,1.53 3.468,-0.51 2.5,-0.51 3.524,-0.97 5.968,0.46 5,4.54 4.54,10.46 5,14.03 3.468,13.98 1.992,14.49 4.032,15 1.988,15.51 2.5,16.53 3.52,20.46 6.992,31.53 5.968,25 6.02,13.98 3.52,3.52 H 830 l 3.52,-3.01 3.468,-6.99 4.492,-11.53 7.5,-14.49 4.54,-8.47 5,-3.01 h 1.992 l 3.468,2.5 5,6.48 4.54,11.53 5,14.49 3.468,13.47 6.024,15.51 5.968,9.49 3.52,2.04 4.488,-4.03 5,-8.47 4.492,-18.01 6.02,-26.02 7.5,-35 6.988,-36.48 6.024,-19.03 3.468,-9.49 4.54,-5.51 2.5,-1.99 h 3.468 l 3.524,1.02 2.5,1.99 3.468,2.5 3.52,1.99 5,-0.51 4.488,-3.98 5,-11.02 4.492,-19.49 6.02,-30 6.02,-38.98 5,-31.53 4.49,-31.48 5,-28.01 4.49,-23.98 5,-15.51 3.52,-11.02 3.47,-6.99 3.52,-4.49 2.5,-1.48 3.47,-0.51 h 3.52 l 2.5,0.51 4.49,-1.53 6.02,-5 3.47,-6.99 2.5,-8.98 3.52,-11.53 5,-19.49 4.49,-26.02 5,-34.49 6.99,-38.47 6.02,-32.5 4.49,-18.01 3.52,-11.53 3.47,-7.5 4.03,-3.47 h 3.47 l 3.52,3.01 3.52,5.46 5.97,9.03 6.99,9.49 3.52,3.01 3.52,-1.02 3.47,-3.98 4.03,-6.02 3.47,-8.47 3.52,-11.02 4.49,-16.988 5,-20.512 6.99,-23.012 5,-8.976 4.49,-3.524 3.52,1.992 3.52,6.02 5,13.98 5.97,22.04 6.99,29.49 8.52,33.47 4.49,13.01 3.52,7.5 3.47,4.49 2.5,1.53 3.52,-1.02 3.52,-1.99 3.98,-3.98 4.49,-5 5,-4.03 4.49,0.51 3.52,3.98 3.52,7.04 3.47,10.46 4.03,13.52 4.49,23.52 5,29.49 5.51,38.47 7.5,45.51 4.49,27.5 5,17.5 3.47,13.52 4.54,10 5,4.49 2.5,1.48 3.47,0.51 h 1.99 l 4.03,0.51 3.47,1.48 4.54,5 5,9.03 4.49,15 3.47,18.47 3.52,19.03 3.98,19.49 3.52,19.49 3.52,21.53 3.47,25.46 6.02,37.04 6.99,31.99 6.02,18.47 3.47,6.02 3.52,1.99 3.47,-0.97 3.52,-2.5 5,-4.54 6.02,-5.46 4.49,-1.53 3.47,1.53 4.03,5.97 5.51,11.53 5,18.98 5.97,25 4.49,24.49 8.52,29.03 6.02,15 3.47,4.49 h 3.52 l 3.47,-4.03 5,-9.49 4.54,-15.97 6.99,-23.01 7.5,-26.02 4.49,-11.48 3.52,-6.02 3.47,-2.5 2.5,-0.51 3.52,2.04 3.47,4.49 5,6.99 4.54,9.49 7.5,7.5 4.49,1.02 5,-5 4.49,-11.53 5,-21.99 6.02,-30.97 6.99,-38.01 6.99,-41.53 6.02,-33.47 5.97,-19.03 3.52,-11.48 4.49,-5.51 6.02,-3.01 h 3.47 l 2.5,0.51 h 2.5 l 4.49,-1.48 5,-5.51 6.02,-12.5 4.49,-21.02 6.02,-30.97 7.5,-40 6.99,-47.5 6.99,-44.03 5,-25.97 4.49,-13.01 3.52,-8.52 3.52,-5.46 3.47,-2.04 h 4.03 l 1.99,2.04 5,2.5 4.49,2.5 5,-1.02 3.52,-3.52 3.47,-6.48 3.52,-8.98 5,-17.04 4.49,-22.5 6.02,-30.46 6.99,-33.01 5.97,-23.01 3.52,-11.988 3.52,-6.024 3.98,-2.5 3.52,1.532 3.47,5 6.02,10.968 4.49,16.532 6.99,20.46 5,11.53 4.49,5.51 2.5,1.99 3.52,-0.51 3.52,-3.01 3.98,-5.97 4.49,-10 6.02,-12.5 5.97,-12.5 4.54,-5 h 3.47 l 4.03,3.468 3.47,7.5 3.52,10.002 3.47,18.52 6.02,25 6.02,33.98 6.99,40 4.49,22.5 3.98,14.49 3.52,10.51 4.49,8.01 3.52,3.01 3.47,0.51 h 4.03 l 1.99,-1.02 1.48,-0.51 4.54,-0.51 5.97,3.52 5,9.49 4.49,15 5,16.99 2.04,16.53 3.47,16.99 2.5,18.52 2.5,18.47 3.52,18.01 3.47,26.99 5,30 6.02,33.52 5.51,23.01 5,12.5 3.47,5.46 3.52,2.5 3.52,0.51 3.47,-0.97 2.5,-0.51 3.52,-0.51 5,1.48 4.49,6.02 6.02,12.5 5,20.51 5.97,25.51 4.49,31.48 6.02,31.99 8.52,41.99 5.46,19.03 5,7.5 3.52,2.5 3.52,-1.02 3.47,-3.98 4.03,-8.01 5.46,-11.99 7.5,-14.49 4.54,-6.02 3.47,-1.99 3.52,1.48 3.98,4.03 3.52,9.49 5.97,13.98 5.51,18.01 6.02,18.01 5.97,10.51 5,1.48 3.52,-3.98 4.49,-9.03 5,-18.47 6.02,-26.02 6.99,-35 8.52,-35 4.49,-16.99 3.47,-10 3.52,-5.51 3.52,-1.99 3.98,-0.51 1.99,1.48 3.52,2.04 5,2.96 4.49,1.53 6.02,-3.01 5,-9.49 4.49,-18.01 5.97,-25 5,-30 6.02,-34.49 3.52,-31.02 4.49,-29.49 5,-26.02 4.49,-21.48 6.02,-16.99 3.47,-7.5 3.52,-3.52 3.47,-1.48 h 4.03 l 1.99,0.51 h 3.52 l 3.98,-1.02 4.49,-3.98 3.52,-7.5 5,-13.52 5.97,-21.02 4.54,-28.98 6.99,-38.01 7.5,-43.47 6.99,-35 3.52,-15 3.47,-9.03 3.52,-5.97 3.47,-1.53 3.52,1.53 3.98,3.98 4.54,7.5 5.97,10 6.02,6.02 3.47,1.48 3.52,-1.99 3.52,-4.49 3.47,-8.01 5,-14.49 6.02,-19.54 5.97,-23.468 8.01,-23.012 5,-6.48 1.99,-1.532 4.03,2.5 4.49,7.5 5,13.524 5.51,23.468 5.97,27.5 7.5,31.02 4.54,13.52 3.47,7.96 3.52,4.54 3.98,1.99 1.99,-0.51 3.52,-1.48 3.98,-3.52 4.54,-5 5,-4.49 5.46,-0.51 5,5.51 3.52,8.47 3.52,10.51 2.5,14.03 3.47,15.97 5,25.51 4.49,31.48 6.02,38.01 6.02,34.03 3.47,22.5 4.49,17.96 4.03,9.54 1.99,3.98 1.48,3.01 2.04,1.99 1.48,1.99 2.5,1.53 1.02,0.46 2.5,0.51 h 5.97 l 1.99,0.51 1.53,0.51 3.47,1.99 3.52,4.49 4.49,11.53 6.02,20.97 5,22.5 3.47,23.52 4.54,28.47 3.98,29.03 6.99,39.49 6.02,31.48 5.97,21.02 4.54,9.49 3.47,4.03 2.5,0.46 3.52,-1.48 3.47,-3.01 5,-5.51 6.02,-4.49 h 4.49 l 5,4.49 4.49,8.52 5,16.02 5.51,21.99 6.02,26.48 5.97,26.53 6.02,21.48 5,8.52 3.52,2.5 3.47,-1.53 3.52,-5.51 4.49,-11.48 6.02,-18.52 7.5,-24.49 7.96,-26.99 5,-6.99 2.04,-3.01 3.98,-0.51 3.52,1.99 3.47,3.52 4.49,8.01 5,8.47 7.04,8.52 h 5 l 4.49,-6.02 5,-12.96 5.51,-23.01 5.97,-33.52 7.5,-41.99 8.01,-43.98 6.99,-32.5 5,-14.03 3.52,-7.5 3.47,-3.98 3.52,-1.53 h 6.02 l 2.5,0.51 4.49,-0.51 3.98,-3.47 4.49,-8.01 5,-14.49 1.02,-3.01" /><g
         transform="scale(10)"
         id="g236"><text
           id="text240"
           style="font-variant:normal;font-weight:normal;font-size:8px;font-family:'DejaVu Sans';-inkscape-font-specification:DejaVuSans;writing-mode:lr-tb;fill:#000000;fill-opacity:1;fill-rule:nonzero;stroke:none"
           transform="matrix(1,0,0,-1,295.164,179.398)"><tspan
             id="tspan238"
             y="0"
             x="0 4.7280002 7.848 12.576 17.639999 22.712017">v(vhp)</tspan></text>
</g><path
         id="path242"
         style="fill:none;stroke:#0000ff;stroke-width:2.5;stroke-linecap:square;stroke-linejoin:miter;stroke-miterlimit:3.79999995;stroke-dasharray:none;stroke-opacity:1"
         d="M 3261.48,1820 H 3502.5" /><path
         id="path244"
         style="fill:none;stroke:#0000ff;stroke-width:2.5;stroke-linecap:square;stroke-linejoin:miter;stroke-miterlimit:3.79999995;stroke-dasharray:none;stroke-opacity:1"
         d="m 429.488,1736.99 3.524,72.5 3.468,81.99 5,54.54 6.02,8.98 6.988,-74.49 4.492,-105 4.032,-113.01 4.488,-121.99 5,-109.49 3.52,-75 3.468,-54.03 2.5,-34.49 3.524,-13.52 4.488,17.5 6.02,69.54 3.468,85.97 5,103.01 4.492,115 3.52,71.02 3.52,45.97 3.98,31.53 1.988,13.47 h 2.5 l 3.524,-21.99 5,-80.51 5.968,-127.5 4.54,-143.47 3.468,-107.5 5,-104.03 3.524,-81.48 4.488,-80.51 5,-34.49 8.012,45 5,96.48 3.468,78.01 3.52,71.99 3.52,70 3.468,62.5 4.032,61.99 3.468,28.01 3.524,8.01 2.5,-10 5.508,-65 5,-104.49 4.492,-115 3.976,-124.49 4.492,-130 6.02,-127.5 6.02,-82.5 h 6.992 l 8.468,125.968 4.54,100.002 3.468,84.03 3.524,87.5 3.976,65.97 3.524,51.99 1.988,28.52 3.98,13.98 2.04,-2.5 3.468,-20 6.024,-90.97 3.468,-88.01 4.032,-85 3.468,-88.012 3.52,-98.976 4.488,-99.492 5,-80 4.492,-26.02 5,20 4.54,61.48 5,98.52 4.492,98.98 3.468,104.54 5,120.97 3.52,80.51 3.52,50 3.468,34.49 2.5,9.03 3.524,-7.5 5.968,-61.02 5,-93.01 4.54,-117.5 5,-102.502 3.468,-73.008 1.992,-53.468 4.032,-36.992 1.988,-22.5 2.5,-7.04 3.52,14.032 6.992,80.968 5.968,141.02 6.02,163.52 3.52,103.98 3.98,90.51 3.52,75.97 3.468,65.51 4.492,34.49 7.5,-32.96 4.54,-79.54 5,-77.5 1.992,-73.98 3.468,-73.98 5,-80 4.54,-69.54 5,-33.98 3.468,9.49 6.024,70 5.968,120.51 3.52,116.99 4.488,126.02 5,111.48 4.492,125.51 6.02,83.01 7.5,12.5 6.988,-95.51 6.024,-113.98 3.468,-96.02 4.54,-83.98 2.5,-59.54 3.468,-50 3.524,-32.96 2.5,-13.52 3.468,6.02 3.52,30.97 5,71.99 4.488,99.03 5,133.01 4.492,141.48 6.02,131.02 6.02,81.48 5,10 4.49,-35.51 5,-74.49 4.49,-106.02 5,-98.98 3.52,-91.48 3.47,-84.54 3.52,-70.97 2.5,-48.52 3.47,-28.47 3.52,-9.54 2.5,9.03 4.49,53.98 6.02,91.53 3.47,80.97 2.5,78.52 3.52,78.01 5,92.5 4.49,75.97 5,37.5 6.99,-35 6.02,-106.48 4.49,-106.53 3.52,-101.99 3.47,-104.49 4.03,-94.49 3.47,-81.02 3.52,-63.01 3.52,-46.48 5.97,-10 6.99,66.99 3.52,80 3.52,76.99 3.47,80.51 4.03,70.51 3.47,61.48 3.52,51.02 4.49,35 5,-13.01 6.99,-105.51 5,-110 4.49,-113.98 3.52,-121.48 3.52,-104.03 5,-115.51 5.97,-82.96 6.99,-16.532 8.52,99.492 4.49,88.52 3.52,79.49 3.47,84.49 2.5,62.5 3.52,57.04 3.52,38.47 3.98,21.53 4.49,-10.51 5,-66.02 4.49,-90 3.52,-96.48 3.52,-90.51 3.47,-92.5 4.03,-88.98 4.49,-101.02 5,-71.988 5.51,-21.992 7.5,68.98 4.49,100 5,98.012 3.47,104.998 4.54,107.5 5,73.47 2.5,42.5 3.47,22.04 1.99,2.5 4.03,-15 3.47,-45 4.54,-84.03 5,-103.98 4.49,-116.022 3.47,-98.008 3.52,-72.5 3.98,-50 3.52,-28.468 3.52,-10.512 3.47,16.48 6.02,85.508 6.99,157.5 6.02,173.522 3.47,105.51 3.52,76.48 3.47,63.52 3.52,37.96 5,14.03 6.02,-36.02 4.49,-75.51 3.47,-81.48 4.03,-91.99 5.51,-105.51 5,-93.012 5.97,-52.5 4.49,11.024 8.52,108.978 6.02,146.53 3.47,115 3.52,105.97 3.47,98.52 5,96.99 4.54,78.52 6.99,22.5 7.5,-76.53 4.49,-87.5 3.52,-78.01 3.47,-73.98 2.5,-65 3.52,-56.99 3.47,-53.52 5,-31.99 4.54,12.5 7.5,83.52 4.49,118.98 5,123.52 4.49,130.97 5,139.49 6.02,105 6.99,38.52 6.99,-51.99 6.02,-124.49 5.97,-123.01 3.52,-109.03 4.49,-80.46 3.98,-54.54 2.04,-33.98 3.47,-16.99 2.5,0.97 2.5,15 4.49,58.01 5,94.49 6.02,134.03 4.49,137.5 6.02,126.99 7.5,75.51 6.99,-10 6.99,-113.01 5,-131.48 4.49,-101.02 3.52,-96.48 3.52,-88.52 3.47,-70 4.03,-53.52 1.99,-26.48 5,-3.01 4.49,44.49 5,71.53 3.52,75.97 3.47,83.52 3.52,78.98 5,96.02 4.49,73.01 6.02,28.01 6.99,-55 5.97,-111.02 3.52,-106.02 3.52,-101.99 3.98,-104.49 3.52,-100 3.47,-83.98 6.02,-82.04 4.49,-37.96 6.99,40.97 5,78.01 4.49,78.01 2.5,73.47 3.52,77.04 3.52,63.47 3.98,62.5 4.49,42.5 6.02,-1.99 5.97,-73.01 4.54,-99.49 3.47,-98.52 4.03,-96.99 3.47,-98.01 3.52,-87.96 3.47,-105.508 6.02,-76.024 6.02,-28.008 6.99,62.5 4.49,90 3.98,87.04 3.52,91.48 4.49,98.52 3.52,67.96 3.47,40.51 4.03,27.5 1.99,6.53 1.48,-4.03 4.54,-38.01 5.97,-90.46 5,-129.54 4.49,-127.96 5,-97.04 2.04,-71.48 3.47,-53.012 2.5,-38.976 2.5,-21.992 3.52,-7.5 3.47,15.968 5,57.5 6.02,126.532 5.51,148.47 5,123.52 3.47,90.51 3.52,60 3.52,37.5 3.47,16.99 2.5,-3.01 3.52,-25.51 5,-68.01 4.49,-95.46 6.02,-124.03 5,-122.502 5.97,-89.488 4.49,-45 6.02,18.98 8.52,145 5.46,154.54 5,113.98 3.52,100.51 3.52,85.97 3.47,70 4.03,60 5.46,18.52 7.5,-60.51 4.54,-80.51 3.47,-76.48 3.52,-81.02 3.98,-72.5 3.52,-82.5 5.97,-55.97 5.51,-6.99 6.02,72.5 5.97,130.97 5,118.52 3.52,125.97 4.49,111.02 5,123.01 6.02,80 6.99,7.5 8.52,-96.53 4.49,-105 3.47,-94.49 3.52,-84.49 3.52,-60.51 3.98,-51.48 1.99,-35 3.52,-15.51 5,13.52 4.49,61.99 6.02,105.51 5,133.47 4.49,144.03 5.97,123.47 5,86.53 6.02,37.5 3.52,-13.52 4.49,-56.02 5,-90.46 4.49,-116.53 6.02,-138.47 3.47,-92.04 3.52,-65 3.47,-46.99 4.03,-23.47 1.99,-6.53 3.52,11.99 3.98,49.03 4.49,79.49 3.52,91.02 5,113.98 5.97,116.02 4.54,92.96 6.99,44.54 7.5,-50 6.99,-137.5 3.52,-107.5 3.47,-100.51 3.52,-106.02 3.47,-91.48 3.52,-71.99 3.98,-52.5 4.54,-34.03 5.97,23.52 6.02,75 3.47,76.99 3.52,75.51 3.52,76.99 3.47,79.49 5,76.99 6.02,42.04 5.97,-25 8.01,-139.54 5,-111.99 1.99,-98.98 4.03,-101.02 4.49,-111.99 5,-103.98 5.51,-80 5.97,-10.508 7.5,88.468 4.54,86.53 3.47,80.51 3.52,81.99 3.98,65.97 1.99,55 3.52,42.04 3.98,26.48 4.54,1.02 5,-45.51 5.46,-106.53 5,-125 3.52,-101.99 3.52,-88.01 2.5,-81.48 3.47,-70.512 5,-71.476 4.49,-36.532 6.02,21.02 6.02,81.48 3.47,96.02 4.49,113.98 4.03,83.52 1.99,41.48 1.48,38.52 2.04,33.52 1.48,33.47 2.5,26.99 1.02,21.02 2.5,16.02 0.97,10.97 2.5,2.5 2.5,-6.48 1.99,-16.02 1.53,-23.98 3.47,-41.53 3.52,-71.48 4.49,-118.98 6.02,-141.02 5,-96.48 3.47,-66.02 4.54,-38.012 3.98,1.024 6.99,69.488 6.02,130 5.97,158.01 4.54,120 3.47,88.98 2.5,71.53 3.52,51.48 3.47,28.52 5,1.48 6.02,-61.48 4.49,-80.51 5,-96.99 4.49,-98.52 5,-104.488 5.51,-72.5 6.02,-16.992 5.97,57.96 6.02,133.01 5,120 3.52,110 3.47,103.52 3.52,93.98 4.49,97.5 6.02,62.5 7.5,-5.51 7.96,-133.47 5,-85.51 2.04,-71.99 3.98,-73.52 3.52,-63.98 3.47,-46.99 4.49,-36.02 5,10 7.04,95 5,122.5 4.49,131.02 5,135.46 5.51,134.54 5.97,98.98 7.5,21.99 8.01,-86.48 6.99,-155.51 5,-114.49 3.52,-91.02 3.47,-68.98 3.52,-41.99 3.52,-27.5 2.5,-6.02 2.5,5 4.49,41.99 3.98,73.01 4.49,108.98 5,125 1.02,19.54" /><g
         transform="scale(10)"
         id="g246"><text
           id="text250"
           style="font-variant:normal;font-weight:normal;font-size:8px;font-family:'DejaVu Sans';-inkscape-font-specification:DejaVuSans;writing-mode:lr-tb;fill:#000000;fill-opacity:1;fill-rule:nonzero;stroke:none"
           transform="matrix(1,0,0,-1,295.332,170.098)"><tspan
             id="tspan248"
             y="0"
             x="0 4.7280002 7.848 12.576 17.472 22.544001">v(vap)</tspan></text>
</g><path
         id="path252"
         style="fill:none;stroke:#ff00ff;stroke-width:2.5;stroke-linecap:square;stroke-linejoin:miter;stroke-miterlimit:3.79999995;stroke-dasharray:none;stroke-opacity:1"
         d="M 3261.48,1726.99 H 3502.5" /><path
         id="path254"
         style="fill:none;stroke:#ff00ff;stroke-width:2.5;stroke-linecap:square;stroke-linejoin:miter;stroke-miterlimit:3.79999995;stroke-dasharray:none;stroke-opacity:1"
         d="m 429.488,1259.49 3.524,-58.47 3.468,-60.51 5,-29.49 6.02,21.48 6.988,106.02 4.492,122.5 4.032,122.5 4.488,126.48 5,108.52 3.52,70.97 3.468,48.01 2.5,26.99 3.524,5 4.488,-28.47 6.02,-80.51 3.468,-91.99 5,-106.02 4.492,-113.52 3.52,-67.96 3.52,-42.04 3.98,-26.99 1.988,-8.98 2.5,3.47 3.524,27.04 5,83.47 5.968,124.03 4.54,133.47 3.468,95 5,87.5 3.524,63.52 4.488,51.48 5,0.51 8.012,-88.98 5,-127.04 3.468,-94.49 3.52,-83.47 3.52,-80.51 3.468,-70.51 4.032,-71.02 3.468,-32.96 3.524,-13.01 2.5,5 5.508,53.47 5,89.54 4.492,97.5 3.976,101.99 4.492,100.97 6.02,87.04 6.02,33.47 6.992,-57.5 8.468,-187.5 4.54,-125.97 3.468,-101.02 3.524,-102.5 3.976,-76.48 3.524,-60.51 1.988,-34.49 3.98,-19.54 2.04,-3.98 3.468,14.49 6.024,75.51 3.468,75 4.032,71.48 3.468,72.5 3.52,78.01 4.488,71.53 5,44.49 4.492,-6.02 5,-51.99 4.54,-88.52 5,-121.99 4.492,-113.47 3.468,-115.51 5,-128.01 3.52,-81.988 3.52,-50 3.468,-31.532 2.5,-6.992 3.524,10 5.968,64.492 5,92.04 4.54,112.5 5,95 3.468,64.49 1.992,44.49 4.032,28.01 1.988,13.47 2.5,-1.99 3.52,-25.51 6.992,-94.49 5.968,-147.5 6.02,-159.49 3.52,-96.988 L 830,735 l 3.52,-63.012 3.468,-47.5 4.492,-10 7.5,63.524 4.54,100.508 5,90.46 1.992,82.5 3.468,80.51 5,85 4.54,73.52 5,35.51 3.468,-7.5 6.024,-64.54 5.968,-109.49 3.52,-103.978 4.488,-107.5 5,-90 4.492,-91.992 6.02,-42.5 7.5,37.5 6.988,146.992 6.024,143.008 3.468,113.47 4.54,96.53 2.5,67.96 3.468,56.53 3.524,38.47 2.5,18.52 3.468,-1.02 3.52,-25 5,-61.99 4.488,-85.97 5,-113.52 L 983.98,925.512 990,830 l 6.02,-40 5,21.48 4.49,66.02 5,100.512 4.49,126.988 5,111.99 3.52,100 3.47,89.49 3.52,73.52 2.5,48.52 3.47,27.5 3.52,7.5 2.5,-10.51 4.49,-56.02 6.02,-90 3.47,-77.5 2.5,-73.47 3.52,-70.51 5,-80.51 4.49,-59.49 5,-17.5 6.99,55.51 6.02,120.46 4.49,110.51 3.52,101.53 3.47,100.46 4.03,86.53 3.47,70.51 3.52,50 3.52,28.98 5.97,-13.52 6.99,-95.46 3.52,-95.51 3.52,-86.53 3.47,-87.96 4.03,-75 3.47,-64.54 3.52,-52.96 4.49,-36.02 5,11.02 6.99,97.96 5,99.03 4.49,100.51 3.52,102.96 3.52,83.01 5,83.52 5.97,41.99 6.99,-33.01 8.52,-156.99 4.49,-114.49 3.52,-96.02 3.47,-100.51 2.5,-72.5 3.52,-66.99 3.52,-45.97 3.98,-30 4.49,0.97 5,51.99 4.49,75 3.52,81.02 3.52,73.98 3.47,73.52 4.03,67.5 4.49,68.01 5,33.47 5.51,-23.47 7.5,-121.53 4.49,-130.97 5,-118.01 3.47,-120.51 4.54,-120.51 5,-80.46 2.5,-47.04 3.47,-24.492 1.99,-4.488 4.03,12.5 3.47,41.02 4.54,76.992 5,93.008 4.49,100.97 3.47,81.53 3.52,55.97 3.98,33.01 3.52,13.01 3.52,-6.53 3.47,-35.46 6.02,-110.51 6.99,-174.49 6.02,-178.52 3.47,-103.52 3.52,-71.48 3.47,-55.512 3.52,-28.468 5,-2.04 6.02,52.5 4.49,86.532 3.47,88.008 4.03,95.46 5.51,106.02 5,89.49 5.97,46.02 4.49,-16.53 8.52,-110.968 6.02,-139.032 3.47,-105 3.52,-92.5 3.47,-82.5 5,-73.98 4.54,-46.02 6.99,17.04 7.5,122.96 4.49,111.02 3.52,93.52 3.47,85.46 2.5,74.54 3.52,63.98 3.47,60.51 5,38.47 4.54,-4.49 7.5,-70.51 4.49,-102.96 5,-105 4.49,-106.532 5,-104.488 6.02,-62.5 6.99,10 6.99,101.48 6.02,164.54 5.97,146.48 3.52,123.98 4.49,90.51 3.98,59.49 2.04,38.52 3.47,19.49 2.5,1.99 2.5,-11.99 4.49,-51.99 5,-85.51 6.02,-118.01 4.49,-115.968 6.02,-96.992 7.5,-41.02 6.99,48.52 6.99,145 5,146.99 4.49,106.99 3.52,98.98 3.52,87.04 3.47,65.97 4.03,46.99 1.99,19.54 5,-6.53 4.49,-55.51 5,-78.98 3.52,-79.49 3.47,-84.49 3.52,-77.5 5,-91.53 4.49,-65.002 6.02,-17.5 6.99,64.032 5.97,111.99 3.52,101.99 3.52,95 3.98,93.98 3.52,85 3.47,66.53 6.02,55 4.49,3.98 6.99,-81.99 5,-103.52 4.49,-95 2.5,-85.46 3.52,-88.01 3.52,-71.02 3.98,-70 4.49,-48.98 6.02,-6.02 5.97,61.02 4.54,86.48 3.47,85 4.03,81.02 3.47,79.49 3.52,67.5 3.47,73.01 6.02,38.47 6.02,-19.49 6.99,-115.97 4.49,-121.53 3.98,-107.5 3.52,-108.98 4.49,-114.03 3.52,-77.5 3.47,-47.5 4.03,-33.468 1.99,-10.512 1.48,0.512 4.54,29.488 5.97,78.012 5,111.478 4.49,106.99 5,76.53 2.04,52.5 3.47,35 2.5,20 2.5,4.49 3.52,-10 3.47,-41.48 5,-83.52 6.02,-154.49 5.51,-165.51 5,-131.02 3.47,-92.5 3.52,-58.468 3.52,-35 3.47,-13.524 2.5,6.532 3.52,28.98 5,71.02 4.49,95 6.02,118.98 5,111.988 5.97,76.022 4.49,28.47 6.02,-33.98 8.52,-158.52 5.46,-154.492 5,-108.008 3.52,-90.968 3.52,-74.492 3.47,-55 4.03,-38.52 5.46,8.012 7.5,94.488 4.54,98.98 3.47,89.032 3.52,90 3.98,79.488 3.52,88.52 5.97,60 5.51,11.48 6.02,-65 5.97,-117.5 5,-103.012 3.52,-106.476 4.49,-88.012 5,-86.988 6.02,-37.5 6.99,44.488 8.52,148.98 4.49,133.52 3.47,113.52 3.52,98.468 3.52,70 3.98,59.492 1.99,41.53 3.52,21.48 5,-4.49 4.49,-51.02 6.02,-90 5,-112.96 4.49,-116.02 5.97,-91.48 5,-51.02 h 6.02 l 3.52,45.512 4.49,85.508 5,115.968 4.49,136.532 6.02,153.47 3.47,98.52 3.52,68.01 3.47,47.96 4.03,23.52 1.99,5.51 3.52,-12.5 3.98,-49.03 4.49,-76.99 3.52,-85.97 5,-104.54 5.97,-100.46 4.54,-73.008 6.99,-19.492 7.5,75.46 6.99,153.01 3.52,111.53 3.47,98.98 3.52,101.48 3.47,83.52 3.52,61.02 3.98,40 4.54,14.49 5.97,-47.5 6.02,-94.03 3.47,-87.5 3.52,-82.96 3.52,-82.04 3.47,-82.5 5,-77.96 6.02,-41.53 5.97,24.49 8.01,131.53 5,101.99 1.99,87.5 4.03,86.02 4.49,90 5,75.46 5.51,40 5.97,-33.98 7.5,-137.5 4.54,-111.02 3.47,-96.99 3.52,-95.51 3.98,-75.97 1.99,-63.52 3.52,-48.01 3.98,-32.96 4.54,-9.032 5,36.024 5.46,90.508 5,106.99 3.52,84.49 3.52,70 2.5,61.99 3.47,49.03 5,39.49 4.49,0.51 6.02,-63.01 6.02,-117.5 3.47,-119.49 4.49,-133.01 4.03,-93.522 1.99,-45.508 1.48,-42.5 2.04,-35.968 1.48,-35.512 2.5,-28.98 1.02,-22.5 2.5,-17.04 0.97,-11.48 2.5,-3.52 2.5,5.508 1.99,15.512 1.53,22.5 3.47,39.488 3.52,66.532 4.49,107.96 6.02,123.01 5,79.03 3.47,46.99 4.54,17.5 3.98,-21.53 6.99,-94.49 6.02,-146.478 5.97,-164.032 4.54,-118.468 3.47,-84.032 2.5,-63.468 3.52,-41.992 3.47,-18.008 5,14.488 6.02,80.512 4.49,90.968 5,104.54 4.49,101.992 5,104.488 5.51,69.49 6.02,12.5 5.97,-59.49 6.02,-127.5 5,-110.512 3.52,-97.5 3.47,-87.5 3.52,-75 4.49,-68.468 6.02,-26.02 7.5,50.512 7.96,187.5 5,105 2.04,84.488 3.98,85 3.52,73.52 3.47,54.49 4.49,45.97 5,-0.97 7.04,-77.5 5,-104.03 4.49,-108.468 5,-107.5 5.51,-96.532 5.97,-50.968 7.5,32.5 8.01,142.5 6.99,196.988 5,134.49 3.52,104.49 3.47,78.01 3.52,47.5 3.52,33.01 2.5,8.98 2.5,-1.99 4.49,-35 3.98,-63.98 4.49,-95 5,-106.99 1.02,-16.02" /><path
         id="path256"
         style="fill:none;stroke:#000000;stroke-width:2.5;stroke-linecap:square;stroke-linejoin:miter;stroke-miterlimit:3.79999995;stroke-dasharray:none;stroke-opacity:1"
         d="m 429.488,292.5 h 2373.01 v 1760 H 429.488 Z" /></g></g></svg>