<?xml version="1.0" encoding="UTF-8" standalone="no"?>
<svg
   xmlns:dc="http://purl.org/dc/elements/1.1/"
   xmlns:cc="http://creativecommons.org/ns#"
   xmlns:rdf="http://www.w3.org/1999/02/22-rdf-syntax-ns#"
   xmlns:svg="http://www.w3.org/2000/svg"
   xmlns="http://www.w3.org/2000/svg"
   viewBox="0 0 480 288"
   height="288"
   width="480"
   xml:space="preserve"
   id="svg2"
   version="1.1"><metadata
     id="metadata8"><rdf:RDF><cc:Work
         rdf:about=""><dc:format>image/svg+xml</dc:format><dc:type
           rdf:resource="http://purl.org/dc/dcmitype/StillImage" /></cc:Work></rdf:RDF></metadata><defs
     id="defs6" /><g
     transform="matrix(1.3333333,0,0,-1.3333333,0,288)"
     id="g10"><g
       transform="scale(0.1)"
       id="g12"><path
         id="path14"
         style="fill:none;stroke:#000000;stroke-width:1.5;stroke-linecap:square;stroke-linejoin:miter;stroke-miterlimit:3.79999995;stroke-dasharray:2, 20;stroke-dashoffset:0;stroke-opacity:1"
         d="M 582.5,385 H 2751.48" /><path
         id="path16"
         style="fill:none;stroke:#000000;stroke-width:2.5;stroke-linecap:square;stroke-linejoin:miter;stroke-miterlimit:3.79999995;stroke-dasharray:none;stroke-opacity:1"
         d="m 582.5,385 h 36.988" /><path
         id="path18"
         style="fill:none;stroke:#000000;stroke-width:2.5;stroke-linecap:square;stroke-linejoin:miter;stroke-miterlimit:3.79999995;stroke-dasharray:none;stroke-opacity:1"
         d="m 2751.48,385 h -36.99" /><g
         transform="scale(10)"
         id="g20"><text
           id="text24"
           style="font-variant:normal;font-weight:normal;font-size:8px;font-family:'DejaVu Sans';-inkscape-font-specification:DejaVuSans;writing-mode:lr-tb;fill:#000000;fill-opacity:1;fill-rule:nonzero;stroke:none"
           transform="matrix(1,0,0,-1,20.043,35.8984)"><tspan
             id="tspan22"
             y="0"
             x="0 5.0879998 7.6240001 12.712 17.799999 22.888 27.976">9.10805</tspan></text>
</g><path
         id="path26"
         style="fill:none;stroke:#000000;stroke-width:1.5;stroke-linecap:square;stroke-linejoin:miter;stroke-miterlimit:3.79999995;stroke-dasharray:2, 20;stroke-dashoffset:0;stroke-opacity:1"
         d="M 582.5,570.512 H 2751.48" /><path
         id="path28"
         style="fill:none;stroke:#000000;stroke-width:2.5;stroke-linecap:square;stroke-linejoin:miter;stroke-miterlimit:3.79999995;stroke-dasharray:none;stroke-opacity:1"
         d="m 582.5,570.512 h 36.988" /><path
         id="path30"
         style="fill:none;stroke:#000000;stroke-width:2.5;stroke-linecap:square;stroke-linejoin:miter;stroke-miterlimit:3.79999995;stroke-dasharray:none;stroke-opacity:1"
         d="m 2751.48,570.512 h -36.99" /><g
         transform="scale(10)"
         id="g32"><text
           id="text36"
           style="font-variant:normal;font-weight:normal;font-size:8px;font-family:'DejaVu Sans';-inkscape-font-specification:DejaVuSans;writing-mode:lr-tb;fill:#000000;fill-opacity:1;fill-rule:nonzero;stroke:none"
           transform="matrix(1,0,0,-1,20.043,54.4492)"><tspan
             id="tspan34"
             y="0"
             x="0 5.0879998 7.6240001 12.712 17.799999 22.888 27.976">9.10805</tspan></text>
</g><path
         id="path38"
         style="fill:none;stroke:#000000;stroke-width:1.5;stroke-linecap:square;stroke-linejoin:miter;stroke-miterlimit:3.79999995;stroke-dasharray:2, 20;stroke-dashoffset:0;stroke-opacity:1"
         d="M 582.5,755.512 H 2751.48" /><path
         id="path40"
         style="fill:none;stroke:#000000;stroke-width:2.5;stroke-linecap:square;stroke-linejoin:miter;stroke-miterlimit:3.79999995;stroke-dasharray:none;stroke-opacity:1"
         d="m 582.5,755.512 h 36.988" /><path
         id="path42"
         style="fill:none;stroke:#000000;stroke-width:2.5;stroke-linecap:square;stroke-linejoin:miter;stroke-miterlimit:3.79999995;stroke-dasharray:none;stroke-opacity:1"
         d="m 2751.48,755.512 h -36.99" /><g
         transform="scale(10)"
         id="g44"><text
           id="text48"
           style="font-variant:normal;font-weight:normal;font-size:8px;font-family:'DejaVu Sans';-inkscape-font-specification:DejaVuSans;writing-mode:lr-tb;fill:#000000;fill-opacity:1;fill-rule:nonzero;stroke:none"
           transform="matrix(1,0,0,-1,20.043,72.9492)"><tspan
             id="tspan46"
             y="0"
             x="0 5.0879998 7.6240001 12.712 17.799999 22.888 27.976">9.10806</tspan></text>
</g><path
         id="path50"
         style="fill:none;stroke:#000000;stroke-width:1.5;stroke-linecap:square;stroke-linejoin:miter;stroke-miterlimit:3.79999995;stroke-dasharray:2, 20;stroke-dashoffset:0;stroke-opacity:1"
         d="M 582.5,941.02 H 2751.48" /><path
         id="path52"
         style="fill:none;stroke:#000000;stroke-width:2.5;stroke-linecap:square;stroke-linejoin:miter;stroke-miterlimit:3.79999995;stroke-dasharray:none;stroke-opacity:1"
         d="m 582.5,941.02 h 36.988" /><path
         id="path54"
         style="fill:none;stroke:#000000;stroke-width:2.5;stroke-linecap:square;stroke-linejoin:miter;stroke-miterlimit:3.79999995;stroke-dasharray:none;stroke-opacity:1"
         d="m 2751.48,941.02 h -36.99" /><g
         transform="scale(10)"
         id="g56"><text
           id="text60"
           style="font-variant:normal;font-weight:normal;font-size:8px;font-family:'DejaVu Sans';-inkscape-font-specification:DejaVuSans;writing-mode:lr-tb;fill:#000000;fill-opacity:1;fill-rule:nonzero;stroke:none"
           transform="matrix(1,0,0,-1,20.043,91.5)"><tspan
             id="tspan58"
             y="0"
             x="0 5.0879998 7.6240001 12.712 17.799999 22.888 27.976">9.10806</tspan></text>
</g><path
         id="path62"
         style="fill:none;stroke:#000000;stroke-width:1.5;stroke-linecap:square;stroke-linejoin:miter;stroke-miterlimit:3.79999995;stroke-dasharray:2, 20;stroke-dashoffset:0;stroke-opacity:1"
         d="M 582.5,1126.02 H 2751.48" /><path
         id="path64"
         style="fill:none;stroke:#000000;stroke-width:2.5;stroke-linecap:square;stroke-linejoin:miter;stroke-miterlimit:3.79999995;stroke-dasharray:none;stroke-opacity:1"
         d="m 582.5,1126.02 h 36.988" /><path
         id="path66"
         style="fill:none;stroke:#000000;stroke-width:2.5;stroke-linecap:square;stroke-linejoin:miter;stroke-miterlimit:3.79999995;stroke-dasharray:none;stroke-opacity:1"
         d="m 2751.48,1126.02 h -36.99" /><g
         transform="scale(10)"
         id="g68"><text
           id="text72"
           style="font-variant:normal;font-weight:normal;font-size:8px;font-family:'DejaVu Sans';-inkscape-font-specification:DejaVuSans;writing-mode:lr-tb;fill:#000000;fill-opacity:1;fill-rule:nonzero;stroke:none"
           transform="matrix(1,0,0,-1,20.043,110)"><tspan
             id="tspan70"
             y="0"
             x="0 5.0879998 7.6240001 12.712 17.799999 22.888 27.976">9.10806</tspan></text>
</g><path
         id="path74"
         style="fill:none;stroke:#000000;stroke-width:1.5;stroke-linecap:square;stroke-linejoin:miter;stroke-miterlimit:3.79999995;stroke-dasharray:2, 20;stroke-dashoffset:0;stroke-opacity:1"
         d="M 582.5,1311.48 H 2751.48" /><path
         id="path76"
         style="fill:none;stroke:#000000;stroke-width:2.5;stroke-linecap:square;stroke-linejoin:miter;stroke-miterlimit:3.79999995;stroke-dasharray:none;stroke-opacity:1"
         d="m 582.5,1311.48 h 36.988" /><path
         id="path78"
         style="fill:none;stroke:#000000;stroke-width:2.5;stroke-linecap:square;stroke-linejoin:miter;stroke-miterlimit:3.79999995;stroke-dasharray:none;stroke-opacity:1"
         d="m 2751.48,1311.48 h -36.99" /><g
         transform="scale(10)"
         id="g80"><text
           id="text84"
           style="font-variant:normal;font-weight:normal;font-size:8px;font-family:'DejaVu Sans';-inkscape-font-specification:DejaVuSans;writing-mode:lr-tb;fill:#000000;fill-opacity:1;fill-rule:nonzero;stroke:none"
           transform="matrix(1,0,0,-1,20.043,128.551)"><tspan
             id="tspan82"
             y="0"
             x="0 5.0879998 7.6240001 12.712 17.799999 22.888 27.976">9.10806</tspan></text>
</g><path
         id="path86"
         style="fill:none;stroke:#000000;stroke-width:1.5;stroke-linecap:square;stroke-linejoin:miter;stroke-miterlimit:3.79999995;stroke-dasharray:2, 20;stroke-dashoffset:0;stroke-opacity:1"
         d="M 582.5,1496.48 H 2751.48" /><path
         id="path88"
         style="fill:none;stroke:#000000;stroke-width:2.5;stroke-linecap:square;stroke-linejoin:miter;stroke-miterlimit:3.79999995;stroke-dasharray:none;stroke-opacity:1"
         d="m 582.5,1496.48 h 36.988" /><path
         id="path90"
         style="fill:none;stroke:#000000;stroke-width:2.5;stroke-linecap:square;stroke-linejoin:miter;stroke-miterlimit:3.79999995;stroke-dasharray:none;stroke-opacity:1"
         d="m 2751.48,1496.48 h -36.99" /><g
         transform="scale(10)"
         id="g92"><text
           id="text96"
           style="font-variant:normal;font-weight:normal;font-size:8px;font-family:'DejaVu Sans';-inkscape-font-specification:DejaVuSans;writing-mode:lr-tb;fill:#000000;fill-opacity:1;fill-rule:nonzero;stroke:none"
           transform="matrix(1,0,0,-1,20.043,147.051)"><tspan
             id="tspan94"
             y="0"
             x="0 5.0879998 7.6240001 12.712 17.799999 22.888 27.976">9.10806</tspan></text>
</g><path
         id="path98"
         style="fill:none;stroke:#000000;stroke-width:1.5;stroke-linecap:square;stroke-linejoin:miter;stroke-miterlimit:3.79999995;stroke-dasharray:2, 20;stroke-dashoffset:0;stroke-opacity:1"
         d="M 582.5,1681.99 H 2751.48" /><path
         id="path100"
         style="fill:none;stroke:#000000;stroke-width:2.5;stroke-linecap:square;stroke-linejoin:miter;stroke-miterlimit:3.79999995;stroke-dasharray:none;stroke-opacity:1"
         d="m 582.5,1681.99 h 36.988" /><path
         id="path102"
         style="fill:none;stroke:#000000;stroke-width:2.5;stroke-linecap:square;stroke-linejoin:miter;stroke-miterlimit:3.79999995;stroke-dasharray:none;stroke-opacity:1"
         d="m 2751.48,1681.99 h -36.99" /><g
         transform="scale(10)"
         id="g104"><text
           id="text108"
           style="font-variant:normal;font-weight:normal;font-size:8px;font-family:'DejaVu Sans';-inkscape-font-specification:DejaVuSans;writing-mode:lr-tb;fill:#000000;fill-opacity:1;fill-rule:nonzero;stroke:none"
           transform="matrix(1,0,0,-1,20.043,165.598)"><tspan
             id="tspan106"
             y="0"
             x="0 5.0879998 7.6240001 12.712 17.799999 22.888 27.976">9.10807</tspan></text>
</g><path
         id="path110"
         style="fill:none;stroke:#000000;stroke-width:1.5;stroke-linecap:square;stroke-linejoin:miter;stroke-miterlimit:3.79999995;stroke-dasharray:2, 20;stroke-dashoffset:0;stroke-opacity:1"
         d="M 582.5,1866.99 H 2751.48" /><path
         id="path112"
         style="fill:none;stroke:#000000;stroke-width:2.5;stroke-linecap:square;stroke-linejoin:miter;stroke-miterlimit:3.79999995;stroke-dasharray:none;stroke-opacity:1"
         d="m 582.5,1866.99 h 36.988" /><path
         id="path114"
         style="fill:none;stroke:#000000;stroke-width:2.5;stroke-linecap:square;stroke-linejoin:miter;stroke-miterlimit:3.79999995;stroke-dasharray:none;stroke-opacity:1"
         d="m 2751.48,1866.99 h -36.99" /><g
         transform="scale(10)"
         id="g116"><text
           id="text120"
           style="font-variant:normal;font-weight:normal;font-size:8px;font-family:'DejaVu Sans';-inkscape-font-specification:DejaVuSans;writing-mode:lr-tb;fill:#000000;fill-opacity:1;fill-rule:nonzero;stroke:none"
           transform="matrix(1,0,0,-1,20.043,184.098)"><tspan
             id="tspan118"
             y="0"
             x="0 5.0879998 7.6240001 12.712 17.799999 22.888 27.976">9.10807</tspan></text>
</g><path
         id="path122"
         style="fill:none;stroke:#000000;stroke-width:1.5;stroke-linecap:square;stroke-linejoin:miter;stroke-miterlimit:3.79999995;stroke-dasharray:2, 20;stroke-dashoffset:0;stroke-opacity:1"
         d="M 582.5,2052.5 H 2751.48" /><path
         id="path124"
         style="fill:none;stroke:#000000;stroke-width:2.5;stroke-linecap:square;stroke-linejoin:miter;stroke-miterlimit:3.79999995;stroke-dasharray:none;stroke-opacity:1"
         d="m 582.5,2052.5 h 36.988" /><path
         id="path126"
         style="fill:none;stroke:#000000;stroke-width:2.5;stroke-linecap:square;stroke-linejoin:miter;stroke-miterlimit:3.79999995;stroke-dasharray:none;stroke-opacity:1"
         d="m 2751.48,2052.5 h -36.99" /><g
         transform="scale(10)"
         id="g128"><text
           id="text132"
           style="font-variant:normal;font-weight:normal;font-size:8px;font-family:'DejaVu Sans';-inkscape-font-specification:DejaVuSans;writing-mode:lr-tb;fill:#000000;fill-opacity:1;fill-rule:nonzero;stroke:none"
           transform="matrix(1,0,0,-1,20.043,202.648)"><tspan
             id="tspan130"
             y="0"
             x="0 5.0879998 7.6240001 12.712 17.799999 22.888 27.976">9.10807</tspan></text>
</g><path
         id="path134"
         style="fill:none;stroke:#000000;stroke-width:1.5;stroke-linecap:square;stroke-linejoin:miter;stroke-miterlimit:3.79999995;stroke-dasharray:2, 20;stroke-dashoffset:0;stroke-opacity:1"
         d="m 582.5,292.5 v 1760" /><path
         id="path136"
         style="fill:none;stroke:#000000;stroke-width:2.5;stroke-linecap:square;stroke-linejoin:miter;stroke-miterlimit:3.79999995;stroke-dasharray:none;stroke-opacity:1"
         d="m 582.5,292.5 v 36.988" /><path
         id="path138"
         style="fill:none;stroke:#000000;stroke-width:2.5;stroke-linecap:square;stroke-linejoin:miter;stroke-miterlimit:3.79999995;stroke-dasharray:none;stroke-opacity:1"
         d="m 582.5,2052.5 v -36.99" /><g
         transform="scale(10)"
         id="g140"><text
           id="text144"
           style="font-variant:normal;font-weight:normal;font-size:8px;font-family:'DejaVu Sans';-inkscape-font-specification:DejaVuSans;writing-mode:lr-tb;fill:#000000;fill-opacity:1;fill-rule:nonzero;stroke:none"
           transform="matrix(1,0,0,-1,51.8633,17.3477)"><tspan
             id="tspan142"
             y="0"
             x="0 5.0879998 7.6240001">0.1</tspan></text>
</g><path
         id="path146"
         style="fill:none;stroke:#000000;stroke-width:1.5;stroke-linecap:square;stroke-linejoin:miter;stroke-miterlimit:3.79999995;stroke-dasharray:2, 20;stroke-dashoffset:0;stroke-opacity:1"
         d="m 943.98,292.5 v 1760" /><path
         id="path148"
         style="fill:none;stroke:#000000;stroke-width:2.5;stroke-linecap:square;stroke-linejoin:miter;stroke-miterlimit:3.79999995;stroke-dasharray:none;stroke-opacity:1"
         d="m 943.98,292.5 v 36.988" /><path
         id="path150"
         style="fill:none;stroke:#000000;stroke-width:2.5;stroke-linecap:square;stroke-linejoin:miter;stroke-miterlimit:3.79999995;stroke-dasharray:none;stroke-opacity:1"
         d="m 943.98,2052.5 v -36.99" /><g
         transform="scale(10)"
         id="g152"><text
           id="text156"
           style="font-variant:normal;font-weight:normal;font-size:8px;font-family:'DejaVu Sans';-inkscape-font-specification:DejaVuSans;writing-mode:lr-tb;fill:#000000;fill-opacity:1;fill-rule:nonzero;stroke:none"
           transform="matrix(1,0,0,-1,82.9219,17.3477)"><tspan
             id="tspan154"
             y="0"
             x="0 5.0879998 7.6240001 12.712 17.799999">0.105</tspan></text>
</g><path
         id="path158"
         style="fill:none;stroke:#000000;stroke-width:1.5;stroke-linecap:square;stroke-linejoin:miter;stroke-miterlimit:3.79999995;stroke-dasharray:2, 20;stroke-dashoffset:0;stroke-opacity:1"
         d="m 1305.51,292.5 v 1760" /><path
         id="path160"
         style="fill:none;stroke:#000000;stroke-width:2.5;stroke-linecap:square;stroke-linejoin:miter;stroke-miterlimit:3.79999995;stroke-dasharray:none;stroke-opacity:1"
         d="m 1305.51,292.5 v 36.988" /><path
         id="path162"
         style="fill:none;stroke:#000000;stroke-width:2.5;stroke-linecap:square;stroke-linejoin:miter;stroke-miterlimit:3.79999995;stroke-dasharray:none;stroke-opacity:1"
         d="m 1305.51,2052.5 v -36.99" /><g
         transform="scale(10)"
         id="g164"><text
           id="text168"
           style="font-variant:normal;font-weight:normal;font-size:8px;font-family:'DejaVu Sans';-inkscape-font-specification:DejaVuSans;writing-mode:lr-tb;fill:#000000;fill-opacity:1;fill-rule:nonzero;stroke:none"
           transform="matrix(1,0,0,-1,121.617,17.3477)"><tspan
             id="tspan166"
             y="0"
             x="0 5.0879998 7.6240001 12.712">0.11</tspan></text>
</g><path
         id="path170"
         style="fill:none;stroke:#000000;stroke-width:1.5;stroke-linecap:square;stroke-linejoin:miter;stroke-miterlimit:3.79999995;stroke-dasharray:2, 20;stroke-dashoffset:0;stroke-opacity:1"
         d="m 1666.99,292.5 v 1760" /><path
         id="path172"
         style="fill:none;stroke:#000000;stroke-width:2.5;stroke-linecap:square;stroke-linejoin:miter;stroke-miterlimit:3.79999995;stroke-dasharray:none;stroke-opacity:1"
         d="m 1666.99,292.5 v 36.988" /><path
         id="path174"
         style="fill:none;stroke:#000000;stroke-width:2.5;stroke-linecap:square;stroke-linejoin:miter;stroke-miterlimit:3.79999995;stroke-dasharray:none;stroke-opacity:1"
         d="m 1666.99,2052.5 v -36.99" /><g
         transform="scale(10)"
         id="g176"><text
           id="text180"
           style="font-variant:normal;font-weight:normal;font-size:8px;font-family:'DejaVu Sans';-inkscape-font-specification:DejaVuSans;writing-mode:lr-tb;fill:#000000;fill-opacity:1;fill-rule:nonzero;stroke:none"
           transform="matrix(1,0,0,-1,155.223,17.3477)"><tspan
             id="tspan178"
             y="0"
             x="0 5.0879998 7.6240001 12.712 17.799999">0.115</tspan></text>
</g><path
         id="path182"
         style="fill:none;stroke:#000000;stroke-width:1.5;stroke-linecap:square;stroke-linejoin:miter;stroke-miterlimit:3.79999995;stroke-dasharray:2, 20;stroke-dashoffset:0;stroke-opacity:1"
         d="m 2028.52,292.5 v 1760" /><path
         id="path184"
         style="fill:none;stroke:#000000;stroke-width:2.5;stroke-linecap:square;stroke-linejoin:miter;stroke-miterlimit:3.79999995;stroke-dasharray:none;stroke-opacity:1"
         d="m 2028.52,292.5 v 36.988" /><path
         id="path186"
         style="fill:none;stroke:#000000;stroke-width:2.5;stroke-linecap:square;stroke-linejoin:miter;stroke-miterlimit:3.79999995;stroke-dasharray:none;stroke-opacity:1"
         d="m 2028.52,2052.5 v -36.99" /><g
         transform="scale(10)"
         id="g188"><text
           id="text192"
           style="font-variant:normal;font-weight:normal;font-size:8px;font-family:'DejaVu Sans';-inkscape-font-specification:DejaVuSans;writing-mode:lr-tb;fill:#000000;fill-opacity:1;fill-rule:nonzero;stroke:none"
           transform="matrix(1,0,0,-1,193.918,17.3477)"><tspan
             id="tspan190"
             y="0"
             x="0 5.0879998 7.6240001 12.712">0.12</tspan></text>
</g><path
         id="path194"
         style="fill:none;stroke:#000000;stroke-width:1.5;stroke-linecap:square;stroke-linejoin:miter;stroke-miterlimit:3.79999995;stroke-dasharray:2, 20;stroke-dashoffset:0;stroke-opacity:1"
         d="m 2390,292.5 v 1760" /><path
         id="path196"
         style="fill:none;stroke:#000000;stroke-width:2.5;stroke-linecap:square;stroke-linejoin:miter;stroke-miterlimit:3.79999995;stroke-dasharray:none;stroke-opacity:1"
         d="m 2390,292.5 v 36.988" /><path
         id="path198"
         style="fill:none;stroke:#000000;stroke-width:2.5;stroke-linecap:square;stroke-linejoin:miter;stroke-miterlimit:3.79999995;stroke-dasharray:none;stroke-opacity:1"
         d="m 2390,2052.5 v -36.99" /><g
         transform="scale(10)"
         id="g200"><text
           id="text204"
           style="font-variant:normal;font-weight:normal;font-size:8px;font-family:'DejaVu Sans';-inkscape-font-specification:DejaVuSans;writing-mode:lr-tb;fill:#000000;fill-opacity:1;fill-rule:nonzero;stroke:none"
           transform="matrix(1,0,0,-1,227.523,17.3477)"><tspan
             id="tspan202"
             y="0"
             x="0 5.0879998 7.6240168 12.712017 17.800016">0.125</tspan></text>
</g><path
         id="path206"
         style="fill:none;stroke:#000000;stroke-width:1.5;stroke-linecap:square;stroke-linejoin:miter;stroke-miterlimit:3.79999995;stroke-dasharray:2, 20;stroke-dashoffset:0;stroke-opacity:1"
         d="m 2751.48,292.5 v 1760" /><path
         id="path208"
         style="fill:none;stroke:#000000;stroke-width:2.5;stroke-linecap:square;stroke-linejoin:miter;stroke-miterlimit:3.79999995;stroke-dasharray:none;stroke-opacity:1"
         d="m 2751.48,292.5 v 36.988" /><path
         id="path210"
         style="fill:none;stroke:#000000;stroke-width:2.5;stroke-linecap:square;stroke-linejoin:miter;stroke-miterlimit:3.79999995;stroke-dasharray:none;stroke-opacity:1"
         d="m 2751.48,2052.5 v -36.99" /><g
         transform="scale(10)"
         id="g212"><text
           id="text216"
           style="font-variant:normal;font-weight:normal;font-size:8px;font-family:'DejaVu Sans';-inkscape-font-specification:DejaVuSans;writing-mode:lr-tb;fill:#000000;fill-opacity:1;fill-rule:nonzero;stroke:none"
           transform="matrix(1,0,0,-1,266.219,17.3477)"><tspan
             id="tspan214"
             y="0"
             x="0 5.0879998 7.6240168 12.712017">0.13</tspan></text>
</g><path
         id="path218"
         style="fill:none;stroke:#000000;stroke-width:2.5;stroke-linecap:square;stroke-linejoin:miter;stroke-miterlimit:3.79999995;stroke-dasharray:none;stroke-opacity:1"
         d="m 582.5,292.5 h 2168.98 v 1760 H 582.5 Z" /><g
         transform="scale(10)"
         id="g220"><text
           id="text224"
           style="font-variant:normal;font-weight:normal;font-size:8px;font-family:'DejaVu Sans';-inkscape-font-specification:DejaVuSans;writing-mode:lr-tb;fill:#000000;fill-opacity:1;fill-rule:nonzero;stroke:none"
           transform="matrix(0,1,1,0,10.3008,95.207)"><tspan
             id="tspan222"
             y="0"
             x="0 3.5199201 8.4399204 13.50392 17.663919 19.879919 24.76792 29.831921 32.36792 35.487919 40.959919">Tensión [V]</tspan></text>
<text
           id="text230"
           style="font-variant:normal;font-weight:normal;font-size:8px;font-family:'DejaVu Sans';-inkscape-font-specification:DejaVuSans;writing-mode:lr-tb;fill:#000000;fill-opacity:1;fill-rule:nonzero;stroke:none"
           transform="matrix(1,0,0,-1,145.422,3.39844)"><tspan
             id="tspan226"
             y="0"
             x="0 4.6320262 6.8480263 11.768026 19.560026 24.632027 29.520027 32.056026 35.176025 39.336025">Tiempo [s]</tspan><tspan
             id="tspan228"
             y="-194.60201"
             x="146.789 151.517 154.63699 159.36501 164.25301 169.31702 172.45302">v(vout)</tspan></text>
</g><path
         id="path232"
         style="fill:none;stroke:#ff0000;stroke-width:2.5;stroke-linecap:square;stroke-linejoin:miter;stroke-miterlimit:3.79999995;stroke-dasharray:none;stroke-opacity:1"
         d="M 3261.48,2006.02 H 3502.5" /><path
         id="path234"
         style="fill:none;stroke:#ff0000;stroke-width:2.5;stroke-linecap:square;stroke-linejoin:miter;stroke-miterlimit:3.79999995;stroke-dasharray:none;stroke-opacity:1"
         d="m 582.5,1218.98 0.512,92.5 h 3.468 l 0.508,92.5 h 7.5 l 0.512,-92.5 h 3.012 l 0.508,-92.5 h 2.5 l 0.46,-92.96 h 2.04 l 0.46,-92.5 h 2.04 l 0.46,-92.5 h 3.008 L 610,848.52 h 9.488 l 0.512,92.5 h 3.98 l 0.508,92.5 h 4.492 l 0.508,92.5 h 5 l 0.512,-92.5 h 3.98 l 0.508,-92.5 h 1.992 l 0.508,-92.5 h 1.992 l 0.508,-93.008 h 1.532 l 0.46,-92.5 h 2.04 l 0.46,-92.5 h 2.5 l 0.508,-92.5 H 662.5 l 0.512,92.5 h 2.5 l 0.508,92.5 h 2.96 l 0.508,92.5 h 2.5 l 0.512,93.008 h 11.02 v -93.008 h 3.98 v -92.5 h 4.488 l 0.512,-92.5 h 6.48 l 0.508,92.5 h 3.012 l 0.512,92.5 H 705 l 0.512,93.008 h 1.476 l 0.512,92.5 h 1.988 l 0.512,92.5 h 1.02 l 0.46,92.5 h 2.04 v 92.96 h 2.96 v 92.5 h 5.508 l 0.512,92.5 h 0.512 v -92.5 h 6.476 l 0.512,-92.5 h 4.488 L 735,1126.02 h 8.012 l 0.508,92.96 h 3.468 l 0.512,92.5 h 2.5 v 92.5 h 2.5 l 0.512,92.5 h 2.5 v 93.01 h 3.976 l 0.512,92.5 h 4.488 l 0.512,-92.5 h 3.98 l 0.508,-93.01 h 3.012 v -92.5 h 2.5 v -92.5 h 3.52 l 0.46,-92.5 h 10.508 l 0.512,92.5 h 3.012 l 0.508,92.5 h 2.5 l 0.46,92.5 h 3.008 l 0.512,93.01 h 10.512 v -93.01 h 3.468 v -92.5 h 3.008 l 0.512,-92.5 h 3.012 v -92.5 h 10.508 l 0.46,92.5 h 3.008 l 0.512,92.5 h 2.5 l 0.512,92.5 h 2.5 l 0.508,93.01 h 12.5 v -93.01 h 2.5 l 0.46,-92.5 h 2.04 l 0.46,-92.5 h 2.04 v -92.5 h 2.96 v -92.96 h 3.52 l 0.512,-92.5 H 875 l 0.512,92.5 h 5 l 0.508,92.96 h 12.5 l 0.46,-92.96 h 2.5 v -92.5 h 2.04 l 0.46,-92.5 h 1.532 l 0.508,-92.5 h 1.992 V 755.512 H 905 l 0.512,-92.5 h 2.5 v -92.5 h 11.476 l 0.512,92.5 h 2.5 l 0.512,92.5 h 3.008 l 0.46,93.008 h 4.032 l 0.508,92.5 h 5.46 l 0.508,-92.5 h 4.032 l 0.46,-93.008 H 945 l 0.512,-92.5 H 950 v -92.5 h 5 v 92.5 h 3.98 l 0.508,92.5 h 1.992 l 0.508,93.008 h 1.992 l 0.508,92.5 h 1.532 l 0.46,92.5 h 1.532 l 0.508,92.5 h 2.5 v 92.96 h 3.468 l 0.512,92.5 h 6.02 l 0.46,-92.5 h 4.032 l 0.508,-92.96 H 990 l 0.512,-92.5 h 10.508 l 0.46,92.5 h 3.01 l 0.51,92.96 h 2.5 v 92.5 h 2.5 v 92.5 h 2.5 l 0.51,92.5 h 12.5 v -92.5 h 3.47 l 0.51,-92.5 h 3.01 l 0.51,-92.5 h 11.48 l 0.51,92.5 h 2.5 l 0.51,92.5 h 1.99 l 0.51,92.5 h 1.99 l 0.51,93.01 h 1.99 l 0.51,92.5 h 3.01 v 92.5 h 9.49 l 0.51,-92.5 h 3.98 v -92.5 h 4.49 l 0.51,-93.01 h 6.99 l 0.51,93.01 h 3.52 l 0.46,92.5 h 2.5 l 0.51,92.5 h 1.99 l 0.51,92.5 h 2.5 l 0.51,93.01 h 4.49 l 0.51,92.5 h 1.99 L 1105,1960 h 4.49 l 0.51,-93.01 h 2.5 l 0.51,-92.5 h 1.99 l 0.51,-92.5 h 1.99 l 0.51,-92.5 h 2.5 l 0.51,-93.01 h 3.47 l 0.51,-92.5 h 6.48 l 0.51,92.5 h 5.51 l 0.51,93.01 h 10 l 0.51,-93.01 h 2.5 l 0.46,-92.5 h 2.04 v -92.5 h 1.99 l 0.51,-92.5 h 1.48 l 0.51,-92.96 h 1.99 v -92.5 h 1.99 l 0.51,-92.5 h 2.5 l 0.51,-92.5 h 10.51 l 0.46,92.5 h 3.52 l 0.51,92.5 h 3.98 l 0.51,92.5 h 7.5 v -92.5 h 3.98 v -92.5 h 2.5 l 0.51,-92.5 h 2.5 l 0.51,-93.008 h 3.52 v -92.5 h 8.98 l 0.51,92.5 h 3.47 v 93.008 h 2.5 l 0.51,92.5 h 2.5 l 0.51,92.5 h 3.52 l 0.46,92.5 h 6.53 l 0.51,-92.5 h 3.47 v -92.5 h 3.01 v -92.5 h 2.5 l 0.51,-93.008 h 3.01 l 0.46,-92.5 h 10.51 l 0.51,92.5 h 3.01 v 93.008 h 3.01 v 92.5 h 3.47 v 92.5 h 11.02 l 0.51,-92.5 h 2.96 l 0.51,-92.5 h 3.01 l 0.51,-93.008 h 5 v -92.5 h 3.01 l 0.46,92.5 h 4.54 v 93.008 h 2.5 v 92.5 h 1.99 l 0.51,92.5 h 1.48 l 0.51,92.5 h 1.99 v 92.96 h 2.5 l 0.51,92.5 h 2.5 l 0.51,92.5 h 10 v -92.5 h 5 l 0.46,-92.5 h 8.52 l 0.51,92.5 h 3.47 v 92.5 h 2.5 l 0.51,92.5 h 1.99 l 0.51,93.01 h 1.99 l 0.51,92.5 h 2.5 v 92.5 h 11.99 l 0.51,-92.5 h 2.5 l 0.51,-92.5 h 2.5 l 0.51,-93.01 h 2.5 v -92.5 h 3.98 l 0.51,-92.5 h 6.48 l 0.51,92.5 h 4.03 l 0.46,92.5 h 4.54 l 0.46,93.01 h 9.03 v -93.01 h 3.01 l 0.46,-92.5 h 2.5 l 0.51,-92.5 h 1.53 l 0.46,-92.5 h 2.04 l 0.46,-92.96 h 2.5 l 0.51,-92.5 h 4.49 v -92.5 h 3.01 l 0.51,92.5 h 4.49 l 0.51,92.5 h 3.01 l 0.51,92.96 h 3.47 v 92.5 h 11.53 v -92.5 h 2.96 l 0.51,-92.96 h 2.5 l 0.51,-92.5 h 2.5 l 0.51,-92.5 h 3.01 l 0.46,-92.5 h 8.01 v 92.5 h 4.03 v 92.5 h 3.47 l 0.51,92.5 h 3.98 v 92.96 h 5.51 l 0.51,-92.96 h 3.98 v -92.5 h 2.5 l 0.51,-92.5 h 1.99 l 0.51,-92.5 h 1.53 l 0.46,-93.008 h 2.04 l 0.46,-92.5 h 3.52 v -92.5 h 7.5 l 0.51,92.5 h 3.47 l 0.51,92.5 h 3.52 v 93.008 h 3.98 l 0.51,92.5 h 6.99 v -92.5 h 4.03 l 0.46,-93.008 h 3.52 v -92.5 h 3.52 l 0.46,-92.5 h 8.01 l 0.51,92.5 h 3.01 v 92.5 h 2.5 l 0.51,93.008 h 0.97 l 0.51,92.5 h 1.99 v 92.5 h 1.99 l 0.51,92.5 h 1.53 l 0.46,92.96 h 3.01 l 0.51,92.5 h 10.51 l 0.51,-92.5 h 6.48 l 0.51,-92.96 h 3.01 l 0.46,92.96 h 4.54 l 0.46,92.5 h 2.5 l 0.51,92.5 h 1.99 v 92.5 h 2.5 v 93.01 h 2.04 l 0.46,92.5 h 2.5 v 92.5 h 12.04 v -92.5 h 2.96 l 0.51,-92.5 h 3.01 v -93.01 h 3.98 v -92.5 h 7.5 l 0.51,92.5 h 3.52 l 0.51,93.01 h 2.96 l 0.51,92.5 h 2.5 l 0.51,92.5 h 12.5 v -92.5 h 3.01 l 0.51,-92.5 h 2.5 l 0.46,-93.01 h 3.01 l 0.51,-92.5 h 10.51 l 0.51,92.5 h 2.96 l 0.51,93.01 h 2.5 l 0.51,92.5 h 2.5 l 0.51,92.5 h 5 v 92.5 h 2.5 v -92.5 h 5.51 v -92.5 h 2.5 l 0.46,-92.5 h 2.04 l 0.46,-93.01 h 2.5 l 0.51,-92.5 h 3.52 l 0.51,-92.5 h 7.96 l 0.51,92.5 h 5 v 92.5 h 13.01 l 0.51,-92.5 h 2.5 l 0.51,-92.5 h 1.48 l 0.51,-92.5 h 1.48 l 0.51,-92.96 h 1.48 l 0.51,-92.5 h 1.53 l 0.46,-92.5 h 2.04 l 0.46,-92.5 h 2.5 l 0.51,-93.008 h 10 l 0.51,93.008 h 3.98 l 0.51,92.5 h 11.99 l 0.51,-92.5 h 2.5 l 0.51,-93.008 h 2.5 l 0.51,-92.5 h 2.5 l 0.51,-92.5 h 2.96 l 0.51,-92.5 h 6.99 l 0.51,92.5 h 3.52 v 92.5 h 2.5 v 92.5 h 1.99 l 0.51,93.008 h 1.99 l 0.51,92.5 h 2.5 l 0.51,92.5 h 5 v 92.5 h 1.99 l 0.51,-92.5 h 5.46 l 0.51,-92.5 h 3.52 l 0.51,-92.5 h 12.5 l 0.46,92.5 h 2.5 l 0.51,92.5 h 1.99 l 0.51,92.5 h 1.99 l 0.51,92.96 h 3.01 v 92.5 h 11.99 v -92.5 h 3.01 l 0.51,-92.96 h 3.01 v -92.5 h 3.47 l 0.51,-92.5 h 6.99 l 0.51,92.5 h 3.52 l 0.46,92.5 h 2.5 v 92.96 h 2.5 v 92.5 h 3.01 v 92.5 h 3.52 v 92.5 h 7.5 l 0.51,-92.5 h 3.98 l 0.51,-92.5 h 3.47 l 0.51,-92.5 H 1940 l 0.51,92.5 h 2.5 l 0.51,92.5 h 2.5 v 92.5 h 1.99 l 0.51,93.01 h 1.99 l 0.51,92.5 h 2.5 l 0.46,92.5 h 10 l 0.51,-92.5 h 3.01 l 0.51,-92.5 h 2.5 v -93.01 h 3.01 l 0.46,-92.5 h 6.02 l 0.51,-92.5 h 0.51 l 0.46,92.5 h 6.53 l 0.51,92.5 h 3.98 l 0.51,93.01 h 10 l 0.51,-93.01 h 2.5 v -92.5 h 2.5 v -92.5 h 1.99 l 0.51,-92.5 h 1.48 v -92.96 h 1.99 l 0.51,-92.5 h 1.99 l 0.51,-92.5 h 2.5 l 0.51,-92.5 h 10 v 92.5 h 3.98 l 0.51,92.5 h 13.52 l 0.46,-92.5 h 2.5 l 0.51,-92.5 h 1.99 l 0.51,-93.008 h 2.5 l 0.51,-92.5 h 3.52 l 0.46,-92.5 h 7.04 v 92.5 h 3.47 l 0.51,92.5 h 2.5 v 93.008 h 2.5 l 0.51,92.5 h 2.5 l 0.51,92.5 h 11.99 l 0.51,-92.5 h 2.96 l 0.51,-92.5 h 2.5 l 0.51,-93.008 h 3.52 l 0.46,-92.5 h 7.5 v 92.5 h 4.03 v 93.008 h 2.5 l 0.51,92.5 h 2.5 l 0.46,92.5 h 3.52 l 0.51,92.5 h 6.99 l 0.51,-92.5 h 3.47 l 0.51,-92.5 h 3.01 l 0.51,-92.5 h 2.5 l 0.51,-93.008 h 10.97 l 0.51,93.008 h 2.5 l 0.51,92.5 h 1.99 l 0.51,92.5 h 1.99 v 92.5 h 1.99 l 0.51,92.96 h 2.5 l 0.51,92.5 h 3.47 v 92.5 h 6.02 l 0.51,-92.5 h 5.51 l 0.46,-92.5 h 10 l 0.51,92.5 h 3.01 l 0.51,92.5 h 1.99 l 0.51,92.5 h 1.48 l 0.51,93.01 h 1.99 v 92.5 h 1.99 l 0.51,92.5 h 1.99 l 0.51,92.5 h 3.01 l 0.51,93.01 h 6.48 l 0.51,-93.01 h 3.52 l 0.46,-92.5 h 3.01 l 0.51,-92.5 h 3.52 l 0.46,-92.5 h 9.54 v 92.5 h 3.98 v 92.5 h 3.52 v 92.5 h 12.5 l 0.46,-92.5 h 2.5 l 0.51,-92.5 h 1.99 l 0.51,-92.5 h 1.53 l 0.46,-93.01 h 2.04 l 0.46,-92.5 h 2.5 l 0.51,-92.5 h 11.99 l 0.51,92.5 h 3.52 l 0.51,92.5 h 3.98 l 0.51,93.01 h 6.48 v -93.01 h 4.03 v -92.5 h 2.5 l 0.46,-92.5 h 2.5 l 0.51,-92.5 h 2.5 l 0.51,-92.96 h 3.52 l 0.46,-92.5 h 6.02 l 0.51,92.5 h 3.98 v 92.96 h 3.52 l 0.51,92.5 h 3.47 l 0.51,92.5 h 7.5 l 0.51,-92.5 h 3.01 l 0.46,-92.5 h 2.04 l 0.46,-92.96 h 2.04 l 0.46,-92.5 h 1.53 l 0.51,-92.5 h 2.5 v -92.5 h 3.47 l 0.51,-93.008 h 8.01 l 0.51,93.008 h 3.98 l 0.51,92.5 h 4.49 l 0.51,92.5 h 5.97 l 0.51,-92.5 h 4.03 v -92.5 h 2.5 l 0.46,-93.008 h 2.04 l 0.46,-92.5 h 2.5 v -92.5 h 3.52 v -92.5 h 8.01 v 92.5 h 3.01 l 0.46,92.5 h 2.04 l 0.46,92.5 h 2.04 l 0.46,93.008 h 2.04 l 0.46,92.5 h 2.5 l 0.51,92.5 h 13.01 l 0.51,-92.5 h 5 l 0.51,-92.5 h 5 l 0.46,92.5 h 4.03 l 0.51,92.5 h 1.99 l 0.51,92.5 h 1.99 l 0.51,92.96 h 1.48 l 0.51,92.5 h 1.99 l 0.51,92.5 h 1.48 l 0.51,92.5 h 3.01 l 0.51,93.01 h 7.5 l 0.46,-93.01 h 4.03 l 0.51,-92.5 h 2.5 l 0.46,-92.5 h 4.54 l 0.46,-92.5 h 6.02 l 0.51,92.5 h 3.98 v 92.5 h 3.01 l 0.51,92.5 h 3.01 v 93.01 h 5 v 92.5 h 3.47 l 0.51,-92.5 h 4.49 l 0.51,-93.01 h 2.5 l 0.51,-92.5 h 2.5 v -92.5 h 3.01 l 0.46,-92.5 h 12.04 v 92.5 h 2.96 l 0.51,92.5 h 2.5 l 0.51,92.5 h 2.5 l 0.51,93.01 h 11.48 l 0.51,-93.01 h 3.01 l 0.51,-92.5 h 2.5 v -92.5 h 3.47 l 0.51,-92.5 h 11.48 v 92.5 h 3.52 l 0.51,92.5 h 3.47 l 0.51,92.5 h 9.49 l 0.51,-92.5 h 2.5 l 0.51,-92.5 h 1.99 l 0.51,-92.5 h 1.48 l 0.51,-92.96 h 1.99 v -92.5 h 2.04 l 0.46,-92.5 h 2.04 l 0.46,-92.5 h 4.03 v -93.008 h 5.51 l 0.46,93.008 h 5.51 l 0.51,92.5 h 12.5 l 0.51,-92.5 h 2.5 v -93.008 h 2.5 v -92.5 h 2.5 l 0.51,-92.5 h 1.99 l 0.51,-92.5 h 2.96 L 2659.49,385 h 6.99 l 0.51,93.012 h 3.52 v 92.5 h 2.5 v 92.5 h 2.5 v 92.5 h 2.5 l 0.51,93.008 h 2.96 l 0.51,92.5 h 9.03 v -92.5 h 4.49 l 0.51,-93.008 h 5 l 0.46,-92.5 h 3.52 l 0.51,92.5 h 3.98 l 0.51,93.008 h 2.5 l 0.51,92.5 h 1.48 l 0.51,92.5 h 2.5 v 92.5 h 1.99 l 0.51,92.96 h 2.5 v 92.5 h 11.99 v -92.5 h 3.52 v -92.96 h 3.47 l 0.51,-92.5 h 9.49" /><path
         id="path236"
         style="fill:none;stroke:#000000;stroke-width:2.5;stroke-linecap:square;stroke-linejoin:miter;stroke-miterlimit:3.79999995;stroke-dasharray:none;stroke-opacity:1"
         d="m 582.5,292.5 h 2168.98 v 1760 H 582.5 Z" /></g></g></svg>