<?xml version="1.0" encoding="UTF-8" standalone="no"?>
<svg
   xmlns:dc="http://purl.org/dc/elements/1.1/"
   xmlns:cc="http://creativecommons.org/ns#"
   xmlns:rdf="http://www.w3.org/1999/02/22-rdf-syntax-ns#"
   xmlns:svg="http://www.w3.org/2000/svg"
   xmlns="http://www.w3.org/2000/svg"
   viewBox="0 0 480 288"
   height="288"
   width="480"
   xml:space="preserve"
   id="svg2"
   version="1.1"><metadata
     id="metadata8"><rdf:RDF><cc:Work
         rdf:about=""><dc:format>image/svg+xml</dc:format><dc:type
           rdf:resource="http://purl.org/dc/dcmitype/StillImage" /></cc:Work></rdf:RDF></metadata><defs
     id="defs6" /><g
     transform="matrix(1.3333333,0,0,-1.3333333,0,288)"
     id="g10"><g
       transform="scale(0.1)"
       id="g12"><path
         id="path14"
         style="fill:none;stroke:#000000;stroke-width:1.5;stroke-linecap:square;stroke-linejoin:miter;stroke-miterlimit:3.79999995;stroke-dasharray:2, 20;stroke-dashoffset:0;stroke-opacity:1"
         d="M 327.5,595 H 2598.52" /><path
         id="path16"
         style="fill:none;stroke:#000000;stroke-width:2.5;stroke-linecap:square;stroke-linejoin:miter;stroke-miterlimit:3.79999995;stroke-dasharray:none;stroke-opacity:1"
         d="m 327.5,595 h 36.988" /><path
         id="path18"
         style="fill:none;stroke:#000000;stroke-width:2.5;stroke-linecap:square;stroke-linejoin:miter;stroke-miterlimit:3.79999995;stroke-dasharray:none;stroke-opacity:1"
         d="m 2598.52,595 h -37.04" /><g
         transform="scale(10)"
         id="g20"><text
           id="text24"
           style="font-variant:normal;font-weight:normal;font-size:8px;font-family:'DejaVu Sans';-inkscape-font-specification:DejaVuSans;writing-mode:lr-tb;fill:#000000;fill-opacity:1;fill-rule:nonzero;stroke:none"
           transform="matrix(1,0,0,-1,17.4453,56.8984)"><tspan
             id="tspan22"
             y="0"
             x="0 5.0879998">20</tspan></text>
</g><path
         id="path26"
         style="fill:none;stroke:#000000;stroke-width:1.5;stroke-linecap:square;stroke-linejoin:miter;stroke-miterlimit:3.79999995;stroke-dasharray:2, 20;stroke-dashoffset:0;stroke-opacity:1"
         d="M 327.5,902.5 H 2598.52" /><path
         id="path28"
         style="fill:none;stroke:#000000;stroke-width:2.5;stroke-linecap:square;stroke-linejoin:miter;stroke-miterlimit:3.79999995;stroke-dasharray:none;stroke-opacity:1"
         d="m 327.5,902.5 h 36.988" /><path
         id="path30"
         style="fill:none;stroke:#000000;stroke-width:2.5;stroke-linecap:square;stroke-linejoin:miter;stroke-miterlimit:3.79999995;stroke-dasharray:none;stroke-opacity:1"
         d="m 2598.52,902.5 h -37.04" /><g
         transform="scale(10)"
         id="g32"><text
           id="text36"
           style="font-variant:normal;font-weight:normal;font-size:8px;font-family:'DejaVu Sans';-inkscape-font-specification:DejaVuSans;writing-mode:lr-tb;fill:#000000;fill-opacity:1;fill-rule:nonzero;stroke:none"
           transform="matrix(1,0,0,-1,17.4453,87.6484)"><tspan
             id="tspan34"
             y="0"
             x="0 5.0879998">22</tspan></text>
</g><path
         id="path38"
         style="fill:none;stroke:#000000;stroke-width:1.5;stroke-linecap:square;stroke-linejoin:miter;stroke-miterlimit:3.79999995;stroke-dasharray:2, 20;stroke-dashoffset:0;stroke-opacity:1"
         d="M 327.5,1210 H 2598.52" /><path
         id="path40"
         style="fill:none;stroke:#000000;stroke-width:2.5;stroke-linecap:square;stroke-linejoin:miter;stroke-miterlimit:3.79999995;stroke-dasharray:none;stroke-opacity:1"
         d="m 327.5,1210 h 36.988" /><path
         id="path42"
         style="fill:none;stroke:#000000;stroke-width:2.5;stroke-linecap:square;stroke-linejoin:miter;stroke-miterlimit:3.79999995;stroke-dasharray:none;stroke-opacity:1"
         d="m 2598.52,1210 h -37.04" /><g
         transform="scale(10)"
         id="g44"><text
           id="text48"
           style="font-variant:normal;font-weight:normal;font-size:8px;font-family:'DejaVu Sans';-inkscape-font-specification:DejaVuSans;writing-mode:lr-tb;fill:#000000;fill-opacity:1;fill-rule:nonzero;stroke:none"
           transform="matrix(1,0,0,-1,17.4453,118.398)"><tspan
             id="tspan46"
             y="0"
             x="0 5.0879998">24</tspan></text>
</g><path
         id="path50"
         style="fill:none;stroke:#000000;stroke-width:1.5;stroke-linecap:square;stroke-linejoin:miter;stroke-miterlimit:3.79999995;stroke-dasharray:2, 20;stroke-dashoffset:0;stroke-opacity:1"
         d="M 327.5,1516.99 H 2598.52" /><path
         id="path52"
         style="fill:none;stroke:#000000;stroke-width:2.5;stroke-linecap:square;stroke-linejoin:miter;stroke-miterlimit:3.79999995;stroke-dasharray:none;stroke-opacity:1"
         d="m 327.5,1516.99 h 36.988" /><path
         id="path54"
         style="fill:none;stroke:#000000;stroke-width:2.5;stroke-linecap:square;stroke-linejoin:miter;stroke-miterlimit:3.79999995;stroke-dasharray:none;stroke-opacity:1"
         d="m 2598.52,1516.99 h -37.04" /><g
         transform="scale(10)"
         id="g56"><text
           id="text60"
           style="font-variant:normal;font-weight:normal;font-size:8px;font-family:'DejaVu Sans';-inkscape-font-specification:DejaVuSans;writing-mode:lr-tb;fill:#000000;fill-opacity:1;fill-rule:nonzero;stroke:none"
           transform="matrix(1,0,0,-1,17.4453,149.098)"><tspan
             id="tspan58"
             y="0"
             x="0 5.0879998">26</tspan></text>
</g><path
         id="path62"
         style="fill:none;stroke:#000000;stroke-width:1.5;stroke-linecap:square;stroke-linejoin:miter;stroke-miterlimit:3.79999995;stroke-dasharray:2, 20;stroke-dashoffset:0;stroke-opacity:1"
         d="M 327.5,1824.49 H 2598.52" /><path
         id="path64"
         style="fill:none;stroke:#000000;stroke-width:2.5;stroke-linecap:square;stroke-linejoin:miter;stroke-miterlimit:3.79999995;stroke-dasharray:none;stroke-opacity:1"
         d="m 327.5,1824.49 h 36.988" /><path
         id="path66"
         style="fill:none;stroke:#000000;stroke-width:2.5;stroke-linecap:square;stroke-linejoin:miter;stroke-miterlimit:3.79999995;stroke-dasharray:none;stroke-opacity:1"
         d="m 2598.52,1824.49 h -37.04" /><g
         transform="scale(10)"
         id="g68"><text
           id="text72"
           style="font-variant:normal;font-weight:normal;font-size:8px;font-family:'DejaVu Sans';-inkscape-font-specification:DejaVuSans;writing-mode:lr-tb;fill:#000000;fill-opacity:1;fill-rule:nonzero;stroke:none"
           transform="matrix(1,0,0,-1,17.4453,179.848)"><tspan
             id="tspan70"
             y="0"
             x="0 5.0879998">28</tspan></text>
</g><path
         id="path74"
         style="fill:none;stroke:#000000;stroke-width:1.5;stroke-linecap:square;stroke-linejoin:miter;stroke-miterlimit:3.79999995;stroke-dasharray:2, 20;stroke-dashoffset:0;stroke-opacity:1"
         d="m 327.5,292.5 v 1760" /><path
         id="path76"
         style="fill:none;stroke:#000000;stroke-width:2.5;stroke-linecap:square;stroke-linejoin:miter;stroke-miterlimit:3.79999995;stroke-dasharray:none;stroke-opacity:1"
         d="m 327.5,292.5 v 18.52" /><path
         id="path78"
         style="fill:none;stroke:#000000;stroke-width:2.5;stroke-linecap:square;stroke-linejoin:miter;stroke-miterlimit:3.79999995;stroke-dasharray:none;stroke-opacity:1"
         d="m 327.5,2052.5 v -18.52" /><path
         id="path80"
         style="fill:none;stroke:#000000;stroke-width:1.5;stroke-linecap:square;stroke-linejoin:miter;stroke-miterlimit:3.79999995;stroke-dasharray:2, 20;stroke-dashoffset:0;stroke-opacity:1"
         d="m 461.02,292.5 v 1760" /><path
         id="path82"
         style="fill:none;stroke:#000000;stroke-width:2.5;stroke-linecap:square;stroke-linejoin:miter;stroke-miterlimit:3.79999995;stroke-dasharray:none;stroke-opacity:1"
         d="m 461.02,292.5 v 18.52" /><path
         id="path84"
         style="fill:none;stroke:#000000;stroke-width:2.5;stroke-linecap:square;stroke-linejoin:miter;stroke-miterlimit:3.79999995;stroke-dasharray:none;stroke-opacity:1"
         d="m 461.02,2052.5 v -18.52" /><path
         id="path86"
         style="fill:none;stroke:#000000;stroke-width:1.5;stroke-linecap:square;stroke-linejoin:miter;stroke-miterlimit:3.79999995;stroke-dasharray:2, 20;stroke-dashoffset:0;stroke-opacity:1"
         d="m 555.512,292.5 v 1760" /><path
         id="path88"
         style="fill:none;stroke:#000000;stroke-width:2.5;stroke-linecap:square;stroke-linejoin:miter;stroke-miterlimit:3.79999995;stroke-dasharray:none;stroke-opacity:1"
         d="m 555.512,292.5 v 18.52" /><path
         id="path90"
         style="fill:none;stroke:#000000;stroke-width:2.5;stroke-linecap:square;stroke-linejoin:miter;stroke-miterlimit:3.79999995;stroke-dasharray:none;stroke-opacity:1"
         d="m 555.512,2052.5 v -18.52" /><path
         id="path92"
         style="fill:none;stroke:#000000;stroke-width:1.5;stroke-linecap:square;stroke-linejoin:miter;stroke-miterlimit:3.79999995;stroke-dasharray:2, 20;stroke-dashoffset:0;stroke-opacity:1"
         d="m 628.52,292.5 v 1760" /><path
         id="path94"
         style="fill:none;stroke:#000000;stroke-width:2.5;stroke-linecap:square;stroke-linejoin:miter;stroke-miterlimit:3.79999995;stroke-dasharray:none;stroke-opacity:1"
         d="m 628.52,292.5 v 18.52" /><path
         id="path96"
         style="fill:none;stroke:#000000;stroke-width:2.5;stroke-linecap:square;stroke-linejoin:miter;stroke-miterlimit:3.79999995;stroke-dasharray:none;stroke-opacity:1"
         d="m 628.52,2052.5 v -18.52" /><path
         id="path98"
         style="fill:none;stroke:#000000;stroke-width:1.5;stroke-linecap:square;stroke-linejoin:miter;stroke-miterlimit:3.79999995;stroke-dasharray:2, 20;stroke-dashoffset:0;stroke-opacity:1"
         d="m 688.52,292.5 v 1760" /><path
         id="path100"
         style="fill:none;stroke:#000000;stroke-width:2.5;stroke-linecap:square;stroke-linejoin:miter;stroke-miterlimit:3.79999995;stroke-dasharray:none;stroke-opacity:1"
         d="m 688.52,292.5 v 18.52" /><path
         id="path102"
         style="fill:none;stroke:#000000;stroke-width:2.5;stroke-linecap:square;stroke-linejoin:miter;stroke-miterlimit:3.79999995;stroke-dasharray:none;stroke-opacity:1"
         d="m 688.52,2052.5 v -18.52" /><path
         id="path104"
         style="fill:none;stroke:#000000;stroke-width:1.5;stroke-linecap:square;stroke-linejoin:miter;stroke-miterlimit:3.79999995;stroke-dasharray:2, 20;stroke-dashoffset:0;stroke-opacity:1"
         d="m 739.488,292.5 v 1760" /><path
         id="path106"
         style="fill:none;stroke:#000000;stroke-width:2.5;stroke-linecap:square;stroke-linejoin:miter;stroke-miterlimit:3.79999995;stroke-dasharray:none;stroke-opacity:1"
         d="m 739.488,292.5 v 18.52" /><path
         id="path108"
         style="fill:none;stroke:#000000;stroke-width:2.5;stroke-linecap:square;stroke-linejoin:miter;stroke-miterlimit:3.79999995;stroke-dasharray:none;stroke-opacity:1"
         d="m 739.488,2052.5 v -18.52" /><path
         id="path110"
         style="fill:none;stroke:#000000;stroke-width:1.5;stroke-linecap:square;stroke-linejoin:miter;stroke-miterlimit:3.79999995;stroke-dasharray:2, 20;stroke-dashoffset:0;stroke-opacity:1"
         d="m 783.52,292.5 v 1760" /><path
         id="path112"
         style="fill:none;stroke:#000000;stroke-width:2.5;stroke-linecap:square;stroke-linejoin:miter;stroke-miterlimit:3.79999995;stroke-dasharray:none;stroke-opacity:1"
         d="m 783.52,292.5 v 18.52" /><path
         id="path114"
         style="fill:none;stroke:#000000;stroke-width:2.5;stroke-linecap:square;stroke-linejoin:miter;stroke-miterlimit:3.79999995;stroke-dasharray:none;stroke-opacity:1"
         d="m 783.52,2052.5 v -18.52" /><path
         id="path116"
         style="fill:none;stroke:#000000;stroke-width:1.5;stroke-linecap:square;stroke-linejoin:miter;stroke-miterlimit:3.79999995;stroke-dasharray:2, 20;stroke-dashoffset:0;stroke-opacity:1"
         d="m 821.988,292.5 v 1760" /><path
         id="path118"
         style="fill:none;stroke:#000000;stroke-width:2.5;stroke-linecap:square;stroke-linejoin:miter;stroke-miterlimit:3.79999995;stroke-dasharray:none;stroke-opacity:1"
         d="m 821.988,292.5 v 18.52" /><path
         id="path120"
         style="fill:none;stroke:#000000;stroke-width:2.5;stroke-linecap:square;stroke-linejoin:miter;stroke-miterlimit:3.79999995;stroke-dasharray:none;stroke-opacity:1"
         d="m 821.988,2052.5 v -18.52" /><path
         id="path122"
         style="fill:none;stroke:#000000;stroke-width:1.5;stroke-linecap:square;stroke-linejoin:miter;stroke-miterlimit:3.79999995;stroke-dasharray:2, 20;stroke-dashoffset:0;stroke-opacity:1"
         d="m 856.48,292.5 v 1760" /><path
         id="path124"
         style="fill:none;stroke:#000000;stroke-width:2.5;stroke-linecap:square;stroke-linejoin:miter;stroke-miterlimit:3.79999995;stroke-dasharray:none;stroke-opacity:1"
         d="m 856.48,292.5 v 36.988" /><path
         id="path126"
         style="fill:none;stroke:#000000;stroke-width:2.5;stroke-linecap:square;stroke-linejoin:miter;stroke-miterlimit:3.79999995;stroke-dasharray:none;stroke-opacity:1"
         d="m 856.48,2052.5 v -36.99" /><g
         transform="scale(10)"
         id="g128"><text
           id="text132"
           style="font-variant:normal;font-weight:normal;font-size:8px;font-family:'DejaVu Sans';-inkscape-font-specification:DejaVuSans;writing-mode:lr-tb;fill:#000000;fill-opacity:1;fill-rule:nonzero;stroke:none"
           transform="matrix(1,0,0,-1,77.9922,17.3477)"><tspan
             id="tspan130"
             y="0"
             x="0 5.0879998 10.176">100</tspan></text>
</g><path
         id="path134"
         style="fill:none;stroke:#000000;stroke-width:1.5;stroke-linecap:square;stroke-linejoin:miter;stroke-miterlimit:3.79999995;stroke-dasharray:2, 20;stroke-dashoffset:0;stroke-opacity:1"
         d="m 1084.49,292.5 v 1760" /><path
         id="path136"
         style="fill:none;stroke:#000000;stroke-width:2.5;stroke-linecap:square;stroke-linejoin:miter;stroke-miterlimit:3.79999995;stroke-dasharray:none;stroke-opacity:1"
         d="m 1084.49,292.5 v 18.52" /><path
         id="path138"
         style="fill:none;stroke:#000000;stroke-width:2.5;stroke-linecap:square;stroke-linejoin:miter;stroke-miterlimit:3.79999995;stroke-dasharray:none;stroke-opacity:1"
         d="m 1084.49,2052.5 v -18.52" /><path
         id="path140"
         style="fill:none;stroke:#000000;stroke-width:1.5;stroke-linecap:square;stroke-linejoin:miter;stroke-miterlimit:3.79999995;stroke-dasharray:2, 20;stroke-dashoffset:0;stroke-opacity:1"
         d="m 1218.01,292.5 v 1760" /><path
         id="path142"
         style="fill:none;stroke:#000000;stroke-width:2.5;stroke-linecap:square;stroke-linejoin:miter;stroke-miterlimit:3.79999995;stroke-dasharray:none;stroke-opacity:1"
         d="m 1218.01,292.5 v 18.52" /><path
         id="path144"
         style="fill:none;stroke:#000000;stroke-width:2.5;stroke-linecap:square;stroke-linejoin:miter;stroke-miterlimit:3.79999995;stroke-dasharray:none;stroke-opacity:1"
         d="m 1218.01,2052.5 v -18.52" /><path
         id="path146"
         style="fill:none;stroke:#000000;stroke-width:1.5;stroke-linecap:square;stroke-linejoin:miter;stroke-miterlimit:3.79999995;stroke-dasharray:2, 20;stroke-dashoffset:0;stroke-opacity:1"
         d="m 1312.5,292.5 v 1760" /><path
         id="path148"
         style="fill:none;stroke:#000000;stroke-width:2.5;stroke-linecap:square;stroke-linejoin:miter;stroke-miterlimit:3.79999995;stroke-dasharray:none;stroke-opacity:1"
         d="m 1312.5,292.5 v 18.52" /><path
         id="path150"
         style="fill:none;stroke:#000000;stroke-width:2.5;stroke-linecap:square;stroke-linejoin:miter;stroke-miterlimit:3.79999995;stroke-dasharray:none;stroke-opacity:1"
         d="m 1312.5,2052.5 v -18.52" /><path
         id="path152"
         style="fill:none;stroke:#000000;stroke-width:1.5;stroke-linecap:square;stroke-linejoin:miter;stroke-miterlimit:3.79999995;stroke-dasharray:2, 20;stroke-dashoffset:0;stroke-opacity:1"
         d="m 1385.51,292.5 v 1760" /><path
         id="path154"
         style="fill:none;stroke:#000000;stroke-width:2.5;stroke-linecap:square;stroke-linejoin:miter;stroke-miterlimit:3.79999995;stroke-dasharray:none;stroke-opacity:1"
         d="m 1385.51,292.5 v 18.52" /><path
         id="path156"
         style="fill:none;stroke:#000000;stroke-width:2.5;stroke-linecap:square;stroke-linejoin:miter;stroke-miterlimit:3.79999995;stroke-dasharray:none;stroke-opacity:1"
         d="m 1385.51,2052.5 v -18.52" /><path
         id="path158"
         style="fill:none;stroke:#000000;stroke-width:1.5;stroke-linecap:square;stroke-linejoin:miter;stroke-miterlimit:3.79999995;stroke-dasharray:2, 20;stroke-dashoffset:0;stroke-opacity:1"
         d="m 1445.51,292.5 v 1760" /><path
         id="path160"
         style="fill:none;stroke:#000000;stroke-width:2.5;stroke-linecap:square;stroke-linejoin:miter;stroke-miterlimit:3.79999995;stroke-dasharray:none;stroke-opacity:1"
         d="m 1445.51,292.5 v 18.52" /><path
         id="path162"
         style="fill:none;stroke:#000000;stroke-width:2.5;stroke-linecap:square;stroke-linejoin:miter;stroke-miterlimit:3.79999995;stroke-dasharray:none;stroke-opacity:1"
         d="m 1445.51,2052.5 v -18.52" /><path
         id="path164"
         style="fill:none;stroke:#000000;stroke-width:1.5;stroke-linecap:square;stroke-linejoin:miter;stroke-miterlimit:3.79999995;stroke-dasharray:2, 20;stroke-dashoffset:0;stroke-opacity:1"
         d="m 1496.48,292.5 v 1760" /><path
         id="path166"
         style="fill:none;stroke:#000000;stroke-width:2.5;stroke-linecap:square;stroke-linejoin:miter;stroke-miterlimit:3.79999995;stroke-dasharray:none;stroke-opacity:1"
         d="m 1496.48,292.5 v 18.52" /><path
         id="path168"
         style="fill:none;stroke:#000000;stroke-width:2.5;stroke-linecap:square;stroke-linejoin:miter;stroke-miterlimit:3.79999995;stroke-dasharray:none;stroke-opacity:1"
         d="m 1496.48,2052.5 v -18.52" /><path
         id="path170"
         style="fill:none;stroke:#000000;stroke-width:1.5;stroke-linecap:square;stroke-linejoin:miter;stroke-miterlimit:3.79999995;stroke-dasharray:2, 20;stroke-dashoffset:0;stroke-opacity:1"
         d="m 1540.51,292.5 v 1760" /><path
         id="path172"
         style="fill:none;stroke:#000000;stroke-width:2.5;stroke-linecap:square;stroke-linejoin:miter;stroke-miterlimit:3.79999995;stroke-dasharray:none;stroke-opacity:1"
         d="m 1540.51,292.5 v 18.52" /><path
         id="path174"
         style="fill:none;stroke:#000000;stroke-width:2.5;stroke-linecap:square;stroke-linejoin:miter;stroke-miterlimit:3.79999995;stroke-dasharray:none;stroke-opacity:1"
         d="m 1540.51,2052.5 v -18.52" /><path
         id="path176"
         style="fill:none;stroke:#000000;stroke-width:1.5;stroke-linecap:square;stroke-linejoin:miter;stroke-miterlimit:3.79999995;stroke-dasharray:2, 20;stroke-dashoffset:0;stroke-opacity:1"
         d="m 1578.98,292.5 v 1760" /><path
         id="path178"
         style="fill:none;stroke:#000000;stroke-width:2.5;stroke-linecap:square;stroke-linejoin:miter;stroke-miterlimit:3.79999995;stroke-dasharray:none;stroke-opacity:1"
         d="m 1578.98,292.5 v 18.52" /><path
         id="path180"
         style="fill:none;stroke:#000000;stroke-width:2.5;stroke-linecap:square;stroke-linejoin:miter;stroke-miterlimit:3.79999995;stroke-dasharray:none;stroke-opacity:1"
         d="m 1578.98,2052.5 v -18.52" /><path
         id="path182"
         style="fill:none;stroke:#000000;stroke-width:1.5;stroke-linecap:square;stroke-linejoin:miter;stroke-miterlimit:3.79999995;stroke-dasharray:2, 20;stroke-dashoffset:0;stroke-opacity:1"
         d="m 1613.52,292.5 v 1760" /><path
         id="path184"
         style="fill:none;stroke:#000000;stroke-width:2.5;stroke-linecap:square;stroke-linejoin:miter;stroke-miterlimit:3.79999995;stroke-dasharray:none;stroke-opacity:1"
         d="m 1613.52,292.5 v 36.988" /><path
         id="path186"
         style="fill:none;stroke:#000000;stroke-width:2.5;stroke-linecap:square;stroke-linejoin:miter;stroke-miterlimit:3.79999995;stroke-dasharray:none;stroke-opacity:1"
         d="m 1613.52,2052.5 v -36.99" /><g
         transform="scale(10)"
         id="g188"><text
           id="text192"
           style="font-variant:normal;font-weight:normal;font-size:8px;font-family:'DejaVu Sans';-inkscape-font-specification:DejaVuSans;writing-mode:lr-tb;fill:#000000;fill-opacity:1;fill-rule:nonzero;stroke:none"
           transform="matrix(1,0,0,-1,151.145,17.3477)"><tspan
             id="tspan190"
             y="0"
             x="0 5.0879998 10.176 15.264">1000</tspan></text>
</g><path
         id="path194"
         style="fill:none;stroke:#000000;stroke-width:1.5;stroke-linecap:square;stroke-linejoin:miter;stroke-miterlimit:3.79999995;stroke-dasharray:2, 20;stroke-dashoffset:0;stroke-opacity:1"
         d="m 1841.48,292.5 v 1760" /><path
         id="path196"
         style="fill:none;stroke:#000000;stroke-width:2.5;stroke-linecap:square;stroke-linejoin:miter;stroke-miterlimit:3.79999995;stroke-dasharray:none;stroke-opacity:1"
         d="m 1841.48,292.5 v 18.52" /><path
         id="path198"
         style="fill:none;stroke:#000000;stroke-width:2.5;stroke-linecap:square;stroke-linejoin:miter;stroke-miterlimit:3.79999995;stroke-dasharray:none;stroke-opacity:1"
         d="m 1841.48,2052.5 v -18.52" /><path
         id="path200"
         style="fill:none;stroke:#000000;stroke-width:1.5;stroke-linecap:square;stroke-linejoin:miter;stroke-miterlimit:3.79999995;stroke-dasharray:2, 20;stroke-dashoffset:0;stroke-opacity:1"
         d="m 1975,292.5 v 1760" /><path
         id="path202"
         style="fill:none;stroke:#000000;stroke-width:2.5;stroke-linecap:square;stroke-linejoin:miter;stroke-miterlimit:3.79999995;stroke-dasharray:none;stroke-opacity:1"
         d="m 1975,292.5 v 18.52" /><path
         id="path204"
         style="fill:none;stroke:#000000;stroke-width:2.5;stroke-linecap:square;stroke-linejoin:miter;stroke-miterlimit:3.79999995;stroke-dasharray:none;stroke-opacity:1"
         d="m 1975,2052.5 v -18.52" /><path
         id="path206"
         style="fill:none;stroke:#000000;stroke-width:1.5;stroke-linecap:square;stroke-linejoin:miter;stroke-miterlimit:3.79999995;stroke-dasharray:2, 20;stroke-dashoffset:0;stroke-opacity:1"
         d="m 2069.49,292.5 v 1760" /><path
         id="path208"
         style="fill:none;stroke:#000000;stroke-width:2.5;stroke-linecap:square;stroke-linejoin:miter;stroke-miterlimit:3.79999995;stroke-dasharray:none;stroke-opacity:1"
         d="m 2069.49,292.5 v 18.52" /><path
         id="path210"
         style="fill:none;stroke:#000000;stroke-width:2.5;stroke-linecap:square;stroke-linejoin:miter;stroke-miterlimit:3.79999995;stroke-dasharray:none;stroke-opacity:1"
         d="m 2069.49,2052.5 v -18.52" /><path
         id="path212"
         style="fill:none;stroke:#000000;stroke-width:1.5;stroke-linecap:square;stroke-linejoin:miter;stroke-miterlimit:3.79999995;stroke-dasharray:2, 20;stroke-dashoffset:0;stroke-opacity:1"
         d="m 2142.5,292.5 v 1760" /><path
         id="path214"
         style="fill:none;stroke:#000000;stroke-width:2.5;stroke-linecap:square;stroke-linejoin:miter;stroke-miterlimit:3.79999995;stroke-dasharray:none;stroke-opacity:1"
         d="m 2142.5,292.5 v 18.52" /><path
         id="path216"
         style="fill:none;stroke:#000000;stroke-width:2.5;stroke-linecap:square;stroke-linejoin:miter;stroke-miterlimit:3.79999995;stroke-dasharray:none;stroke-opacity:1"
         d="m 2142.5,2052.5 v -18.52" /><path
         id="path218"
         style="fill:none;stroke:#000000;stroke-width:1.5;stroke-linecap:square;stroke-linejoin:miter;stroke-miterlimit:3.79999995;stroke-dasharray:2, 20;stroke-dashoffset:0;stroke-opacity:1"
         d="m 2202.5,292.5 v 1760" /><path
         id="path220"
         style="fill:none;stroke:#000000;stroke-width:2.5;stroke-linecap:square;stroke-linejoin:miter;stroke-miterlimit:3.79999995;stroke-dasharray:none;stroke-opacity:1"
         d="m 2202.5,292.5 v 18.52" /><path
         id="path222"
         style="fill:none;stroke:#000000;stroke-width:2.5;stroke-linecap:square;stroke-linejoin:miter;stroke-miterlimit:3.79999995;stroke-dasharray:none;stroke-opacity:1"
         d="m 2202.5,2052.5 v -18.52" /><path
         id="path224"
         style="fill:none;stroke:#000000;stroke-width:1.5;stroke-linecap:square;stroke-linejoin:miter;stroke-miterlimit:3.79999995;stroke-dasharray:2, 20;stroke-dashoffset:0;stroke-opacity:1"
         d="m 2253.52,292.5 v 1760" /><path
         id="path226"
         style="fill:none;stroke:#000000;stroke-width:2.5;stroke-linecap:square;stroke-linejoin:miter;stroke-miterlimit:3.79999995;stroke-dasharray:none;stroke-opacity:1"
         d="m 2253.52,292.5 v 18.52" /><path
         id="path228"
         style="fill:none;stroke:#000000;stroke-width:2.5;stroke-linecap:square;stroke-linejoin:miter;stroke-miterlimit:3.79999995;stroke-dasharray:none;stroke-opacity:1"
         d="m 2253.52,2052.5 v -18.52" /><path
         id="path230"
         style="fill:none;stroke:#000000;stroke-width:1.5;stroke-linecap:square;stroke-linejoin:miter;stroke-miterlimit:3.79999995;stroke-dasharray:2, 20;stroke-dashoffset:0;stroke-opacity:1"
         d="m 2297.5,292.5 v 1760" /><path
         id="path232"
         style="fill:none;stroke:#000000;stroke-width:2.5;stroke-linecap:square;stroke-linejoin:miter;stroke-miterlimit:3.79999995;stroke-dasharray:none;stroke-opacity:1"
         d="m 2297.5,292.5 v 18.52" /><path
         id="path234"
         style="fill:none;stroke:#000000;stroke-width:2.5;stroke-linecap:square;stroke-linejoin:miter;stroke-miterlimit:3.79999995;stroke-dasharray:none;stroke-opacity:1"
         d="m 2297.5,2052.5 v -18.52" /><path
         id="path236"
         style="fill:none;stroke:#000000;stroke-width:1.5;stroke-linecap:square;stroke-linejoin:miter;stroke-miterlimit:3.79999995;stroke-dasharray:2, 20;stroke-dashoffset:0;stroke-opacity:1"
         d="m 2336.02,292.5 v 1760" /><path
         id="path238"
         style="fill:none;stroke:#000000;stroke-width:2.5;stroke-linecap:square;stroke-linejoin:miter;stroke-miterlimit:3.79999995;stroke-dasharray:none;stroke-opacity:1"
         d="m 2336.02,292.5 v 18.52" /><path
         id="path240"
         style="fill:none;stroke:#000000;stroke-width:2.5;stroke-linecap:square;stroke-linejoin:miter;stroke-miterlimit:3.79999995;stroke-dasharray:none;stroke-opacity:1"
         d="m 2336.02,2052.5 v -18.52" /><path
         id="path242"
         style="fill:none;stroke:#000000;stroke-width:1.5;stroke-linecap:square;stroke-linejoin:miter;stroke-miterlimit:3.79999995;stroke-dasharray:2, 20;stroke-dashoffset:0;stroke-opacity:1"
         d="m 2370.51,292.5 v 1760" /><path
         id="path244"
         style="fill:none;stroke:#000000;stroke-width:2.5;stroke-linecap:square;stroke-linejoin:miter;stroke-miterlimit:3.79999995;stroke-dasharray:none;stroke-opacity:1"
         d="m 2370.51,292.5 v 36.988" /><path
         id="path246"
         style="fill:none;stroke:#000000;stroke-width:2.5;stroke-linecap:square;stroke-linejoin:miter;stroke-miterlimit:3.79999995;stroke-dasharray:none;stroke-opacity:1"
         d="m 2370.51,2052.5 v -36.99" /><g
         transform="scale(10)"
         id="g248"><text
           id="text252"
           style="font-variant:normal;font-weight:normal;font-size:8px;font-family:'DejaVu Sans';-inkscape-font-specification:DejaVuSans;writing-mode:lr-tb;fill:#000000;fill-opacity:1;fill-rule:nonzero;stroke:none"
           transform="matrix(1,0,0,-1,224.301,17.3477)"><tspan
             id="tspan250"
             y="0"
             x="0 5.0879998 10.176 15.264 20.351999">10000</tspan></text>
</g><path
         id="path254"
         style="fill:none;stroke:#000000;stroke-width:1.5;stroke-linecap:square;stroke-linejoin:miter;stroke-miterlimit:3.79999995;stroke-dasharray:2, 20;stroke-dashoffset:0;stroke-opacity:1"
         d="m 2598.52,292.5 v 1760" /><path
         id="path256"
         style="fill:none;stroke:#000000;stroke-width:2.5;stroke-linecap:square;stroke-linejoin:miter;stroke-miterlimit:3.79999995;stroke-dasharray:none;stroke-opacity:1"
         d="m 2598.52,292.5 v 18.52" /><path
         id="path258"
         style="fill:none;stroke:#000000;stroke-width:2.5;stroke-linecap:square;stroke-linejoin:miter;stroke-miterlimit:3.79999995;stroke-dasharray:none;stroke-opacity:1"
         d="m 2598.52,2052.5 v -18.52" /><path
         id="path260"
         style="fill:none;stroke:#000000;stroke-width:2.5;stroke-linecap:square;stroke-linejoin:miter;stroke-miterlimit:3.79999995;stroke-dasharray:none;stroke-opacity:1"
         d="m 327.5,292.5 h 2271.02 v 1760 H 327.5 Z" /><g
         transform="scale(10)"
         id="g262"><text
           id="text266"
           style="font-variant:normal;font-weight:normal;font-size:8px;font-family:'DejaVu Sans';-inkscape-font-specification:DejaVuSans;writing-mode:lr-tb;fill:#000000;fill-opacity:1;fill-rule:nonzero;stroke:none"
           transform="matrix(0,1,1,0,10.3008,95.207)"><tspan
             id="tspan264"
             y="0"
             x="0 3.5199201 8.4399204 13.50392 17.663919 19.879919 24.76792 29.831921 32.36792 35.487919 40.959919">Tensión [V]</tspan></text>
<text
           id="text272"
           style="font-variant:normal;font-weight:normal;font-size:8px;font-family:'DejaVu Sans';-inkscape-font-specification:DejaVuSans;writing-mode:lr-tb;fill:#000000;fill-opacity:1;fill-rule:nonzero;stroke:none"
           transform="matrix(1,0,0,-1,141.168,3.39844)"><tspan
             id="tspan268"
             y="0"
             x="0 6.0079999">Hz</tspan><tspan
             id="tspan270"
             y="-194.60201"
             x="137.73 142.802 147.87399 150.994 155.722 163.51401 166.634 171.36201 173.57802 176.69801">db(vm(vl))</tspan></text>
</g><path
         id="path274"
         style="fill:none;stroke:#ff0000;stroke-width:2.5;stroke-linecap:square;stroke-linejoin:miter;stroke-miterlimit:3.79999995;stroke-dasharray:none;stroke-opacity:1"
         d="M 3261.48,2006.02 H 3502.5" /><path
         id="path276"
         style="fill:none;stroke:#ff0000;stroke-width:2.5;stroke-linecap:square;stroke-linejoin:miter;stroke-miterlimit:3.79999995;stroke-dasharray:none;stroke-opacity:1"
         d="m 327.5,372.5 7.5,33.52 7.5,33.468 7.5,33.012 8.012,33.012 15,65 15,63.976 7.5,31.532 7.5,30.968 8.008,31.024 7.5,30.968 7.5,30.508 15,60 7.5,29.492 7.5,29.54 7.96,28.98 7.5,28.98 7.5,28.52 15,56.02 7.5,27.5 7.5,26.99 8.008,26.99 7.5,26.48 7.5,26.53 7.5,25.51 7.5,25.97 15,50 7.5,24.49 8.012,24.03 7.5,23.98 7.5,23.52 7.5,23.01 15,45 7.5,21.99 8.012,21.48 7.5,21.02 7.5,20.51 7.5,20.46 7.5,20 7.5,19.03 7.5,18.98 8.008,18.52 7.5,18.01 7.5,17.96 7.5,17.04 15,32.96 7.5,15.51 7.96,15.51 15,28.98 15,27.04 7.5,12.96 7.5,12.04 8.008,11.99 7.5,10.97 7.5,11.02 15,20 7.5,8.98 7.5,9.03 23.012,23.01 7.5,6.48 7.5,6.02 7.5,5.46 7.5,5 8.012,5 7.5,4.03 7.5,3.47 7.5,3.01 7.5,2.5 7.5,1.99 7.5,1.53 7.5,1.48 8.008,0.51 h 7.5 l 15,-1.02 15,-2.96 7.5,-2.5 7.96,-2.5 7.5,-3.01 7.5,-3.52 7.5,-3.98 7.5,-4.03 15,-10 8.01,-5.46 7.5,-5.51 7.5,-6.02 7.5,-6.48 7.5,-6.99 7.5,-7.04 7.5,-7.5 8.01,-7.96 15,-16.02 7.5,-8.98 7.5,-8.52 7.5,-8.98 7.5,-9.54 8.01,-8.98 7.5,-10 7.5,-9.49 15,-20 7.5,-10.51 7.5,-10 8.01,-10.51 7.5,-10.51 7.5,-10.46 15,-21.02 7.5,-11.02 7.5,-10.46 7.96,-10.51 7.5,-11.02 7.5,-10.51 7.5,-10.46 30,-42.04 8.01,-10 7.5,-10 7.5,-10.46 7.5,-9.54 7.5,-10 15,-18.98 8.01,-9.49 7.5,-9.03 15,-17.96 15,-17.04 7.5,-8.47 8.01,-8.01 15,-16.02 15,-15 15,-13.98 8.01,-6.99 7.5,-6.53 15,-12.96 15,-12.04 7.5,-5.97 7.96,-5.51 7.5,-5.51 22.5,-15 7.5,-4.49 7.5,-5 8.01,-3.98 7.5,-4.54 15,-7.96 7.5,-4.03 7.5,-3.47 7.5,-3.52 8.01,-3.52 7.5,-3.47 22.5,-9.03 7.5,-2.96 7.5,-2.5 7.5,-3.01 8.01,-2.5 7.5,-2.5 7.5,-1.99 7.5,-2.5 7.5,-2.04 15,-3.98 8.01,-1.99 7.5,-1.53 7.5,-1.99 7.5,-1.48 7.5,-1.53 7.5,-1.99 7.5,-0.97 7.96,-1.53 7.5,-1.48 7.5,-1.53 7.5,-0.97 7.5,-1.02 7.5,-1.48 7.5,-1.02 8.01,-0.97 15,-2.04 7.5,-0.97 7.5,-0.51 7.5,-1.02 7.5,-0.97 8.01,-0.51 7.5,-1.02 7.5,-0.46 7.5,-0.51 7.5,-1.02 7.5,-0.51 7.5,-0.46 8.01,-0.51 22.5,-1.53 7.5,-0.46 15,-1.02 8.01,-0.51 7.5,-0.51 h 7.5 l 7.5,-0.46 7.5,-0.51 h 7.5 l 15,-1.02 h 7.96 l 7.5,-0.51 h 7.5 l 7.5,-0.46 h 7.5 l 7.5,-0.51 h 7.5 l 8.01,-0.51 h 15 l 7.5,-0.51 h 15 l 7.5,-0.51 h 23.01 l 7.5,-0.46 h 22.5 l 8.01,-0.51 h 30 l 7.5,-0.51 h 53.01 l 7.5,-0.51 h 98.47 l 7.5,-0.51 h 136.53 l 7.5,0.51" /><path
         id="path278"
         style="fill:none;stroke:#000000;stroke-width:2.5;stroke-linecap:square;stroke-linejoin:miter;stroke-miterlimit:3.79999995;stroke-dasharray:none;stroke-opacity:1"
         d="m 327.5,292.5 h 2271.02 v 1760 H 327.5 Z" /></g></g></svg>