<?xml version="1.0" encoding="UTF-8" standalone="no"?>
<svg
   xmlns:dc="http://purl.org/dc/elements/1.1/"
   xmlns:cc="http://creativecommons.org/ns#"
   xmlns:rdf="http://www.w3.org/1999/02/22-rdf-syntax-ns#"
   xmlns:svg="http://www.w3.org/2000/svg"
   xmlns="http://www.w3.org/2000/svg"
   viewBox="0 0 480 288"
   height="288"
   width="480"
   xml:space="preserve"
   id="svg2"
   version="1.1"><metadata
     id="metadata8"><rdf:RDF><cc:Work
         rdf:about=""><dc:format>image/svg+xml</dc:format><dc:type
           rdf:resource="http://purl.org/dc/dcmitype/StillImage" /></cc:Work></rdf:RDF></metadata><defs
     id="defs6" /><g
     transform="matrix(1.3333333,0,0,-1.3333333,0,288)"
     id="g10"><g
       transform="scale(0.1)"
       id="g12"><path
         id="path14"
         style="fill:none;stroke:#000000;stroke-width:1.5;stroke-linecap:square;stroke-linejoin:miter;stroke-miterlimit:3.79999995;stroke-dasharray:2, 20;stroke-dashoffset:0;stroke-opacity:1"
         d="m 327.5,378.98 h 2475" /><path
         id="path16"
         style="fill:none;stroke:#000000;stroke-width:2.5;stroke-linecap:square;stroke-linejoin:miter;stroke-miterlimit:3.79999995;stroke-dasharray:none;stroke-opacity:1"
         d="m 327.5,378.98 h 36.988" /><path
         id="path18"
         style="fill:none;stroke:#000000;stroke-width:2.5;stroke-linecap:square;stroke-linejoin:miter;stroke-miterlimit:3.79999995;stroke-dasharray:none;stroke-opacity:1"
         d="m 2802.5,378.98 h -36.99" /><g
         transform="scale(10)"
         id="g20"><text
           id="text24"
           style="font-variant:normal;font-weight:normal;font-size:8px;font-family:'DejaVu Sans';-inkscape-font-specification:DejaVuSans;writing-mode:lr-tb;fill:#000000;fill-opacity:1;fill-rule:nonzero;stroke:none"
           transform="matrix(1,0,0,-1,19.6484,35.3008)"><tspan
             id="tspan22"
             y="0"
             x="0 2.8800001">-3</tspan></text>
</g><path
         id="path26"
         style="fill:none;stroke:#000000;stroke-width:1.5;stroke-linecap:square;stroke-linejoin:miter;stroke-miterlimit:3.79999995;stroke-dasharray:2, 20;stroke-dashoffset:0;stroke-opacity:1"
         d="m 327.5,645.512 h 2475" /><path
         id="path28"
         style="fill:none;stroke:#000000;stroke-width:2.5;stroke-linecap:square;stroke-linejoin:miter;stroke-miterlimit:3.79999995;stroke-dasharray:none;stroke-opacity:1"
         d="m 327.5,645.512 h 36.988" /><path
         id="path30"
         style="fill:none;stroke:#000000;stroke-width:2.5;stroke-linecap:square;stroke-linejoin:miter;stroke-miterlimit:3.79999995;stroke-dasharray:none;stroke-opacity:1"
         d="m 2802.5,645.512 h -36.99" /><g
         transform="scale(10)"
         id="g32"><text
           id="text36"
           style="font-variant:normal;font-weight:normal;font-size:8px;font-family:'DejaVu Sans';-inkscape-font-specification:DejaVuSans;writing-mode:lr-tb;fill:#000000;fill-opacity:1;fill-rule:nonzero;stroke:none"
           transform="matrix(1,0,0,-1,19.6484,61.9492)"><tspan
             id="tspan34"
             y="0"
             x="0 2.8800001">-2</tspan></text>
</g><path
         id="path38"
         style="fill:none;stroke:#000000;stroke-width:1.5;stroke-linecap:square;stroke-linejoin:miter;stroke-miterlimit:3.79999995;stroke-dasharray:2, 20;stroke-dashoffset:0;stroke-opacity:1"
         d="m 327.5,911.988 h 2475" /><path
         id="path40"
         style="fill:none;stroke:#000000;stroke-width:2.5;stroke-linecap:square;stroke-linejoin:miter;stroke-miterlimit:3.79999995;stroke-dasharray:none;stroke-opacity:1"
         d="m 327.5,911.988 h 36.988" /><path
         id="path42"
         style="fill:none;stroke:#000000;stroke-width:2.5;stroke-linecap:square;stroke-linejoin:miter;stroke-miterlimit:3.79999995;stroke-dasharray:none;stroke-opacity:1"
         d="m 2802.5,911.988 h -36.99" /><g
         transform="scale(10)"
         id="g44"><text
           id="text48"
           style="font-variant:normal;font-weight:normal;font-size:8px;font-family:'DejaVu Sans';-inkscape-font-specification:DejaVuSans;writing-mode:lr-tb;fill:#000000;fill-opacity:1;fill-rule:nonzero;stroke:none"
           transform="matrix(1,0,0,-1,19.6484,88.5977)"><tspan
             id="tspan46"
             y="0"
             x="0 2.8800001">-1</tspan></text>
</g><path
         id="path50"
         style="fill:none;stroke:#000000;stroke-width:1.5;stroke-linecap:square;stroke-linejoin:miter;stroke-miterlimit:3.79999995;stroke-dasharray:2, 20;stroke-dashoffset:0;stroke-opacity:1"
         d="m 327.5,1178.98 h 2475" /><path
         id="path52"
         style="fill:none;stroke:#000000;stroke-width:2.5;stroke-linecap:square;stroke-linejoin:miter;stroke-miterlimit:3.79999995;stroke-dasharray:none;stroke-opacity:1"
         d="m 327.5,1178.98 h 36.988" /><path
         id="path54"
         style="fill:none;stroke:#000000;stroke-width:2.5;stroke-linecap:square;stroke-linejoin:miter;stroke-miterlimit:3.79999995;stroke-dasharray:none;stroke-opacity:1"
         d="m 2802.5,1178.98 h -36.99" /><g
         transform="scale(10)"
         id="g56"><text
           id="text60"
           style="font-variant:normal;font-weight:normal;font-size:8px;font-family:'DejaVu Sans';-inkscape-font-specification:DejaVuSans;writing-mode:lr-tb;fill:#000000;fill-opacity:1;fill-rule:nonzero;stroke:none"
           transform="matrix(1,0,0,-1,22.5352,115.301)"><tspan
             id="tspan58"
             y="0"
             x="0">0</tspan></text>
</g><path
         id="path62"
         style="fill:none;stroke:#000000;stroke-width:1.5;stroke-linecap:square;stroke-linejoin:miter;stroke-miterlimit:3.79999995;stroke-dasharray:2, 20;stroke-dashoffset:0;stroke-opacity:1"
         d="m 327.5,1445.51 h 2475" /><path
         id="path64"
         style="fill:none;stroke:#000000;stroke-width:2.5;stroke-linecap:square;stroke-linejoin:miter;stroke-miterlimit:3.79999995;stroke-dasharray:none;stroke-opacity:1"
         d="m 327.5,1445.51 h 36.988" /><path
         id="path66"
         style="fill:none;stroke:#000000;stroke-width:2.5;stroke-linecap:square;stroke-linejoin:miter;stroke-miterlimit:3.79999995;stroke-dasharray:none;stroke-opacity:1"
         d="m 2802.5,1445.51 h -36.99" /><g
         transform="scale(10)"
         id="g68"><text
           id="text72"
           style="font-variant:normal;font-weight:normal;font-size:8px;font-family:'DejaVu Sans';-inkscape-font-specification:DejaVuSans;writing-mode:lr-tb;fill:#000000;fill-opacity:1;fill-rule:nonzero;stroke:none"
           transform="matrix(1,0,0,-1,22.5352,141.949)"><tspan
             id="tspan70"
             y="0"
             x="0">1</tspan></text>
</g><path
         id="path74"
         style="fill:none;stroke:#000000;stroke-width:1.5;stroke-linecap:square;stroke-linejoin:miter;stroke-miterlimit:3.79999995;stroke-dasharray:2, 20;stroke-dashoffset:0;stroke-opacity:1"
         d="m 327.5,1711.99 h 2475" /><path
         id="path76"
         style="fill:none;stroke:#000000;stroke-width:2.5;stroke-linecap:square;stroke-linejoin:miter;stroke-miterlimit:3.79999995;stroke-dasharray:none;stroke-opacity:1"
         d="m 327.5,1711.99 h 36.988" /><path
         id="path78"
         style="fill:none;stroke:#000000;stroke-width:2.5;stroke-linecap:square;stroke-linejoin:miter;stroke-miterlimit:3.79999995;stroke-dasharray:none;stroke-opacity:1"
         d="m 2802.5,1711.99 h -36.99" /><g
         transform="scale(10)"
         id="g80"><text
           id="text84"
           style="font-variant:normal;font-weight:normal;font-size:8px;font-family:'DejaVu Sans';-inkscape-font-specification:DejaVuSans;writing-mode:lr-tb;fill:#000000;fill-opacity:1;fill-rule:nonzero;stroke:none"
           transform="matrix(1,0,0,-1,22.5352,168.598)"><tspan
             id="tspan82"
             y="0"
             x="0">2</tspan></text>
</g><path
         id="path86"
         style="fill:none;stroke:#000000;stroke-width:1.5;stroke-linecap:square;stroke-linejoin:miter;stroke-miterlimit:3.79999995;stroke-dasharray:2, 20;stroke-dashoffset:0;stroke-opacity:1"
         d="m 327.5,1978.52 h 2475" /><path
         id="path88"
         style="fill:none;stroke:#000000;stroke-width:2.5;stroke-linecap:square;stroke-linejoin:miter;stroke-miterlimit:3.79999995;stroke-dasharray:none;stroke-opacity:1"
         d="m 327.5,1978.52 h 36.988" /><path
         id="path90"
         style="fill:none;stroke:#000000;stroke-width:2.5;stroke-linecap:square;stroke-linejoin:miter;stroke-miterlimit:3.79999995;stroke-dasharray:none;stroke-opacity:1"
         d="m 2802.5,1978.52 h -36.99" /><g
         transform="scale(10)"
         id="g92"><text
           id="text96"
           style="font-variant:normal;font-weight:normal;font-size:8px;font-family:'DejaVu Sans';-inkscape-font-specification:DejaVuSans;writing-mode:lr-tb;fill:#000000;fill-opacity:1;fill-rule:nonzero;stroke:none"
           transform="matrix(1,0,0,-1,22.5352,195.25)"><tspan
             id="tspan94"
             y="0"
             x="0">3</tspan></text>
</g><path
         id="path98"
         style="fill:none;stroke:#000000;stroke-width:1.5;stroke-linecap:square;stroke-linejoin:miter;stroke-miterlimit:3.79999995;stroke-dasharray:2, 20;stroke-dashoffset:0;stroke-opacity:1"
         d="m 326.02,292.5 v 1760" /><path
         id="path100"
         style="fill:none;stroke:#000000;stroke-width:1.5;stroke-linecap:square;stroke-linejoin:miter;stroke-miterlimit:3.79999995;stroke-dasharray:2, 20;stroke-dashoffset:0;stroke-opacity:1"
         d="m 698.012,292.5 v 1760" /><path
         id="path102"
         style="fill:none;stroke:#000000;stroke-width:2.5;stroke-linecap:square;stroke-linejoin:miter;stroke-miterlimit:3.79999995;stroke-dasharray:none;stroke-opacity:1"
         d="m 698.012,292.5 v 36.988" /><path
         id="path104"
         style="fill:none;stroke:#000000;stroke-width:2.5;stroke-linecap:square;stroke-linejoin:miter;stroke-miterlimit:3.79999995;stroke-dasharray:none;stroke-opacity:1"
         d="m 698.012,2052.5 v -36.99" /><g
         transform="scale(10)"
         id="g106"><text
           id="text110"
           style="font-variant:normal;font-weight:normal;font-size:8px;font-family:'DejaVu Sans';-inkscape-font-specification:DejaVuSans;writing-mode:lr-tb;fill:#000000;fill-opacity:1;fill-rule:nonzero;stroke:none"
           transform="matrix(1,0,0,-1,55.7773,17.3477)"><tspan
             id="tspan108"
             y="0"
             x="0 5.0879998 7.6240001 12.712 17.799999 22.888">0.1005</tspan></text>
</g><path
         id="path112"
         style="fill:none;stroke:#000000;stroke-width:1.5;stroke-linecap:square;stroke-linejoin:miter;stroke-miterlimit:3.79999995;stroke-dasharray:2, 20;stroke-dashoffset:0;stroke-opacity:1"
         d="m 1069.49,292.5 v 1760" /><path
         id="path114"
         style="fill:none;stroke:#000000;stroke-width:2.5;stroke-linecap:square;stroke-linejoin:miter;stroke-miterlimit:3.79999995;stroke-dasharray:none;stroke-opacity:1"
         d="m 1069.49,292.5 v 36.988" /><path
         id="path116"
         style="fill:none;stroke:#000000;stroke-width:2.5;stroke-linecap:square;stroke-linejoin:miter;stroke-miterlimit:3.79999995;stroke-dasharray:none;stroke-opacity:1"
         d="m 1069.49,2052.5 v -36.99" /><g
         transform="scale(10)"
         id="g118"><text
           id="text122"
           style="font-variant:normal;font-weight:normal;font-size:8px;font-family:'DejaVu Sans';-inkscape-font-specification:DejaVuSans;writing-mode:lr-tb;fill:#000000;fill-opacity:1;fill-rule:nonzero;stroke:none"
           transform="matrix(1,0,0,-1,95.4727,17.3477)"><tspan
             id="tspan120"
             y="0"
             x="0 5.0879998 7.6240001 12.712 17.799999">0.101</tspan></text>
</g><path
         id="path124"
         style="fill:none;stroke:#000000;stroke-width:1.5;stroke-linecap:square;stroke-linejoin:miter;stroke-miterlimit:3.79999995;stroke-dasharray:2, 20;stroke-dashoffset:0;stroke-opacity:1"
         d="m 1441.48,292.5 v 1760" /><path
         id="path126"
         style="fill:none;stroke:#000000;stroke-width:2.5;stroke-linecap:square;stroke-linejoin:miter;stroke-miterlimit:3.79999995;stroke-dasharray:none;stroke-opacity:1"
         d="m 1441.48,292.5 v 36.988" /><path
         id="path128"
         style="fill:none;stroke:#000000;stroke-width:2.5;stroke-linecap:square;stroke-linejoin:miter;stroke-miterlimit:3.79999995;stroke-dasharray:none;stroke-opacity:1"
         d="m 1441.48,2052.5 v -36.99" /><g
         transform="scale(10)"
         id="g130"><text
           id="text134"
           style="font-variant:normal;font-weight:normal;font-size:8px;font-family:'DejaVu Sans';-inkscape-font-specification:DejaVuSans;writing-mode:lr-tb;fill:#000000;fill-opacity:1;fill-rule:nonzero;stroke:none"
           transform="matrix(1,0,0,-1,130.129,17.3477)"><tspan
             id="tspan132"
             y="0"
             x="0 5.0879998 7.6240001 12.712 17.799999 22.888">0.1015</tspan></text>
</g><path
         id="path136"
         style="fill:none;stroke:#000000;stroke-width:1.5;stroke-linecap:square;stroke-linejoin:miter;stroke-miterlimit:3.79999995;stroke-dasharray:2, 20;stroke-dashoffset:0;stroke-opacity:1"
         d="m 1813.52,292.5 v 1760" /><path
         id="path138"
         style="fill:none;stroke:#000000;stroke-width:2.5;stroke-linecap:square;stroke-linejoin:miter;stroke-miterlimit:3.79999995;stroke-dasharray:none;stroke-opacity:1"
         d="m 1813.52,292.5 v 36.988" /><path
         id="path140"
         style="fill:none;stroke:#000000;stroke-width:2.5;stroke-linecap:square;stroke-linejoin:miter;stroke-miterlimit:3.79999995;stroke-dasharray:none;stroke-opacity:1"
         d="m 1813.52,2052.5 v -36.99" /><g
         transform="scale(10)"
         id="g142"><text
           id="text146"
           style="font-variant:normal;font-weight:normal;font-size:8px;font-family:'DejaVu Sans';-inkscape-font-specification:DejaVuSans;writing-mode:lr-tb;fill:#000000;fill-opacity:1;fill-rule:nonzero;stroke:none"
           transform="matrix(1,0,0,-1,169.875,17.3477)"><tspan
             id="tspan144"
             y="0"
             x="0 5.0879998 7.6240001 12.712 17.799999">0.102</tspan></text>
</g><path
         id="path148"
         style="fill:none;stroke:#000000;stroke-width:1.5;stroke-linecap:square;stroke-linejoin:miter;stroke-miterlimit:3.79999995;stroke-dasharray:2, 20;stroke-dashoffset:0;stroke-opacity:1"
         d="m 2185,292.5 v 1760" /><path
         id="path150"
         style="fill:none;stroke:#000000;stroke-width:2.5;stroke-linecap:square;stroke-linejoin:miter;stroke-miterlimit:3.79999995;stroke-dasharray:none;stroke-opacity:1"
         d="m 2185,292.5 v 36.988" /><path
         id="path152"
         style="fill:none;stroke:#000000;stroke-width:2.5;stroke-linecap:square;stroke-linejoin:miter;stroke-miterlimit:3.79999995;stroke-dasharray:none;stroke-opacity:1"
         d="m 2185,2052.5 v -36.99" /><g
         transform="scale(10)"
         id="g154"><text
           id="text158"
           style="font-variant:normal;font-weight:normal;font-size:8px;font-family:'DejaVu Sans';-inkscape-font-specification:DejaVuSans;writing-mode:lr-tb;fill:#000000;fill-opacity:1;fill-rule:nonzero;stroke:none"
           transform="matrix(1,0,0,-1,204.48,17.3477)"><tspan
             id="tspan156"
             y="0"
             x="0 5.0879998 7.6240168 12.712017 17.800016 22.888016">0.1025</tspan></text>
</g><path
         id="path160"
         style="fill:none;stroke:#000000;stroke-width:1.5;stroke-linecap:square;stroke-linejoin:miter;stroke-miterlimit:3.79999995;stroke-dasharray:2, 20;stroke-dashoffset:0;stroke-opacity:1"
         d="m 2556.99,292.5 v 1760" /><path
         id="path162"
         style="fill:none;stroke:#000000;stroke-width:2.5;stroke-linecap:square;stroke-linejoin:miter;stroke-miterlimit:3.79999995;stroke-dasharray:none;stroke-opacity:1"
         d="m 2556.99,292.5 v 36.988" /><path
         id="path164"
         style="fill:none;stroke:#000000;stroke-width:2.5;stroke-linecap:square;stroke-linejoin:miter;stroke-miterlimit:3.79999995;stroke-dasharray:none;stroke-opacity:1"
         d="m 2556.99,2052.5 v -36.99" /><g
         transform="scale(10)"
         id="g166"><text
           id="text170"
           style="font-variant:normal;font-weight:normal;font-size:8px;font-family:'DejaVu Sans';-inkscape-font-specification:DejaVuSans;writing-mode:lr-tb;fill:#000000;fill-opacity:1;fill-rule:nonzero;stroke:none"
           transform="matrix(1,0,0,-1,244.223,17.3477)"><tspan
             id="tspan168"
             y="0"
             x="0 5.0879998 7.6240168 12.712017 17.800016">0.103</tspan></text>
</g><path
         id="path172"
         style="fill:none;stroke:#000000;stroke-width:2.5;stroke-linecap:square;stroke-linejoin:miter;stroke-miterlimit:3.79999995;stroke-dasharray:none;stroke-opacity:1"
         d="m 327.5,292.5 h 2475 v 1760 h -2475 z" /><g
         transform="scale(10)"
         id="g174"><text
           id="text178"
           style="font-variant:normal;font-weight:normal;font-size:8px;font-family:'DejaVu Sans';-inkscape-font-specification:DejaVuSans;writing-mode:lr-tb;fill:#000000;fill-opacity:1;fill-rule:nonzero;stroke:none"
           transform="matrix(0,1,1,0,10.3008,95.207)"><tspan
             id="tspan176"
             y="0"
             x="0 3.5199201 8.4399204 13.50392 17.663919 19.879919 24.76792 29.831921 32.36792 35.487919 40.959919">Tensión [V]</tspan></text>
<text
           id="text184"
           style="font-variant:normal;font-weight:normal;font-size:8px;font-family:'DejaVu Sans';-inkscape-font-specification:DejaVuSans;writing-mode:lr-tb;fill:#000000;fill-opacity:1;fill-rule:nonzero;stroke:none"
           transform="matrix(1,0,0,-1,135.223,3.39844)"><tspan
             id="tspan180"
             y="0"
             x="0 4.6320262 6.8480263 11.768026 19.560026 24.632027 29.520027 32.056026 35.176025 39.336025">Tiempo [s]</tspan><tspan
             id="tspan182"
             y="-194.60201"
             x="162.797 167.52499 170.645 175.373 177.589 182.65302">v(vin)</tspan></text>
</g><path
         id="path186"
         style="fill:none;stroke:#ff0000;stroke-width:2.5;stroke-linecap:square;stroke-linejoin:miter;stroke-miterlimit:3.79999995;stroke-dasharray:none;stroke-opacity:1"
         d="M 3261.48,2006.02 H 3502.5" /><path
         id="path188"
         style="fill:none;stroke:#ff0000;stroke-width:2.5;stroke-linecap:square;stroke-linejoin:miter;stroke-miterlimit:3.79999995;stroke-dasharray:none;stroke-opacity:1"
         d="m 327.5,1179.49 1.988,0.51 2.5,1.02 1.992,0.46 2.5,1.02 2.04,1.02 2.5,0.46 1.992,1.02 2.5,0.51 1.988,0.97 2.5,0.51 1.988,1.02 2.5,0.51 1.992,0.97 2.04,0.51 2.5,0.51 1.992,0.97 2.5,0.51 1.988,0.51 2.5,0.51 1.988,0.97 2.5,0.51 1.992,0.51 2.5,0.51 2.04,0.51 2.5,0.46 1.992,0.51 h 1.988 l 2.5,0.51 1.988,0.51 2.5,0.51 h 1.992 l 2.5,0.46 h 2.04 l 2.5,0.51 h 4.492 L 410,1200 h 18.012 l 1.988,-0.51 h 4.488 l 2.5,-0.51 h 1.992 l 2.5,-0.46 h 2.04 l 2.5,-0.51 3.98,-1.02 h 2.5 l 1.988,-0.51 2.5,-0.46 1.992,-0.51 2.5,-0.51 2.04,-0.51 2.5,-0.97 1.992,-0.51 2.5,-0.51 1.988,-0.51 2.5,-0.51 1.988,-0.97 1.992,-0.51 2.5,-0.51 2.04,-0.97 2.5,-0.51 1.992,-1.02 2.5,-0.51 1.988,-0.97 2.5,-0.51 1.988,-1.02 2.5,-0.46 1.992,-1.02 2.5,-1.02 2.04,-0.46 1.992,-1.02 2.5,-0.51 1.988,-0.97 1.988,-0.51 1.992,-1.02 2.04,-0.51 2.5,-0.97 1.992,-0.51 2.5,-1.02 1.988,-0.97 2.5,-0.51 1.988,-1.02 2.5,-0.46 1.992,-1.02 2.04,-0.51 2.5,-0.97 1.992,-0.51 2.5,-0.51 1.988,-1.02 2.5,-0.46 1.988,-0.51 2.5,-0.51 1.992,-1.02 2.5,-0.46 2.04,-0.51 2.5,-0.51 3.98,-1.02 2.5,-0.46 1.988,-0.51 2.5,-0.51 h 1.992 l 2.5,-0.51 2.04,-0.51 h 2.5 l 1.992,-0.46 h 2.5 l 1.988,-0.51 h 4.488 l 1.992,-0.51 h 18.008 l 2.5,0.51 h 1.992 l 2.5,0.51 h 2.04 l 1.992,0.46 h 2.5 l 1.988,0.51 h 2.5 l 1.988,0.51 2.5,0.51 1.992,0.51 2.5,0.46 2.04,0.51 2.5,0.51 1.992,0.51 2.5,0.51 1.988,0.46 1.988,0.51 2.5,0.51 1.992,1.02 2.5,0.46 2.04,0.51 2.5,1.02 1.992,0.51 2.5,0.46 1.988,1.02 2.5,0.51 1.988,0.97 2.5,0.51 1.992,1.02 2.04,0.97 2.5,0.51 1.992,1.02 2.5,0.51 1.988,0.97 2.5,0.51 1.988,1.02 2.5,0.97 1.992,0.51 2.5,1.02 2.04,0.46 2.5,1.02 1.992,1.02 1.988,0.46 2.5,1.02 1.988,0.51 2.5,0.97 1.992,0.51 2.5,1.02 2.04,0.51 2.5,0.97 1.992,0.51 2.5,0.51 1.988,0.97 2.5,0.51 3.98,1.02 2.5,0.97 2.04,0.51 2.5,0.51 1.992,0.51 2.5,0.51 1.988,0.46 2.5,0.51 h 1.988 l 2.5,0.51 1.992,0.51 2.5,0.51 h 2.04 l 2.5,0.46 h 1.992 l 1.988,0.51 h 4.488 l 2.5,0.51 H 800 l 1.988,-0.51 h 4.492 l 2.04,-0.51 h 2.5 l 1.992,-0.46 h 2.5 l 1.988,-0.51 2.5,-0.51 1.988,-0.51 h 2.5 l 1.992,-0.51 2.5,-0.46 2.04,-0.51 1.992,-0.51 2.5,-0.51 1.988,-0.97 2.5,-0.51 1.988,-0.51 2.5,-0.51 1.992,-0.51 2.5,-0.97 2.04,-0.51 2.5,-0.51 1.992,-0.97 2.5,-0.51 1.988,-1.02 1.988,-0.51 2.5,-0.97 1.992,-0.51 2.5,-1.02 2.04,-0.46 2.5,-1.02 1.992,-1.02 2.5,-0.46 1.988,-1.02 2.5,-0.51 1.48,-0.97 2.04,-0.51 2.5,-1.02 1.992,-0.51 1.988,-0.97 2.5,-0.51 1.988,-1.02 2.5,-0.97 1.992,-0.51 2.5,-1.02 2.04,-0.46 2.5,-1.02 1.992,-0.51 2.5,-0.97 1.988,-0.51 2.5,-0.51 1.988,-1.02 1.992,-0.46 2.5,-0.51 2.04,-0.51 2.5,-1.02 1.992,-0.46 2.5,-0.51 1.988,-0.51 2.5,-0.51 1.988,-0.51 2.5,-0.46 1.992,-0.51 2.5,-0.51 h 2.04 l 1.992,-0.51 2.5,-0.51 H 955 l 2.5,-0.46 h 1.988 l 2.5,-0.51 h 4.492 l 2.04,-0.51 h 17.96 l 2.04,0.51 h 2.5 l 1.992,0.51 h 2.5 l 1.988,0.46 h 2.5 l 1.99,0.51 h 2.5 l 1.99,0.51 2.04,0.51 2.5,0.51 1.99,0.46 2.5,0.51 1.99,0.51 2.5,0.51 1.99,0.51 2.5,0.46 1.99,0.51 2.5,0.51 2.04,1.02 2.5,0.46 1.99,0.51 1.99,1.02 2.5,0.51 1.99,0.46 2.5,1.02 1.99,0.51 2.5,0.97 2.04,0.51 2.5,1.02 1.99,0.97 2.5,0.51 1.99,1.02 2.5,0.51 1.99,0.97 1.99,0.51 2.5,1.02 2.04,0.97 2.5,0.51 1.99,1.02 2.5,0.46 1.99,1.02 2.5,1.02 1.99,0.46 2.5,1.02 1.99,0.51 2.5,0.97 2.04,0.51 2.5,1.02 1.99,0.51 1.99,0.97 2.5,0.51 1.99,0.51 2.5,0.97 1.99,0.51 2.5,0.51 2.04,0.51 2.5,0.97 1.99,0.51 2.5,0.51 1.99,0.51 2.5,0.51 1.99,0.46 1.99,0.51 h 2.5 l 2.04,0.51 2.5,0.51 1.99,0.51 h 2.5 l 1.99,0.46 h 2.5 l 1.99,0.51 h 4.49 l 2.5,0.51 h 17.5 l 2.5,-0.51 h 4.54 l 1.99,-0.51 h 2.5 l 1.99,-0.46 h 1.99 l 2.5,-0.51 1.99,-0.51 2.5,-0.51 h 2.04 l 2.5,-0.51 1.99,-0.46 2.5,-0.51 1.99,-0.51 2.5,-0.51 1.99,-0.97 2.5,-0.51 1.99,-0.51 2.04,-0.51 2.5,-0.51 1.99,-0.97 2.5,-0.51 1.99,-0.51 2.5,-0.97 1.99,-0.51 2.5,-1.02 1.99,-0.51 2.5,-0.97 2.04,-0.51 2.5,-1.02 1.99,-0.46 1.99,-1.02 2.5,-1.02 1.99,-0.46 2.5,-1.02 1.99,-0.51 2.04,-0.97 1.99,-0.51 1.99,-1.02 2.5,-0.51 1.99,-0.97 2.5,-0.51 1.99,-1.02 2.5,-0.97 2.04,-0.51 1.99,-1.02 2.5,-0.46 1.99,-1.02 2.5,-0.51 1.99,-0.97 2.5,-0.51 1.99,-0.51 2.5,-1.02 2.04,-0.46 2.5,-0.51 1.99,-0.51 2.5,-1.02 1.99,-0.46 1.99,-0.51 2.5,-0.51 1.99,-0.51 2.5,-0.51 2.04,-0.46 2.5,-0.51 1.99,-0.51 h 2.5 l 1.99,-0.51 2.5,-0.51 h 1.99 l 2.5,-0.46 h 1.99 l 2.04,-0.51 h 4.49 l 2.5,-0.51 h 18.01 l 1.99,0.51 h 1.99 l 2.5,0.51 h 1.99 l 2.5,0.46 h 1.99 l 2.5,0.51 h 2.04 l 2.5,0.51 1.99,0.51 2.5,0.51 1.99,0.46 2.5,0.51 1.99,0.51 2.5,0.51 1.99,0.51 2.04,0.46 2.5,0.51 1.99,0.51 2.5,1.02 1.99,0.46 2.5,0.51 1.99,1.02 2.5,0.51 1.99,0.46 2.5,1.02 2.04,0.51 2.5,0.97 1.99,0.51 1.99,1.02 2.5,0.97 1.99,0.51 2.5,1.02 1.99,0.51 2.5,0.97 2.04,0.51 2.5,1.02 1.99,0.97 2.5,0.51 1.99,1.02 2.5,0.46 3.98,2.04 2.5,0.46 2.04,1.02 2.5,0.51 1.99,0.97 2.5,0.51 1.99,1.02 2.5,0.51 1.99,0.97 2.5,0.51 1.99,0.51 2.5,0.97 2.04,0.51 1.99,0.51 2.5,0.51 1.99,0.97 2.5,0.51 1.99,0.51 2.5,0.51 1.99,0.51 2.5,0.46 2.04,0.51 h 2.5 l 1.99,0.51 2.5,0.51 1.99,0.51 h 1.99 l 2.5,0.46 h 1.99 l 2.5,0.51 h 4.54 l 1.99,0.51 h 18.01 l 1.99,-0.51 h 4.49 l 2.5,-0.51 h 1.99 l 2.5,-0.46 h 1.99 l 2.5,-0.51 2.04,-0.51 2.5,-0.51 h 1.99 l 1.99,-0.51 2.5,-0.46 1.99,-0.51 2.5,-0.51 1.99,-0.51 2.5,-0.97 2.04,-0.51 2.5,-0.51 1.99,-0.51 2.5,-0.51 1.99,-0.97 2.5,-0.51 1.99,-0.51 1.99,-0.97 2.5,-0.51 2.04,-1.02 2.5,-0.51 1.99,-0.97 2.5,-0.51 1.99,-1.02 2.5,-0.46 1.99,-1.02 2.5,-1.02 1.99,-0.46 2.5,-1.02 2.04,-0.51 1.99,-0.97 1.99,-0.51 1.99,-1.02 1.99,-0.51 2.5,-0.97 2.04,-0.51 2.5,-1.02 1.99,-0.97 2.5,-0.51 1.99,-1.02 2.5,-0.46 1.99,-1.02 2.5,-0.51 1.99,-0.97 2.04,-0.51 2.5,-0.51 1.99,-1.02 2.5,-0.46 1.99,-0.51 2.5,-0.51 1.99,-1.02 2.5,-0.46 1.99,-0.51 2.5,-0.51 2.04,-0.51 2.5,-0.51 1.99,-0.46 1.99,-0.51 2.5,-0.51 h 1.99 l 2.5,-0.51 1.99,-0.51 h 2.5 l 2.04,-0.46 h 2.5 l 1.99,-0.51 h 4.49 l 2.5,-0.51 h 17.5 l 2.5,0.51 h 1.99 l 2.5,0.51 h 1.99 l 2.5,0.46 h 2.04 l 2.5,0.51 h 1.99 l 1.99,0.51 2.5,0.51 1.99,0.51 2.5,0.46 1.99,0.51 2.5,0.51 2.04,0.51 2.5,0.51 1.99,0.46 2.5,0.51 1.99,0.51 2.5,1.02 1.99,0.46 1.99,0.51 2.5,1.02 2.04,0.51 2.5,0.46 1.99,1.02 2.5,0.51 1.99,0.97 2.5,0.51 1.99,1.02 2.5,0.97 1.99,0.51 2.5,1.02 2.04,0.51 1.99,0.97 2.5,0.51 1.99,1.02 2.5,0.97 1.99,0.51 2.5,1.02 1.99,0.46 2.5,1.02 2.04,1.02 2.5,0.46 1.99,1.02 2.5,0.51 1.99,0.97 1.99,0.51 2.5,1.02 1.99,0.51 2.5,0.97 2.04,0.51 2.5,0.51 1.99,0.97 2.5,0.51 1.99,0.51 2.5,0.51 1.99,0.97 2.5,0.51 1.99,0.51 2.04,0.51 2.5,0.51 1.99,0.46 2.5,0.51 h 1.99 l 2.5,0.51 1.99,0.51 2.5,0.51 h 1.99 l 2.5,0.46 h 2.04 l 2.5,0.51 h 3.98 l 2.5,0.51 h 18.01 l 1.99,-0.51 h 4.49 l 2.5,-0.51 h 1.99 l 2.04,-0.46 h 2.5 l 1.99,-0.51 2.5,-0.51 1.99,-0.51 h 2.5 l 1.99,-0.51 2.5,-0.46 1.99,-0.51 2.5,-0.51 2.04,-0.51 2.5,-0.97 3.98,-1.02 2.5,-0.51 1.99,-0.51 2.5,-0.97 1.99,-0.51 2.5,-0.51 2.04,-0.97 2.5,-0.51 1.99,-1.02 2.5,-0.51 1.99,-0.97 2.5,-0.51 1.99,-1.02 1.99,-0.46 2.5,-1.02 2.04,-1.02 2.5,-0.46 1.99,-1.02 2.5,-0.51 1.48,-0.97 1.99,-0.51 2.5,-1.02 2.04,-0.51 2.5,-0.97 1.99,-0.51 2.5,-1.02 1.99,-0.97 1.99,-0.51 2.5,-1.02 1.99,-0.46 2.5,-1.02 2.04,-0.51 2.5,-0.97 1.99,-0.51 2.5,-0.51 1.99,-1.02 2.5,-0.46 1.99,-0.51 2.5,-0.51 1.99,-1.02 2.04,-0.46 2.5,-0.51 1.99,-0.51 2.5,-0.51 1.99,-0.51 2.5,-0.46 1.99,-0.51 2.5,-0.51 h 1.99 l 2.5,-0.51 2.04,-0.51 h 2.5 l 1.99,-0.46 h 1.99 l 2.5,-0.51 h 4.49 l 1.99,-0.51 h 18.01 l 1.99,0.51 h 2.5 l 2.04,0.51 h 2.5 l 1.99,0.46 h 2.5 l 1.99,0.51 h 2.5 l 1.99,0.51 2.5,0.51 1.99,0.51 2.5,0.46 2.04,0.51 1.99,0.51 2.5,0.51 1.99,0.51 2.5,0.46 1.99,0.51 2.5,0.51 1.99,1.02 2.5,0.46 2.04,0.51 2.5,1.02 1.99,0.51 2.5,0.46 1.99,1.02 1.99,0.51 2.5,0.97 1.99,0.51 2.5,1.02 2.04,0.97 2.5,0.51 1.99,1.02 2.5,0.51 1.99,0.97 2.5,0.51 1.99,1.02 2.5,0.97 1.99,0.51 2.04,1.02 2.5,0.46 1.99,1.02 2.5,1.02 1.99,0.46 2.5,1.02 1.99,0.51 2.5,0.97 1.99,0.51 2.5,1.02 2.04,0.51 2.5,0.97 3.98,1.02 2.5,0.97 1.99,0.51 2.5,0.51 1.99,0.51 2.5,0.97 2.04,0.51 2.5,0.51 1.99,0.51 2.5,0.51 1.99,0.46 2.5,0.51 h 1.99 l 2.5,0.51 1.99,0.51 2.04,0.51 h 2.5 l 1.99,0.46 h 2.5 l 1.99,0.51 h 4.49 l 2.5,0.51 h 17.5 l 2.5,-0.51 h 4.49 l 2.04,-0.51 h 2.5 l 1.99,-0.46 h 2.5 l 1.99,-0.51 2.5,-0.51 1.99,-0.51 h 1.99 l 2.5,-0.51 2.04,-0.46 2.5,-0.51 1.99,-0.51 2.5,-0.51 1.99,-0.97 2.5,-0.51 1.99,-0.51 2.5,-0.51 1.99,-0.51 2.5,-0.97 2.04,-0.51 1.99,-0.51 2.5,-0.97 1.99,-0.51 2.5,-1.02 1.99,-0.51 2.5,-0.97 1.99,-0.51 2.5,-1.02 2.04,-0.46 2.5,-1.02 1.99,-1.02 2.5,-0.46 1.99,-1.02 1.99,-0.51 1.99,-0.97 2.04,-0.51 1.99,-1.02 2.5,-0.51 1.99,-0.97 2.5,-0.51 1.99,-1.02 2.5,-0.97 1.99,-0.51 2.5,-1.02 2.04,-0.46 2.5,-1.02 1.99,-0.51 1.99,-0.97 2.5,-0.51 1.99,-0.51 2.5,-1.02 1.99,-0.46 2.5,-0.51 2.04,-0.51 2.5,-1.02 1.99,-0.46 2.5,-0.51 1.99,-0.51 2.5,-0.51 1.99,-0.51 1.99,-0.46 2.5,-0.51 2.04,-0.51 h 2.5 l 1.99,-0.51 2.5,-0.51 h 1.99 l 2.5,-0.46 h 1.99 l 2.5,-0.51 h 4.49 l 2.04,-0.51 h 17.96 l 2.04,0.51 h 2.5 l 1.99,0.51 h 2.5 l 1.99,0.46 h 1.99 l 2.5,0.51 h 1.99 l 2.5,0.51 2.04,0.51 2.5,0.51 1.99,0.46 2.5,0.51 1.99,0.51 2.5,0.51 1.99,0.51 2.5,0.46 1.99,0.51 2.04,0.51 2.5,1.02 1.99,0.46 2.5,0.51 1.99,1.02 2.5,0.51 1.99,0.46 2.5,1.02 1.99,0.51 2.5,0.97 2.04,0.51 2.5,1.02 1.99,0.97 1.99,0.51 2.5,1.02 1.99,0.51 2.5,0.97 1.99,0.51 2.5,1.02 2.04,0.97 2.5,0.51 1.99,1.02 2.5,0.46 1.99,1.02 2.5,1.02 1.99,0.46 2.5,1.02 1.99,0.51 2.04,0.97 2.5,0.51 1.99,1.02 2.5,0.51 1.99,0.97 2.5,0.51 1.99,0.51 2.5,0.97 1.99,0.51 2.5,0.51 2.04,0.51 2.5,0.97 3.98,1.02 2.5,0.51 1.99,0.51 2.5,0.46 1.99,0.51 h 2.5 l 2.04,0.51 2.5,0.51 1.99,0.51 h 2.5 l 1.99,0.46 h 2.5 l 1.99,0.51 h 4.49 l 2.04,0.51 h 17.96 l 2.5,-0.51 h 4.03 l 2.5,-0.51 h 1.99 l 2.5,-0.46 h 1.99 l 2.5,-0.51 1.99,-0.51 2.5,-0.51 h 2.04 l 2.5,-0.51 1.99,-0.46 2.5,-0.51 3.98,-1.02 2.5,-0.97 1.99,-0.51 2.5,-0.51 2.04,-0.51 2.5,-0.51 1.99,-0.97 2.5,-0.51 1.99,-0.51 2.5,-0.97 1.99,-0.51 2.5,-1.02 1.99,-0.51 2.04,-0.97 2.5,-0.51 1.99,-1.02 2.5,-0.46 1.99,-1.02 2.5,-1.02 1.99,-0.46 2.5,-1.02 1.99,-0.51 2.04,-0.97 1.99,-0.51 1.99,-1.02 2.5,-0.51 1.99,-0.97 1.99,-0.51 2.5,-1.02 2.04,-0.97 2.5,-0.51 1.99,-1.02 2.5,-0.46 1.99,-1.02 2.5,-0.51 1.99,-0.97 2.5,-0.51 1.99,-0.51 2.5,-1.02 2.04,-0.46 1.99,-0.51 2.5,-0.51 1.99,-1.02 2.5,-0.46 1.99,-0.51 2.5,-0.51 1.99,-0.51 2.5,-0.51 2.04,-0.46 h 1.48" /><g
         transform="scale(10)"
         id="g190"><text
           id="text194"
           style="font-variant:normal;font-weight:normal;font-size:8px;font-family:'DejaVu Sans';-inkscape-font-specification:DejaVuSans;writing-mode:lr-tb;fill:#000000;fill-opacity:1;fill-rule:nonzero;stroke:none"
           transform="matrix(1,0,0,-1,303.09,188.699)"><tspan
             id="tspan192"
             y="0"
             x="0 4.7280002 7.848 12.576 14.792">v(vl)</tspan></text>
</g><path
         id="path196"
         style="fill:none;stroke:#00ff00;stroke-width:2.5;stroke-linecap:square;stroke-linejoin:miter;stroke-miterlimit:3.79999995;stroke-dasharray:none;stroke-opacity:1"
         d="M 3261.48,1913.01 H 3502.5" /><path
         id="path198"
         style="fill:none;stroke:#00ff00;stroke-width:2.5;stroke-linecap:square;stroke-linejoin:miter;stroke-miterlimit:3.79999995;stroke-dasharray:none;stroke-opacity:1"
         d="m 327.5,1235 1.988,28.01 2.5,31.48 1.992,28.52 2.5,30.51 2.04,27.96 2.5,30 1.992,27.5 2.5,29.03 1.988,27.5 2.5,28.01 1.988,26.48 2.5,26.99 1.992,25 2.04,26.02 2.5,23.98 1.992,25 2.5,22.5 1.988,23.01 2.5,21.48 1.988,21.53 2.5,20 1.992,19.49 2.5,18.52 2.04,17.5 2.5,16.48 1.992,16.02 1.988,14.49 2.5,13.98 1.988,12.5 2.5,11.99 1.992,10 2.5,10 2.04,8.01 2.5,6.53 1.992,5 2.5,3.47 1.988,1.99 2.5,1.02 h 1.988 l 1.992,-0.51 2.5,-0.97 2.04,-1.02 2.5,-1.99 1.992,-1.99 2.5,-3.52 1.988,-3.98 2.5,-5.51 1.988,-6.99 2.5,-9.54 1.992,-10 2.5,-11.99 2.04,-12.5 2.5,-13.98 1.992,-14.49 1.988,-15.51 2.5,-16.53 1.988,-17.96 2.5,-18.52 1.992,-18.98 2.5,-20.51 2.04,-21.02 2.5,-21.48 1.992,-23.01 2.5,-23.01 1.988,-23.98 2.5,-25 1.988,-25 1.992,-26.02 2.5,-26.48 2.04,-26.99 2.5,-27.5 1.992,-27.5 2.5,-28.52 1.988,-28.52 2.5,-28.98 1.988,-28.98 2.5,-29.54 1.992,-29.49 2.5,-29.49 2.04,-30 1.992,-29.49 2.5,-26.99 1.988,-35.51 1.988,-15 1.992,-40.51 2.04,-21.02 2.5,-37.96 1.992,-24.03 2.5,-35.002 1.988,-25.508 2.5,-32.5 1.988,-25.968 2.5,-31.024 1.992,-25.508 2.04,-29.492 2.5,-24.488 1.992,-28.52 2.5,-23.468 1.988,-26.532 2.5,-22.5 1.988,-25 2.5,-20.968 1.992,-23.524 2.5,-19.488 2.04,-21.48 2.5,-18.008 1.992,-20 1.988,-16.024 2.5,-17.5 1.988,-14.488 2.5,-15.512 1.992,-12.5 2.5,-13.468 2.04,-10.508 2.5,-11.024 1.992,-8.468 2.5,-8.52 1.988,-6.48 2.5,-6.532 1.988,-3.976 1.992,-4.032 2.5,-1.992 2.04,-1.988 h 2.5 l 1.992,1.02 2.5,1.992 1.988,3.008 2.5,4.492 1.988,5.508 2.5,6.48 1.992,8.012 2.5,8.468 2.04,10 1.992,11.02 2.5,11.988 1.988,13.012 2.5,14.488 1.988,15 2.5,16.532 1.992,16.48 2.5,18.52 2.04,18.468 2.5,20.512 1.992,20 2.5,22.5 1.988,21.48 1.988,24.032 2.5,23.008 1.992,25.46 2.5,24.54 2.04,26.992 2.5,25.508 1.992,28.468 2.5,26.532 1.988,29.492 2.5,26.988 1.988,30.512 2.5,28.008 1.992,31.48 2.04,28.01 2.5,32.5 1.992,28.01 2.5,32.96 1.988,27.5 2.5,33.52 1.988,27.5 2.5,32.5 1.992,28.01 2.5,31.48 2.04,28.52 2.5,30.51 1.992,27.96 1.988,30 2.5,27.5 1.988,29.03 2.5,27.5 1.992,28.01 2.5,26.48 2.04,26.99 2.5,25 1.992,26.02 2.5,23.98 1.988,25 2.5,22.5 1.988,23.01 1.992,21.48 2.5,21.53 2.04,20 2.5,19.49 1.992,18.52 2.5,17.5 1.988,16.48 2.5,16.02 1.988,14.49 2.5,13.98 1.992,12.5 2.5,11.99 2.04,10 2.5,10 1.992,8.01 1.988,6.53 2.5,5 1.988,3.47 2.5,1.99 1.992,1.02 h 2.5 l 2.04,-0.51 2.5,-0.97 1.992,-1.02 2.5,-1.99 1.988,-1.99 2.5,-3.52 1.988,-3.98 1.992,-5.51 2.5,-6.99 2.04,-9.54 2.5,-10 1.992,-11.99 2.5,-12.5 1.988,-13.98 2.5,-14.49 1.988,-15.51 2.5,-16.53 1.992,-17.96 2.5,-18.52 2.04,-18.98 1.992,-20.51 2.5,-21.02 1.988,-21.48 2.5,-23.01 1.988,-23.01 2.5,-23.98 1.992,-25 2.5,-25 2.04,-26.02 2.5,-26.48 1.992,-26.99 2.5,-27.5 1.988,-27.5 1.988,-28.52 2.5,-28.52 1.992,-28.98 2.5,-28.98 2.04,-29.54 2.5,-29.49 1.992,-29.49 2.5,-30 1.988,-29.49 2.5,-26.99 1.48,-35.51 2.04,-15 2.5,-40.51 1.992,-21.02 1.988,-37.96 2.5,-24.03 1.988,-35.002 2.5,-25.508 1.992,-32.5 2.5,-25.968 2.04,-31.024 2.5,-25.508 1.992,-29.492 2.5,-24.488 1.988,-28.52 2.5,-23.468 1.988,-26.532 1.992,-22.5 2.5,-25 2.04,-20.968 2.5,-23.524 1.992,-19.488 2.5,-21.48 1.988,-18.008 2.5,-20 1.988,-16.024 2.5,-17.5 1.992,-14.488 2.5,-15.512 2.04,-12.5 1.992,-13.468 2.5,-10.508 1.988,-11.024 2.5,-8.468 1.988,-8.52 2.5,-6.48 1.992,-6.532 2.5,-3.976 2.04,-4.032 2.5,-1.992 1.992,-1.988 h 2.5 l 1.988,1.02 1.988,1.992 2.5,3.008 1.992,4.492 2.5,5.508 2.04,6.48 2.5,8.012 1.992,8.468 2.5,10 1.988,11.02 2.5,11.988 1.99,13.012 2.5,14.488 1.99,15 2.04,16.532 2.5,16.48 1.99,18.52 2.5,18.468 1.99,20.512 2.5,20 1.99,22.5 2.5,21.48 1.99,24.032 2.5,23.008 2.04,25.46 2.5,24.54 1.99,26.992 1.99,25.508 2.5,28.468 1.99,26.532 2.5,29.492 1.99,26.988 2.5,30.512 2.04,28.008 2.5,31.48 1.99,28.01 2.5,32.5 1.99,28.01 2.5,32.96 1.99,27.5 1.99,33.52 2.5,27.5 2.04,32.5 2.5,28.01 1.99,31.48 2.5,28.52 1.99,30.51 2.5,27.96 1.99,30 2.5,27.5 1.99,29.03 2.5,27.5 2.04,28.01 2.5,26.48 1.99,26.99 1.99,25 2.5,26.02 1.99,23.98 2.5,25 1.99,22.5 2.5,23.01 2.04,21.48 2.5,21.53 1.99,20 2.5,19.49 1.99,18.52 2.5,17.5 1.99,16.48 1.99,16.02 2.5,14.49 2.04,13.98 2.5,12.5 1.99,11.99 2.5,10 1.99,10 2.5,8.01 1.99,6.53 2.5,5 1.99,3.47 2.5,1.99 2.04,1.02 h 1.99 l 2.5,-0.51 1.99,-0.97 2.5,-1.02 1.99,-1.99 2.5,-1.99 1.99,-3.52 2.5,-3.98 2.04,-5.51 2.5,-6.99 1.99,-9.54 2.5,-10 1.99,-11.99 1.99,-12.5 2.5,-13.98 1.99,-14.49 2.5,-15.51 2.04,-16.53 2.5,-17.96 1.99,-18.52 2.5,-18.98 1.99,-20.51 2.5,-21.02 1.99,-21.48 2.5,-23.01 1.99,-23.01 2.04,-23.98 2.5,-25 1.99,-25 2.5,-26.02 1.99,-26.48 2.5,-26.99 1.99,-27.5 2.5,-27.5 1.99,-28.52 2.5,-28.52 2.04,-28.98 2.5,-28.98 1.99,-29.54 1.99,-29.49 2.5,-29.49 1.99,-30 2.5,-29.49 1.99,-26.99 2.04,-35.51 1.99,-15 1.99,-40.51 2.5,-21.02 1.99,-37.96 2.5,-24.03 1.99,-35.002 2.5,-25.508 2.04,-32.5 1.99,-25.968 2.5,-31.024 1.99,-25.508 2.5,-29.492 1.99,-24.488 2.5,-28.52 1.99,-23.468 2.5,-26.532 2.04,-22.5 2.5,-25 1.99,-20.968 2.5,-23.524 1.99,-19.488 1.99,-21.48 2.5,-18.008 1.99,-20 2.5,-16.024 2.04,-17.5 2.5,-14.488 1.99,-15.512 2.5,-12.5 1.99,-13.468 2.5,-10.508 1.99,-11.024 2.5,-8.468 1.99,-8.52 2.04,-6.48 2.5,-6.532 1.99,-3.976 2.5,-4.032 1.99,-1.992 2.5,-1.988 h 1.99 l 2.5,1.02 1.99,1.992 2.5,3.008 2.04,4.492 2.5,5.508 1.99,6.48 1.99,8.012 2.5,8.468 1.99,10 2.5,11.02 1.99,11.988 2.5,13.012 2.04,14.488 2.5,15 1.99,16.532 2.5,16.48 1.99,18.52 2.5,18.468 1.99,20.512 2.5,20 1.99,22.5 2.04,21.48 2.5,24.032 1.99,23.008 2.5,25.46 1.99,24.54 2.5,26.992 1.99,25.508 2.5,28.468 1.99,26.532 2.5,29.492 2.04,26.988 2.5,30.512 1.99,28.008 1.99,31.48 2.5,28.01 1.99,32.5 2.5,28.01 1.99,32.96 2.5,27.5 2.04,33.52 2.5,27.5 1.99,32.5 2.5,28.01 1.99,31.48 2.5,28.52 1.99,30.51 1.99,27.96 2.5,30 2.04,27.5 2.5,29.03 1.99,27.5 2.5,28.01 1.99,26.48 2.5,26.99 1.99,25 2.5,26.02 1.99,23.98 2.5,25 2.04,22.5 1.99,23.01 2.5,21.48 1.99,21.53 2.5,20 1.99,19.49 2.5,18.52 1.99,17.5 2.5,16.48 2.04,16.02 2.5,14.49 1.99,13.98 2.5,12.5 1.99,11.99 1.99,10 2.5,10 1.99,8.01 2.5,6.53 2.04,5 2.5,3.47 1.99,1.99 2.5,1.02 h 1.99 l 2.5,-0.51 1.99,-0.97 2.5,-1.02 1.99,-1.99 2.04,-1.99 2.5,-3.52 1.99,-3.98 2.5,-5.51 1.99,-6.99 2.5,-9.54 1.99,-10 2.5,-11.99 1.99,-12.5 2.5,-13.98 2.04,-14.49 2.5,-15.51 1.99,-16.53 1.99,-17.96 2.5,-18.52 1.99,-18.98 2.5,-20.51 1.99,-21.02 2.5,-21.48 2.04,-23.01 2.5,-23.01 1.99,-23.98 2.5,-25 1.99,-25 2.5,-26.02 1.99,-26.48 1.99,-26.99 2.5,-27.5 2.04,-27.5 2.5,-28.52 1.99,-28.52 2.5,-28.98 1.99,-28.98 2.5,-29.54 1.99,-29.49 2.5,-29.49 1.99,-30 2.5,-29.49 2.04,-26.99 1.99,-35.51 1.99,-15 1.99,-40.51 1.99,-21.02 2.5,-37.96 2.04,-24.03 2.5,-35.002 1.99,-25.508 2.5,-32.5 1.99,-25.968 2.5,-31.024 1.99,-25.508 2.5,-29.492 1.99,-24.488 2.04,-28.52 2.5,-23.468 1.99,-26.532 2.5,-22.5 1.99,-25 2.5,-20.968 1.99,-23.524 2.5,-19.488 1.99,-21.48 2.5,-18.008 2.04,-20 2.5,-16.024 1.99,-17.5 1.99,-14.488 2.5,-15.512 1.99,-12.5 2.5,-13.468 1.99,-10.508 2.5,-11.024 2.04,-8.468 2.5,-8.52 1.99,-6.48 2.5,-6.532 1.99,-3.976 2.5,-4.032 1.99,-1.992 2.5,-1.988 h 1.99 l 2.04,1.02 2.5,1.992 1.99,3.008 2.5,4.492 1.99,5.508 2.5,6.48 1.99,8.012 2.5,8.468 1.99,10 2.5,11.02 2.04,11.988 2.5,13.012 1.99,14.488 1.99,15 2.5,16.532 1.99,16.48 2.5,18.52 1.99,18.468 2.5,20.512 2.04,20 2.5,22.5 1.99,21.48 2.5,24.032 1.99,23.008 2.5,25.46 1.99,24.54 1.99,26.992 2.5,25.508 2.04,28.468 2.5,26.532 1.99,29.492 2.5,26.988 1.99,30.512 2.5,28.008 1.99,31.48 2.5,28.01 1.99,32.5 2.5,28.01 2.04,32.96 1.99,27.5 2.5,33.52 1.99,27.5 2.5,32.5 1.99,28.01 2.5,31.48 1.99,28.52 2.5,30.51 2.04,27.96 2.5,30 1.99,27.5 2.5,29.03 1.99,27.5 1.99,28.01 2.5,26.48 1.99,26.99 2.5,25 2.04,26.02 2.5,23.98 1.99,25 2.5,22.5 1.99,23.01 2.5,21.48 1.99,21.53 2.5,20 1.99,19.49 2.04,18.52 2.5,17.5 1.99,16.48 2.5,16.02 1.99,14.49 2.5,13.98 1.99,12.5 2.5,11.99 1.99,10 2.5,10 2.04,8.01 2.5,6.53 1.99,5 1.99,3.47 2.5,1.99 1.99,1.02 h 2.5 l 1.99,-0.51 2.5,-0.97 2.04,-1.02 2.5,-1.99 1.99,-1.99 2.5,-3.52 1.99,-3.98 2.5,-5.51 1.99,-6.99 2.5,-9.54 1.99,-10 2.04,-11.99 2.5,-12.5 1.99,-13.98 2.5,-14.49 1.99,-15.51 2.5,-16.53 1.99,-17.96 2.5,-18.52 1.99,-18.98 2.5,-20.51 2.04,-21.02 2.5,-21.48 3.98,-46.02 2.5,-23.98 1.99,-25 2.5,-25 1.99,-26.02 2.5,-26.48 2.04,-26.99 2.5,-27.5 1.99,-27.5 2.5,-28.52 1.99,-28.52 2.5,-28.98 1.99,-28.98 1.99,-29.54 2.5,-29.49 2.04,-29.49 2.5,-30 1.99,-29.49 2.5,-26.99 1.48,-35.51 1.99,-15 2.5,-40.51 2.04,-21.02 2.5,-37.96 1.99,-24.03 2.5,-35.002 1.99,-25.508 1.99,-32.5 2.5,-25.968 1.99,-31.024 2.5,-25.508 2.04,-29.492 2.5,-24.488 1.99,-28.52 2.5,-23.468 1.99,-26.532 2.5,-22.5 1.99,-25 2.5,-20.968 1.99,-23.524 2.04,-19.488 2.5,-21.48 1.99,-18.008 2.5,-20 1.99,-16.024 2.5,-17.5 1.99,-14.488 2.5,-15.512 1.99,-12.5 2.5,-13.468 2.04,-10.508 2.5,-11.024 1.99,-8.468 1.99,-8.52 2.5,-6.48 1.99,-6.532 2.5,-3.976 1.99,-4.032 2.5,-1.992 2.04,-1.988 h 2.5 l 1.99,1.02 2.5,1.992 1.99,3.008 2.5,4.492 1.99,5.508 1.99,6.48 2.5,8.012 2.04,8.468 2.5,10 1.99,11.02 2.5,11.988 1.99,13.012 2.5,14.488 1.99,15 2.5,16.532 1.99,16.48 2.5,18.52 2.04,18.468 1.99,20.512 2.5,20 1.99,22.5 2.5,21.48 1.99,24.032 2.5,23.008 1.99,25.46 2.5,24.54 2.04,26.992 2.5,25.508 1.99,28.468 2.5,26.532 1.99,29.492 1.99,26.988 2.5,30.512 1.99,28.008 2.5,31.48 2.04,28.01 2.5,32.5 1.99,28.01 2.5,32.96 1.99,27.5 2.5,33.52 1.99,27.5 2.5,32.5 1.99,28.01 2.04,31.48 2.5,28.52 1.99,30.51 2.5,27.96 1.99,30 2.5,27.5 1.99,29.03 2.5,27.5 1.99,28.01 2.5,26.48 2.04,26.99 2.5,25 1.99,26.02 1.99,23.98 2.5,25 1.99,22.5 2.5,23.01 1.99,21.48 2.5,21.53 2.04,20 2.5,19.49 1.99,18.52 2.5,17.5 1.99,16.48 2.5,16.02 1.99,14.49 2.5,13.98 1.99,12.5 2.04,11.99 2.5,10 1.99,10 2.5,8.01 1.99,6.53 2.5,5 1.99,3.47 2.5,1.99 1.99,1.02 h 2.5 l 2.04,-0.51 2.5,-0.97 1.99,-1.02 1.99,-1.99 2.5,-1.99 1.99,-3.52 2.5,-3.98 1.99,-5.51 2.5,-6.99 2.04,-9.54 2.5,-10 1.99,-11.99 2.5,-12.5 1.99,-13.98 2.5,-14.49 1.99,-15.51 1.99,-16.53 2.5,-17.96 2.04,-18.52 2.5,-18.98 1.99,-20.51 2.5,-21.02 1.99,-21.48 2.5,-23.01 1.99,-23.01 2.5,-23.98 1.99,-25 2.5,-25 2.04,-26.02 1.99,-26.48 2.5,-26.99 1.99,-27.5 2.5,-27.5 1.99,-28.52 2.5,-28.52 1.99,-28.98 2.5,-28.98 2.04,-29.54 2.5,-29.49 1.99,-29.49 2.5,-30 1.99,-29.49 1.99,-26.99 1.99,-35.51 2.04,-15 1.99,-40.51 2.5,-21.02 1.99,-37.96 2.5,-24.03 1.99,-35.002 2.5,-25.508 1.99,-32.5 2.5,-25.968 2.04,-31.024 2.5,-25.508 1.99,-29.492 1.99,-24.488 2.5,-28.52 1.99,-23.468 2.5,-26.532 1.99,-22.5 2.5,-25 2.04,-20.968 2.5,-23.524 1.99,-19.488 2.5,-21.48 1.99,-18.008 2.5,-20 1.99,-16.024 1.99,-17.5 2.5,-14.488 2.04,-15.512 2.5,-12.5 1.99,-13.468 2.5,-10.508 1.99,-11.024 2.5,-8.468 1.99,-8.52 2.5,-6.48 1.99,-6.532 2.5,-3.976 2.04,-4.032 1.99,-1.992 2.5,-1.988 h 1.99 l 2.5,1.02 1.99,1.992 2.5,3.008 1.99,4.492 2.5,5.508 2.04,6.48 2.5,8.012 1.99,8.468 2.5,10 1.99,11.02 1.99,11.988 2.5,13.012 1.99,14.488 2.5,15 2.04,16.532 2.5,16.48 1.99,18.52 2.5,18.468 1.99,20.512 2.5,20 1.99,22.5 2.5,21.48 1.99,24.032 2.04,23.008 2.5,25.46 1.99,24.54 2.5,26.992 1.99,25.508 2.5,28.468 1.99,26.532 2.5,29.492 1.99,26.988 2.5,30.512 2.04,28.008 2.5,31.48 1.99,28.01 1.99,32.5 2.5,28.01 1.99,32.96 2.5,27.5 1.99,33.52 2.5,27.5 2.04,32.5 2.5,28.01 1.99,31.48 2.5,28.52 1.99,30.51 2.5,27.96 1.99,30 2.5,27.5 1.99,29.03 2.04,27.5 2.5,28.01 1.99,26.48 2.5,26.99 1.99,25 2.5,26.02 1.99,23.98 2.5,25 1.99,22.5 2.5,23.01 2.04,21.48 2.5,21.53 1.99,20 1.99,19.49 2.5,18.52 1.99,17.5 2.5,16.48 1.99,16.02 2.5,14.49 2.04,13.98 2.5,12.5 1.99,11.99 2.5,10 1.99,10 2.5,8.01 1.99,6.53 1.99,5 2.5,3.47 2.04,1.99 2.5,1.02 h 1.99 l 2.5,-0.51 1.99,-0.97 2.5,-1.02 1.99,-1.99 2.5,-1.99 1.99,-3.52 2.5,-3.98 2.04,-5.51 1.99,-6.99 2.5,-9.54 1.99,-10 2.5,-11.99 1.99,-12.5 2.5,-13.98 1.99,-14.49 2.5,-15.51 2.04,-16.53 2.5,-17.96 1.99,-18.52 2.5,-18.98 1.99,-20.51 1.99,-21.02 2.5,-21.48 1.99,-23.01 2.5,-23.01 2.04,-23.98 2.5,-25 1.99,-25 2.5,-26.02 1.99,-26.48 2.5,-26.99 1.99,-27.5 2.5,-27.5 1.99,-28.52 2.04,-28.52 2.5,-28.98 1.99,-28.98 2.5,-29.54 1.99,-29.49 2.5,-29.49 1.99,-30 2.5,-29.49 1.99,-26.99 2.04,-35.51 1.99,-15 1.99,-40.51 2.5,-21.02 1.99,-37.96 1.99,-24.03 2.5,-35.002 2.04,-25.508 2.5,-32.5 1.99,-25.968 2.5,-31.024 1.99,-25.508 2.5,-29.492 1.99,-24.488 2.5,-28.52 1.99,-23.468 2.5,-26.532 2.04,-22.5 1.99,-25 2.5,-20.968 1.99,-23.524 2.5,-19.488 1.99,-21.48 2.5,-18.008 1.99,-20 2.5,-16.024 2.04,-17.5 1.48,-8.976" /><path
         id="path200"
         style="fill:none;stroke:#000000;stroke-width:2.5;stroke-linecap:square;stroke-linejoin:miter;stroke-miterlimit:3.79999995;stroke-dasharray:none;stroke-opacity:1"
         d="m 327.5,292.5 h 2475 v 1760 h -2475 z" /></g></g></svg>